<?xml version="1.0" encoding="UTF-8"?>
<svg version="1.1" xmlns="http://www.w3.org/2000/svg" width="225" height="225">
<path d="M0 0 C74.25 0 148.5 0 225 0 C225 74.25 225 148.5 225 225 C150.75 225 76.5 225 0 225 C0 150.75 0 76.5 0 0 Z " fill="#F6F6F6" transform="translate(0,0)"/>
<path d="M0 0 C0.97328247 -0.00686325 1.94656494 -0.0137265 2.94934082 -0.02079773 C6.15200579 -0.03903063 9.35417926 -0.03523317 12.55688477 -0.02954102 C14.79216165 -0.03410444 17.02743712 -0.03941049 19.26271057 -0.04542542 C23.94228829 -0.05434961 28.62169528 -0.0519411 33.30126953 -0.04199219 C39.2877791 -0.03050274 45.27369879 -0.05071767 51.26013088 -0.07990932 C55.87477846 -0.09828554 60.48928504 -0.097976 65.10396004 -0.0922718 C67.31068817 -0.09211877 69.51742597 -0.09814832 71.72411919 -0.11056328 C74.81384808 -0.12549814 77.90249176 -0.11477726 80.9921875 -0.09765625 C81.89685257 -0.10732422 82.80151764 -0.11699219 83.7335968 -0.12695312 C89.64056841 -0.05866908 94.12760887 1.06022658 99.06079102 4.40405273 C102.95339365 8.49627601 104.16339026 11.6306717 104.23657227 17.20092773 C104.51271728 38.40380355 104.51271728 38.40380355 113.06079102 57.40405273 C116.1706865 59.73647435 118.23668048 60.4480251 122.06079102 61.40405273 C122.06079102 64.37405273 122.06079102 67.34405273 122.06079102 70.40405273 C120.3355306 71.08764648 118.61027018 71.77124023 116.88500977 72.45483398 C111.44894753 75.28344881 109.2869728 80.98777541 107.06079102 86.40405273 C105.37992638 91.76124698 105.03980296 97.12937404 104.90063477 102.71264648 C104.87324219 103.67654297 104.84584961 104.64043945 104.81762695 105.63354492 C104.77229776 107.56737784 104.74985361 109.50191804 104.75317383 111.4362793 C104.6413838 116.98067266 103.80635042 120.89737412 100.91162109 125.64355469 C95.12176337 131.15083131 88.70223102 131.99061498 81.00805664 131.92163086 C79.54791389 131.93214478 79.54791389 131.93214478 78.05827332 131.94287109 C74.86090023 131.96038482 71.66442211 131.94885153 68.46704102 131.93530273 C66.23319327 131.93799954 63.99934667 131.94188353 61.76550293 131.94689941 C57.09184555 131.95278551 52.4184947 131.94425987 47.74487305 131.92553711 C41.76621346 131.90274847 35.78827223 131.91587627 29.80963898 131.93982697 C25.19926582 131.95430875 20.58906184 131.94966796 15.97868347 131.9393158 C13.77475397 131.93665511 11.57080891 131.93989501 9.36689758 131.94923401 C6.28202866 131.95943855 3.19830912 131.94384318 0.11352539 131.92163086 C-0.78956863 131.92972778 -1.69266266 131.93782471 -2.62312317 131.94616699 C-8.52274639 131.8678127 -13.01112403 130.74160186 -17.93920898 127.40405273 C-21.77363312 123.37299147 -23.03298303 120.24724891 -23.15014648 114.75561523 C-23.56160955 93.12898739 -23.56160955 93.12898739 -32.81420898 74.02905273 C-35.38516402 72.06302829 -37.83392866 71.25094737 -40.93920898 70.40405273 C-40.93920898 67.43405273 -40.93920898 64.46405273 -40.93920898 61.40405273 C-39.88733398 61.03280273 -38.83545898 60.66155273 -37.75170898 60.27905273 C-30.93375711 57.29619879 -28.41934289 51.82470823 -25.73608398 45.25952148 C-24.15397344 39.59029205 -23.90338835 33.85733197 -23.83374023 27.99389648 C-23.81150391 26.60267578 -23.81150391 26.60267578 -23.78881836 25.18334961 C-23.76402979 23.28506681 -23.7589002 21.38642795 -23.77319336 19.48803711 C-23.63587642 13.50850855 -22.56352019 9.81763753 -18.90673828 5.0625 C-13.15550811 0.21473892 -7.19162125 -0.03570589 0 0 Z " fill="#7D13F9" transform="translate(71.939208984375,46.595947265625)"/>
<path d="M0 0 C38.47884187 0 38.47884187 0 44.05859375 4.75390625 C44.74115234 5.64916016 44.74115234 5.64916016 45.4375 6.5625 C45.91058594 7.16191406 46.38367188 7.76132813 46.87109375 8.37890625 C49.45413996 12.08812486 49.44449625 15.6105995 49 20 C47.45645327 24.63064019 45.81178471 27.90292492 42 31 C41.01 31.33 40.02 31.66 39 32 C39.60328125 32.29132813 40.2065625 32.58265625 40.828125 32.8828125 C45.93588682 35.50260001 49.73556954 37.4866041 52 43 C52.96642219 50.11807114 52.95897318 56.49381168 48.5625 62.4140625 C43.98734511 67.05784471 38.65414858 68.91983768 32.24121094 69.11352539 C30.738923 69.11327683 29.23662864 69.10781093 27.734375 69.09765625 C27.03070801 69.09664917 26.32704102 69.09564209 25.60205078 69.09460449 C22.98468384 69.08939005 20.36734021 69.07542881 17.75 69.0625 C11.8925 69.041875 6.035 69.02125 0 69 C0 46.23 0 23.46 0 0 Z " fill="#F7F0FB" transform="translate(88,78)"/>
<path d="M0 0 C3.50625 -0.0825 7.0125 -0.165 10.625 -0.25 C11.71893066 -0.28641602 12.81286133 -0.32283203 13.93994141 -0.36035156 C19.96509533 -0.42888202 23.45890819 -0.08551302 28 4 C30.46406448 7.69609672 30.67864807 10.71027391 30 15 C27.60200711 19.08546937 25.42142862 20.54543923 21 22 C18.50463867 22.22705078 18.50463867 22.22705078 15.91796875 22.1953125 C14.65762817 22.18781982 14.65762817 22.18781982 13.37182617 22.18017578 C12.32099854 22.16196777 11.2701709 22.14375977 10.1875 22.125 C5.1446875 22.063125 5.1446875 22.063125 0 22 C0 14.74 0 7.48 0 0 Z " fill="#780FF7" transform="translate(99,116)"/>
<path d="M0 0 C3.196875 -0.061875 6.39375 -0.12375 9.6875 -0.1875 C11.18543091 -0.22846802 11.18543091 -0.22846802 12.71362305 -0.27026367 C17.60045592 -0.31605465 21.08380688 -0.29406875 25 3 C26.73765543 6.47531087 26.59585352 10.2088001 26 14 C23.47031526 17.28175318 21.92268669 18.69243777 18 20 C16.59175107 20.08021999 15.18002769 20.10765977 13.76953125 20.09765625 C13.04612549 20.09515869 12.32271973 20.09266113 11.57739258 20.09008789 C10.66497803 20.08098389 9.75256348 20.07187988 8.8125 20.0625 C5.904375 20.041875 2.99625 20.02125 0 20 C0 13.4 0 6.8 0 0 Z " fill="#7C11F9" transform="translate(99,87)"/>
<path d="M0 0 C5.09772386 2.08543249 7.72343797 3.92151546 10 9 C10.99008295 16.10638975 10.95037562 22.50538909 6.5625 28.4140625 C1.98734511 33.05784471 -3.34585142 34.91983768 -9.75878906 35.11352539 C-11.26107701 35.11336789 -12.76337107 35.10776769 -14.265625 35.09765625 C-15.05902283 35.0962413 -15.85242065 35.09482635 -16.66986084 35.09336853 C-19.19661272 35.08778415 -21.72327504 35.07523454 -24.25 35.0625 C-25.96614455 35.05748298 -27.68229049 35.05292043 -29.3984375 35.04882812 C-33.59899269 35.03781984 -37.79948117 35.02056596 -42 35 C-40.515 34.505 -40.515 34.505 -39 34 C-39 33.34 -39 32.68 -39 32 C-37.35 32 -35.7 32 -34 32 C-34 32.33 -34 32.66 -34 33 C-28.72 33 -23.44 33 -18 33 C-17.34 31.68 -16.68 30.36 -16 29 C-13.69 29.33 -11.38 29.66 -9 30 C-9.66 29.67 -10.32 29.34 -11 29 C-10.875 27.1875 -10.875 27.1875 -10 25 C-8.02583732 23.94991347 -6.02417134 22.95012124 -4 22 C-1.54514057 18.31771085 -1.17067416 15.27545652 -2 11 C-3.44374039 8.6105342 -5.00320659 6.99679341 -7 5 C-5.02 5 -3.04 5 -1 5 C-0.67 3.35 -0.34 1.7 0 0 Z " fill="#F0E4F8" transform="translate(130,112)"/>
<path d="M0 0 C1.32 0.66 2.64 1.32 4 2 C3.67 2.66 3.34 3.32 3 4 C3.66 4 4.32 4 5 4 C4.67 5.32 4.34 6.64 4 8 C1.69 8.33 -0.62 8.66 -3 9 C-3.66 11.97 -4.32 14.94 -5 18 C-1.37 18 2.26 18 6 18 C6 20.97 6 23.94 6 27 C3.44165689 28.27917156 1.83998712 28.03127808 -1 27.8125 C-1.886875 27.75707031 -2.77375 27.70164063 -3.6875 27.64453125 C-6 27 -6 27 -7.3125 24.94921875 C-7.6528125 23.98435547 -7.6528125 23.98435547 -8 23 C-8 24.32 -8 25.64 -8 27 C-6.68 27.33 -5.36 27.66 -4 28 C-4 30.97 -4 33.94 -4 37 C-5.98 37.495 -5.98 37.495 -8 38 C-8.33 39.32 -8.66 40.64 -9 42 C-9.66 42 -10.32 42 -11 42 C-11.33 42.99 -11.66 43.98 -12 45 C-12.41702112 30.37337019 -12.60848016 15.632274 -4 3 C-1.83984375 1.2265625 -1.83984375 1.2265625 0 0 Z " fill="#EEE9F2" transform="translate(188,118)"/>
<path d="M0 0 C2.05078125 0.03255208 4.1015625 0.06510417 6.15234375 0.09765625 C6.15234375 3.06765625 6.15234375 6.03765625 6.15234375 9.09765625 C3.51234375 9.09765625 0.87234375 9.09765625 -1.84765625 9.09765625 C-1.84765625 10.08765625 -1.84765625 11.07765625 -1.84765625 12.09765625 C-2.50765625 12.09765625 -3.16765625 12.09765625 -3.84765625 12.09765625 C-3.82703125 13.06703125 -3.80640625 14.03640625 -3.78515625 15.03515625 C-3.84765625 18.09765625 -3.84765625 18.09765625 -4.84765625 19.09765625 C-7.51824476 19.23880786 -10.17197863 19.14012732 -12.84765625 19.09765625 C-12.84765625 22.39765625 -12.84765625 25.69765625 -12.84765625 29.09765625 C-11.85765625 29.42765625 -10.86765625 29.75765625 -9.84765625 30.09765625 C-10.50765625 30.09765625 -11.16765625 30.09765625 -11.84765625 30.09765625 C-12.17765625 30.75765625 -12.50765625 31.41765625 -12.84765625 32.09765625 C-12.84765625 31.43765625 -12.84765625 30.77765625 -12.84765625 30.09765625 C-16.14765625 30.09765625 -19.44765625 30.09765625 -22.84765625 30.09765625 C-22.84765625 30.75765625 -22.84765625 31.41765625 -22.84765625 32.09765625 C-25.81765625 32.09765625 -28.78765625 32.09765625 -31.84765625 32.09765625 C-31.35265625 30.61265625 -31.35265625 30.61265625 -30.84765625 29.09765625 C-28.20765625 29.09765625 -25.56765625 29.09765625 -22.84765625 29.09765625 C-22.84765625 25.79765625 -22.84765625 22.49765625 -22.84765625 19.09765625 C-23.50765625 19.09765625 -24.16765625 19.09765625 -24.84765625 19.09765625 C-25.17765625 18.10765625 -25.50765625 17.11765625 -25.84765625 16.09765625 C-24.85765625 15.10765625 -23.86765625 14.11765625 -22.84765625 13.09765625 C-22.18765625 14.74765625 -21.52765625 16.39765625 -20.84765625 18.09765625 C-18.86765625 18.09765625 -16.88765625 18.09765625 -14.84765625 18.09765625 C-13.85765625 15.45765625 -12.86765625 12.81765625 -11.84765625 10.09765625 C-8.38265625 9.60265625 -8.38265625 9.60265625 -4.84765625 9.09765625 C-3.80543596 6.19288304 -3.80543596 6.19288304 -3.34765625 3.47265625 C-2.6460134 0.13985272 -2.6460134 0.13985272 0 0 Z " fill="#EEEEEE" transform="translate(177.84765625,9.90234375)"/>
<path d="M0 0 C1.39136534 0.04232649 2.78256436 0.09034885 4.17358398 0.14282227 C5.27016579 0.17823875 5.27016579 0.17823875 6.38890076 0.21437073 C8.7326823 0.29117936 11.07614756 0.37512882 13.41967773 0.45922852 C15.00494852 0.51243203 16.59023491 0.56517253 18.17553711 0.61743164 C22.06961905 0.74681756 25.96343184 0.88260983 29.85717773 1.02172852 C29.85717773 1.35172852 29.85717773 1.68172852 29.85717773 2.02172852 C18.96717773 2.02172852 8.07717773 2.02172852 -3.14282227 2.02172852 C-3.14282227 25.45172852 -3.14282227 48.88172852 -3.14282227 73.02172852 C20.63767642 74.38185773 20.63767642 74.38185773 44.85717773 66.02172852 C48.45721307 60.91398608 50.45950236 56.25197608 50.85717773 50.02172852 C53.19522554 53.6749282 53.0090788 56.76849869 52.85717773 61.02172852 C52.85717773 62.34172852 52.85717773 63.66172852 52.85717773 65.02172852 C52.36217773 66.50672852 52.36217773 66.50672852 51.85717773 68.02172852 C51.19717773 67.03172852 50.53717773 66.04172852 49.85717773 65.02172852 C49.52717773 65.68172852 49.19717773 66.34172852 48.85717773 67.02172852 C48.19717773 67.02172852 47.53717773 67.02172852 46.85717773 67.02172852 C46.52717773 69.99172852 46.19717773 72.96172852 45.85717773 76.02172852 C45.19717773 76.02172852 44.53717773 76.02172852 43.85717773 76.02172852 C43.85717773 75.03172852 43.85717773 74.04172852 43.85717773 73.02172852 C42.17205078 73.51068604 42.17205078 73.51068604 40.45288086 74.00952148 C35.70117576 75.19223241 31.20102388 75.27740552 26.32592773 75.21704102 C25.01114441 75.21279617 25.01114441 75.21279617 23.6697998 75.20846558 C20.89878075 75.19736344 18.12809738 75.17227805 15.35717773 75.14672852 C13.46655744 75.13668581 11.57593202 75.12756223 9.68530273 75.11938477 C5.07580044 75.09745687 0.4665458 75.06299696 -4.14282227 75.02172852 C-4.16594691 65.3906014 -4.18373797 55.75948377 -4.19463444 46.128335 C-4.199863 41.65667303 -4.20696016 37.18502998 -4.21826172 32.71337891 C-4.22909155 28.40160879 -4.2350993 24.08985693 -4.23769951 19.77807426 C-4.23955358 18.12936554 -4.24317387 16.48065786 -4.24855232 14.83195686 C-4.25576405 12.5306898 -4.25681315 10.22949912 -4.25634766 7.92822266 C-4.25856827 6.61584122 -4.26078888 5.30345978 -4.26307678 3.9513092 C-4.09647463 -0.10736952 -4.09942698 0.02834219 0 0 Z " fill="#700AF1" transform="translate(90.142822265625,74.978271484375)"/>
<path d="M0 0 C2.97 0 5.94 0 9 0 C9.87890625 6.93359375 9.87890625 6.93359375 10 9 C9.67 9.33 9.34 9.66 9 10 C8.030625 9.979375 7.06125 9.95875 6.0625 9.9375 C2.88968786 9.64862426 2.88968786 9.64862426 1 12 C0.30643577 14.32548007 -0.36149212 16.65880445 -1 19 C-2 20 -2 20 -3.84765625 20.09765625 C-5.8984375 20.06510417 -7.94921875 20.03255208 -10 20 C-10 16.7 -10 13.4 -10 10 C-7.03 10 -4.06 10 -1 10 C-0.67 6.7 -0.34 3.4 0 0 Z " fill="#FDFDFD" transform="translate(10,184)"/>
<path d="M0 0 C2.97 0 5.94 0 9 0 C9 2.97 9 5.94 9 9 C7.88625 9.12375 7.88625 9.12375 6.75 9.25 C3.38573588 10.16752658 2.12940379 11.26219512 0 14 C-0.72197162 16.60611077 -0.72197162 16.60611077 -1 19 C-2 20 -2 20 -3.84765625 20.09765625 C-5.8984375 20.06510417 -7.94921875 20.03255208 -10 20 C-10 16.7 -10 13.4 -10 10 C-7.03 10 -4.06 10 -1 10 C-0.67 6.7 -0.34 3.4 0 0 Z " fill="#FDFDFD" transform="translate(146,184)"/>
<path d="M0 0 C3.125 0.25 3.125 0.25 5.0625 1.375 C6.125 3.25 6.125 3.25 6.3125 6.25 C5.125 9.25 5.125 9.25 3.30078125 10.09375 C1.84775236 10.53200647 0.39330556 10.96558854 -1.0625 11.39453125 C-1.660625 11.67683594 -2.25875 11.95914063 -2.875 12.25 C-4.01531566 15.32797583 -4.01531566 15.32797583 -3.875 18.25 C-8.825 18.745 -8.825 18.745 -13.875 19.25 C-13.875 16.94 -13.875 14.63 -13.875 12.25 C-14.535 12.25 -15.195 12.25 -15.875 12.25 C-15.215 10.93 -14.555 9.61 -13.875 8.25 C-10.905 8.58 -7.935 8.91 -4.875 9.25 C-4.730625 7.950625 -4.58625 6.65125 -4.4375 5.3125 C-3.8847561 0.33780488 -3.8847561 0.33780488 0 0 Z " fill="#FBFBFB" transform="translate(71.875,28.75)"/>
<path d="M0 0 C2.0625 0.4375 2.0625 0.4375 4 1 C4 3.64 4 6.28 4 9 C3.443125 9.12375 2.88625 9.2475 2.3125 9.375 C-1.89945236 10.5133655 -5.09915771 11.64112998 -8 15 C-7.34 16.98 -6.68 18.96 -6 21 C-10.01349645 20.71998862 -11.72035142 20.24236211 -14.8125 17.5625 C-17 15 -17 15 -18 13 C-17 11.5 -17 11.5 -15 10 C-12.28153765 9.72654521 -9.74322801 9.86508715 -7 10 C-6.67 7.03 -6.34 4.06 -6 1 C-4.7934375 1.0309375 -4.7934375 1.0309375 -3.5625 1.0625 C-1.06645115 1.29633621 -1.06645115 1.29633621 0 0 Z " fill="#EEEEEF" transform="translate(200,87)"/>
<path d="M0 0 C0.33 0 0.66 0 1 0 C1 2.97 1 5.94 1 9 C2.3303125 9.0928125 2.3303125 9.0928125 3.6875 9.1875 C7.97865615 10.24004774 9.24783383 11.5421502 12 15 C17 23.61263736 17 23.61263736 17 28 C16.4225 27.814375 15.845 27.62875 15.25 27.4375 C12.69606643 26.7761831 12.69606643 26.7761831 9 28 C9 24.7 9 21.4 9 18 C6.03 18 3.06 18 0 18 C-1.03863773 11.76817361 -0.83288874 6.25307239 0 0 Z " fill="#EDEBED" transform="translate(30,108)"/>
<path d="M0 0 C1.134375 0.020625 2.26875 0.04125 3.4375 0.0625 C3.4375 3.0325 3.4375 6.0025 3.4375 9.0625 C1.38671875 9.29036458 -0.6640625 9.51822917 -2.71484375 9.74609375 C-4.57390229 9.88136614 -4.57390229 9.88136614 -5.5625 11.0625 C-5.60342937 13.39547433 -5.60491723 15.72955225 -5.5625 18.0625 C-8.77701269 19.66975635 -11.99862536 19.11998185 -15.5625 19.0625 C-15.5625 16.0925 -15.5625 13.1225 -15.5625 10.0625 C-12.63425348 9.08641783 -10.60636724 8.98023332 -7.5625 9.0625 C-7.35753906 8.49660156 -7.15257812 7.93070313 -6.94140625 7.34765625 C-6.67199219 6.61417969 -6.40257812 5.88070312 -6.125 5.125 C-5.85816406 4.39410156 -5.59132812 3.66320312 -5.31640625 2.91015625 C-3.98876951 -0.3435856 -3.87463113 0.06797598 0 0 Z " fill="#EEEEEE" transform="translate(180.5625,203.9375)"/>
<path d="M0 0 C3.3 0 6.6 0 10 0 C10.43126685 5.26145553 10.43126685 5.26145553 10 8 C7.8125 10.0625 7.8125 10.0625 5 11 C2.1875 10.6875 2.1875 10.6875 0 10 C0 12.64 0 15.28 0 18 C-1.65 18.33 -3.3 18.66 -5 19 C-5.33 17.68 -5.66 16.36 -6 15 C-6.33 16.32 -6.66 17.64 -7 19 C-7.66 19 -8.32 19 -9 19 C-9.25 15.6875 -9.25 15.6875 -9 12 C-7 10.0625 -7 10.0625 -5 9 C-3.68 9.66 -2.36 10.32 -1 11 C-1 10.34 -1 9.68 -1 9 C-0.34 9 0.32 9 1 9 C0.835 8.2575 0.67 7.515 0.5 6.75 C0 4 0 4 0 0 Z " fill="#ECECED" transform="translate(29,97)"/>
<path d="M0 0 C1.12697548 0.01441132 1.12697548 0.01441132 2.27671814 0.02911377 C4.76579 0.06215546 7.25468917 0.10246799 9.74365234 0.14282227 C11.46714668 0.16711834 13.19064744 0.19096215 14.91415405 0.21437073 C19.45490838 0.27726273 23.99554915 0.34631485 28.53619385 0.41662598 C33.16779398 0.48726327 37.79947476 0.55210777 42.43115234 0.61743164 C51.5223868 0.7465099 60.61351185 0.88209241 69.70458984 1.02172852 C69.70458984 1.35172852 69.70458984 1.68172852 69.70458984 2.02172852 C34.55958984 2.51672852 34.55958984 2.51672852 -1.29541016 3.02172852 C-1.29541016 4.01172852 -1.29541016 5.00172852 -1.29541016 6.02172852 C-4.30572759 6.95596496 -5.16191283 7.06622762 -8.29541016 6.02172852 C-8.29541016 6.68172852 -8.29541016 7.34172852 -8.29541016 8.02172852 C-9.28541016 8.02172852 -10.27541016 8.02172852 -11.29541016 8.02172852 C-11.62541016 7.36172852 -11.95541016 6.70172852 -12.29541016 6.02172852 C-12.95541016 5.69172852 -13.61541016 5.36172852 -14.29541016 5.02172852 C-9.12210914 0.801404 -6.58269137 -0.1195534 0 0 Z " fill="#870EFE" transform="translate(66.29541015625,47.978271484375)"/>
<path d="M0 0 C9.57 0 19.14 0 29 0 C29 1.98 29 3.96 29 6 C25.7 6 22.4 6 19 6 C19 4.35 19 2.7 19 1 C16.03 1 13.06 1 10 1 C9.67 2.65 9.34 4.3 9 6 C6.03 6 3.06 6 0 6 C0 4.02 0 2.04 0 0 Z " fill="#FCFCF9" transform="translate(97,178)"/>
<path d="M0 0 C3.3 0 6.6 0 10 0 C10.66 3.63 11.32 7.26 12 11 C11.01 11.66 10.02 12.32 9 13 C9 12.01 9 11.02 9 10 C6.03 10 3.06 10 0 10 C0 6.7 0 3.4 0 0 Z " fill="#FDFDFD" transform="translate(184,184)"/>
<path d="M0 0 C4.455 0.99 4.455 0.99 9 2 C9 4.97 9 7.94 9 11 C4.545 12.485 4.545 12.485 0 14 C-0.19627391 12.41773035 -0.38165538 10.83410729 -0.5625 9.25 C-0.66691406 8.36828125 -0.77132812 7.4865625 -0.87890625 6.578125 C-1 4 -1 4 0 0 Z " fill="#6C0DF1" transform="translate(185,106)"/>
<path d="M0 0 C2.01822917 0.06510417 4.03645833 0.13020833 6.0546875 0.1953125 C6.0546875 3.4953125 6.0546875 6.7953125 6.0546875 10.1953125 C-1.5703125 11.1953125 -1.5703125 11.1953125 -4.9453125 11.1953125 C-4.83121657 9.73608557 -4.70365706 8.27790652 -4.5703125 6.8203125 C-4.50070313 6.00820313 -4.43109375 5.19609375 -4.359375 4.359375 C-3.81320706 1.50487464 -2.97531711 0.29872662 0 0 Z " fill="#FCFCFC" transform="translate(129.9453125,28.8046875)"/>
<path d="M0 0 C3.3 0 6.6 0 10 0 C10.125 7.75 10.125 7.75 9 10 C6.03 10 3.06 10 0 10 C0 6.7 0 3.4 0 0 Z " fill="#EFEFEF" transform="translate(136,184)"/>
<path d="M0 0 C3.3 0 6.6 0 10 0 C10 3.3 10 6.6 10 10 C7.03 10 4.06 10 1 10 C-0.60725635 6.78548731 -0.05748185 3.56387464 0 0 Z " fill="#FDFDFD" transform="translate(87,184)"/>
<path d="M0 0 C0 3.3 0 6.6 0 10 C-3.3 10 -6.6 10 -10 10 C-10.43126685 4.73854447 -10.43126685 4.73854447 -10 2 C-6.64115313 -1.16691277 -4.32123972 -1.35810391 0 0 Z " fill="#EEEEEE" transform="translate(204,126)"/>
<path d="M0 0 C2.01822917 0.06510417 4.03645833 0.13020833 6.0546875 0.1953125 C6.0546875 3.4953125 6.0546875 6.7953125 6.0546875 10.1953125 C2.7546875 10.1953125 -0.5453125 10.1953125 -3.9453125 10.1953125 C-4.140625 4.140625 -4.140625 4.140625 -3.9453125 2.1953125 C-1.9453125 0.1953125 -1.9453125 0.1953125 0 0 Z " fill="#FDFDFD" transform="translate(32.9453125,125.8046875)"/>
<path d="M0 0 C1.23556641 0.01740234 1.23556641 0.01740234 2.49609375 0.03515625 C3.32238281 0.04417969 4.14867187 0.05320313 5 0.0625 C5.63808594 0.07410156 6.27617188 0.08570313 6.93359375 0.09765625 C6.96048591 1.57672517 6.97993996 3.05593108 6.99609375 4.53515625 C7.00769531 5.35886719 7.01929688 6.18257812 7.03125 7.03125 C6.93359375 9.09765625 6.93359375 9.09765625 5.93359375 10.09765625 C3.26300524 10.23880786 0.60927137 10.14012732 -2.06640625 10.09765625 C-3.55747082 7.11552712 -3.18582092 4.38155967 -3.06640625 1.09765625 C-2.06640625 0.09765625 -2.06640625 0.09765625 0 0 Z " fill="#FCFCFC" transform="translate(32.06640625,47.90234375)"/>
<path d="M0 0 C0.66 0.99 1.32 1.98 2 3 C1.67 3.33 1.34 3.66 1 4 C0.76924918 5.34747084 0.58846937 6.70377565 0.4375 8.0625 C0.293125 9.361875 0.14875 10.66125 0 12 C-3.3 12 -6.6 12 -10 12 C-10 9.03 -10 6.06 -10 3 C-7.68880208 2.8046875 -5.37760417 2.609375 -3.06640625 2.4140625 C-2.38449219 2.27742188 -1.70257813 2.14078125 -1 2 C-0.67 1.34 -0.34 0.68 0 0 Z " fill="#EEEEEE" transform="translate(194,36)"/>
<path d="M0 0 C2.97 0 5.94 0 9 0 C9 3.3 9 6.6 9 10 C5.78548731 11.60725635 2.56387464 11.05748185 -1 11 C-0.67 7.37 -0.34 3.74 0 0 Z " fill="#FDFDFD" transform="translate(107,184)"/>
<path d="M0 0 C1.45823212 -0.0270043 2.91660675 -0.04639787 4.375 -0.0625 C5.18710937 -0.07410156 5.99921875 -0.08570313 6.8359375 -0.09765625 C9 0 9 0 11 1 C11.72159424 2.64363134 12.39351421 4.31050386 13 6 C12.01 6.33 11.02 6.66 10 7 C9.67 7.66 9.34 8.32 9 9 C2.84765625 9.09765625 2.84765625 9.09765625 1 9 C0 8 0 8 -0.09765625 6.15234375 C-0.06510417 4.1015625 -0.03255208 2.05078125 0 0 Z " fill="#EDEDED" transform="translate(39,165)"/>
<path d="M0 0 C2.97 0 5.94 0 9 0 C9.33 3.3 9.66 6.6 10 10 C6.7169902 11.6415049 3.57454967 10.51888624 0 10 C0 6.7 0 3.4 0 0 Z " fill="#EEEEEE" transform="translate(0,184)"/>
<path d="M0 0 C0.66 0.33 1.32 0.66 2 1 C1.814375 1.556875 1.62875 2.11375 1.4375 2.6875 C0.91993794 5.42318519 1.39247745 7.29989976 2 10 C2 11.32 2 12.64 2 14 C-2.455 13.01 -2.455 13.01 -7 12 C-7 9.03 -7 6.06 -7 3 C-4.69631264 1.93347808 -2.35981813 0.93578995 0 0 Z " fill="#8411F4" transform="translate(38,105)"/>
<path d="M0 0 C3.3 0 6.6 0 10 0 C10 2.97 10 5.94 10 9 C6.7169902 10.6415049 3.57454967 9.51888624 0 9 C0 6.03 0 3.06 0 0 Z " fill="#EDEDED" transform="translate(184,0)"/>
<path d="M0 0 C2.05078125 0.03255208 4.1015625 0.06510417 6.15234375 0.09765625 C7.27734375 6.72265625 7.27734375 6.72265625 6.15234375 10.09765625 C3.18234375 10.09765625 0.21234375 10.09765625 -2.84765625 10.09765625 C-2.9453125 3.1640625 -2.9453125 3.1640625 -2.84765625 1.09765625 C-1.84765625 0.09765625 -1.84765625 0.09765625 0 0 Z " fill="#EEEEEE" transform="translate(2.84765625,47.90234375)"/>
<path d="M0 0 C3.1875 0.875 3.1875 0.875 6 2 C6 4.97 6 7.94 6 11 C3.36 11.33 0.72 11.66 -2 12 C-3.10647808 9.78704384 -3.19588368 8.45327301 -3.25 6 C-3.27578125 5.29875 -3.3015625 4.5975 -3.328125 3.875 C-3.21984375 3.25625 -3.1115625 2.6375 -3 2 C-2.01 1.34 -1.02 0.68 0 0 Z " fill="#FDFDFD" transform="translate(13,86)"/>
<path d="M0 0 C1.670625 0.061875 1.670625 0.061875 3.375 0.125 C3.705 3.755 4.035 7.385 4.375 11.125 C-2.55859375 10.5390625 -2.55859375 10.5390625 -4.625 10.125 C-6.00625018 7.36249964 -5.81579306 5.17768901 -5.625 2.125 C-3.625 0.125 -3.625 0.125 0 0 Z " fill="#FDFDFD" transform="translate(44.625,154.875)"/>
<path d="M0 0 C0 0.66 0 1.32 0 2 C0.66 2 1.32 2 2 2 C2 4.64 2 7.28 2 10 C-1.3 10 -4.6 10 -8 10 C-8.25 6.6875 -8.25 6.6875 -8 3 C-5.25765504 -0.03616763 -4.20797179 0 0 0 Z " fill="#EEEEEE" transform="translate(37,38)"/>
<path d="M0 0 C6.15234375 -0.09765625 6.15234375 -0.09765625 8 0 C9 1 9 1 9.1328125 2.8125 C9.13023438 3.534375 9.12765625 4.25625 9.125 5 C9.12757812 5.721875 9.13015625 6.44375 9.1328125 7.1875 C9 9 9 9 8 10 C5.32941149 10.14115161 2.67567762 10.04247107 0 10 C0 6.7 0 3.4 0 0 Z " fill="#EEEEEE" transform="translate(0,29)"/>
<path d="M0 0 C3.3 0 6.6 0 10 0 C10.09765625 6.15234375 10.09765625 6.15234375 10 8 C9 9 9 9 7.1875 9.1328125 C6.465625 9.13023438 5.74375 9.12765625 5 9.125 C4.278125 9.12757812 3.55625 9.13015625 2.8125 9.1328125 C1 9 1 9 0 8 C-0.14115161 5.32941149 -0.04247107 2.67567762 0 0 Z " fill="#EEEEEE" transform="translate(87,0)"/>
<path d="M0 0 C2.00797695 0.00356024 4.01435652 0.15236785 6.015625 0.31640625 C6.015625 3.28640625 6.015625 6.25640625 6.015625 9.31640625 C2.715625 9.31640625 -0.584375 9.31640625 -3.984375 9.31640625 C-4.984375 5.31640625 -4.984375 5.31640625 -4.046875 2.56640625 C-1.984375 0.31640625 -1.984375 0.31640625 0 0 Z " fill="#EEEEEE" transform="translate(129.984375,193.68359375)"/>
<path d="M0 0 C1.670625 0.061875 1.670625 0.061875 3.375 0.125 C3.375 3.425 3.375 6.725 3.375 10.125 C0.405 10.125 -2.565 10.125 -5.625 10.125 C-5.8203125 4.0703125 -5.8203125 4.0703125 -5.625 2.125 C-3.625 0.125 -3.625 0.125 0 0 Z " fill="#EEEEEE" transform="translate(44.625,28.875)"/>
<path d="M0 0 C2.9375 0.1875 2.9375 0.1875 3.9375 1.1875 C4.07943337 4.19081018 3.97986378 7.17967134 3.9375 10.1875 C0.9675 10.1875 -2.0025 10.1875 -5.0625 10.1875 C-5.2578125 4.1328125 -5.2578125 4.1328125 -5.0625 2.1875 C-3.0625 0.1875 -3.0625 0.1875 0 0 Z " fill="#FDFDFD" transform="translate(15.0625,125.8125)"/>
<path d="M0 0 C3.125 0.25 3.125 0.25 5 1.375 C6.5932099 4.03034983 6.32714032 6.21789518 6.125 9.25 C3.05177456 10.16058531 0.32402639 10.33886184 -2.875 10.25 C-3.94693479 7.03419562 -4.02136054 4.61629251 -3.875 1.25 C-2.875 0.25 -2.875 0.25 0 0 Z " fill="#EEEEEE" transform="translate(119.875,28.75)"/>
<path d="M0 0 C2.97 0 5.94 0 9 0 C9 2.97 9 5.94 9 9 C6.23735711 9.59732819 3.83967231 10 1 10 C-0.60725635 6.78548731 -0.05748185 3.56387464 0 0 Z " fill="#EEEEEE" transform="translate(97,184)"/>
<path d="M0 0 C2.97 0 5.94 0 9 0 C9.87890625 6.15234375 9.87890625 6.15234375 10 8 C9 9 9 9 6.93359375 9.09765625 C3.46679688 9.04882812 3.46679688 9.04882812 0 9 C0 6.03 0 3.06 0 0 Z " fill="#EEEEEE" transform="translate(184,20)"/>
<path d="M0 0 C2.97 0 5.94 0 9 0 C9.1953125 6.0546875 9.1953125 6.0546875 9 8 C8.34 8.66 7.68 9.32 7 10 C1.43181818 9.43181818 1.43181818 9.43181818 0 8 C-0.14115161 5.32941149 -0.04247107 2.67567762 0 0 Z " fill="#EDEDED" transform="translate(10,136)"/>
<path d="M0 0 C1 1 1 1 1.09765625 2.84765625 C1.04882812 5.92382812 1.04882812 5.92382812 1 9 C-1.97 9 -4.94 9 -8 9 C-8 6.03 -8 3.06 -8 0 C-5.11795733 -1.44102133 -3.08226581 -0.65580124 0 0 Z " fill="#EEEEEE" transform="translate(222,127)"/>
<path d="M0 0 C2.97 0 5.94 0 9 0 C9.1953125 6.0546875 9.1953125 6.0546875 9 8 C8.34 8.66 7.68 9.32 7 10 C1.43181818 9.43181818 1.43181818 9.43181818 0 8 C-0.14115161 5.32941149 -0.04247107 2.67567762 0 0 Z " fill="#EDEDED" transform="translate(10,0)"/>
<path d="M0 0 C3.6875 1.375 3.6875 1.375 7 3 C7 5.31 7 7.62 7 10 C3.7 10 0.4 10 -3 10 C-3.29296875 3.9453125 -3.29296875 3.9453125 -3 2 C-2.01 1.34 -1.02 0.68 0 0 Z " fill="#EDEDED" transform="translate(51,174)"/>
<path d="M0 0 C3.46679688 0.04882812 3.46679688 0.04882812 6.93359375 0.09765625 C6.60359375 3.06765625 6.27359375 6.03765625 5.93359375 9.09765625 C2.96359375 9.09765625 -0.00640625 9.09765625 -3.06640625 9.09765625 C-3.1640625 2.9453125 -3.1640625 2.9453125 -3.06640625 1.09765625 C-2.06640625 0.09765625 -2.06640625 0.09765625 0 0 Z " fill="#FEFEFE" transform="translate(42.06640625,174.90234375)"/>
<path d="M0 0 C0 2.64 0 5.28 0 8 C-2.73247348 9.36623674 -4.98198902 9.128426 -8 9 C-9 8 -9 8 -9.09765625 6.15234375 C-9.06510417 4.1015625 -9.03255208 2.05078125 -9 0 C-5.93109813 -1.53445094 -3.29905734 -0.54984289 0 0 Z " fill="#EDEDED" transform="translate(29,88)"/>
<path d="M0 0 C2.01822917 0.06510417 4.03645833 0.13020833 6.0546875 0.1953125 C6.0546875 3.1653125 6.0546875 6.1353125 6.0546875 9.1953125 C3.4146875 9.1953125 0.7746875 9.1953125 -1.9453125 9.1953125 C-2.6053125 6.8853125 -3.2653125 4.5753125 -3.9453125 2.1953125 C-1.9453125 0.1953125 -1.9453125 0.1953125 0 0 Z " fill="#EDEDED" transform="translate(41.9453125,9.8046875)"/>
<path d="M0 0 C2.05078125 0.03255208 4.1015625 0.06510417 6.15234375 0.09765625 C6.15234375 3.06765625 6.15234375 6.03765625 6.15234375 9.09765625 C3.18234375 9.09765625 0.21234375 9.09765625 -2.84765625 9.09765625 C-2.9453125 2.9453125 -2.9453125 2.9453125 -2.84765625 1.09765625 C-1.84765625 0.09765625 -1.84765625 0.09765625 0 0 Z " fill="#FEFEFE" transform="translate(177.84765625,174.90234375)"/>
<path d="M0 0 C2.05078125 0.03255208 4.1015625 0.06510417 6.15234375 0.09765625 C6.15234375 3.06765625 6.15234375 6.03765625 6.15234375 9.09765625 C3.18234375 9.09765625 0.21234375 9.09765625 -2.84765625 9.09765625 C-2.9453125 2.9453125 -2.9453125 2.9453125 -2.84765625 1.09765625 C-1.84765625 0.09765625 -1.84765625 0.09765625 0 0 Z " fill="#FEFEFE" transform="translate(177.84765625,38.90234375)"/>
<path d="M0 0 C2.05078125 0.03255208 4.1015625 0.06510417 6.15234375 0.09765625 C6.15234375 3.06765625 6.15234375 6.03765625 6.15234375 9.09765625 C3.18234375 9.09765625 0.21234375 9.09765625 -2.84765625 9.09765625 C-2.9453125 2.9453125 -2.9453125 2.9453125 -2.84765625 1.09765625 C-1.84765625 0.09765625 -1.84765625 0.09765625 0 0 Z " fill="#FEFEFE" transform="translate(41.84765625,38.90234375)"/>
<path d="M0 0 C2.64 0 5.28 0 8 0 C9.4606285 2.64738916 10 3.89448334 10 7 C9.67 7.66 9.34 8.32 9 9 C6.03 9 3.06 9 0 9 C0 6.03 0 3.06 0 0 Z " fill="#EEEEEE" transform="translate(0,10)"/>
<path d="M0 0 C0 2.97 0 5.94 0 9 C-2.97 9 -5.94 9 -9 9 C-8.67 8.01 -8.34 7.02 -8 6 C-8.99 5.67 -9.98 5.34 -11 5 C-7.59811398 0.20643333 -5.85844197 -0.12735743 0 0 Z " fill="#ECE9ED" transform="translate(184,165)"/>
<path d="M0 0 C2.97 0 5.94 0 9 0 C9 2.66666667 9 5.33333333 9 8 C8 9 8 9 6.15234375 9.09765625 C4.1015625 9.06510417 2.05078125 9.03255208 0 9 C0 6.03 0 3.06 0 0 Z " fill="#EDEDED" transform="translate(0,165)"/>
<path d="M0 0 C2.64 0 5.28 0 8 0 C9.61949011 2.57213134 10.04408751 3.67669159 9.625 6.75 C9.41875 7.4925 9.2125 8.235 9 9 C6.03 9 3.06 9 0 9 C0 6.03 0 3.06 0 0 Z " fill="#EDEDED" transform="translate(0,146)"/>
<path d="M0 0 C4.40147657 0.50302589 6.75395419 2.02445801 10 5 C11.60646029 8.21292058 11.62441428 11.5258652 11 15 C8.5 18 8.5 18 6 20 C5.375 17.125 5.375 17.125 5 14 C5.66 13.34 6.32 12.68 7 12 C7.39764263 10.01178687 7.73775349 8.01055661 8 6 C6.35 6 4.7 6 3 6 C2.67 5.01 2.34 4.02 2 3 C1.34 2.67 0.68 2.34 0 2 C0 1.34 0 0.68 0 0 Z " fill="#7C23F3" transform="translate(118,116)"/>
<path d="M0 0 C1.32 0.33 2.64 0.66 4 1 C4.33 3.64 4.66 6.28 5 9 C5 7.68 5 6.36 5 5 C5 3.33333333 5 1.66666667 5 0 C5.66 0.33 6.32 0.66 7 1 C7.625 3.0625 7.625 3.0625 8 5 C8.66 4.01 9.32 3.02 10 2 C10 2.99 10 3.98 10 5 C10.66 5 11.32 5 12 5 C12 6.98 12 8.96 12 11 C10.68 10.34 9.36 9.68 8 9 C7.67 9.66 7.34 10.32 7 11 C5.67203709 11.35412344 4.33783393 11.68521554 3 12 C2.01 12.66 1.02 13.32 0 14 C0 9.38 0 4.76 0 0 Z " fill="#F8EEFB" transform="translate(128,119)"/>
<path d="M0 0 C2.97 0 5.94 0 9 0 C9.125 6.625 9.125 6.625 8 10 C6.68 10 5.36 10 4 10 C3.67 9.34 3.34 8.68 3 8 C2.01 8 1.02 8 0 8 C0 5.36 0 2.72 0 0 Z " fill="#FCFCFB" transform="translate(39,78)"/>
<path d="M0 0 C2 3 2 3 1.6875 5.625 C1 8 1 8 0 9 C-2.67058851 9.14115161 -5.32432238 9.04247107 -8 9 C-8 6.36 -8 3.72 -8 1 C-5.36 0.67 -2.72 0.34 0 0 Z " fill="#EDEDED" transform="translate(192,78)"/>
<path d="M0 0 C2.64 0 5.28 0 8 0 C8 3.3 8 6.6 8 10 C5.69 10 3.38 10 1 10 C0.67 6.7 0.34 3.4 0 0 Z " fill="#FCFCFB" transform="translate(176,58)"/>
<path d="M0 0 C2.01822917 0.06510417 4.03645833 0.13020833 6.0546875 0.1953125 C6.0546875 2.8353125 6.0546875 5.4753125 6.0546875 8.1953125 C1.5996875 8.6903125 1.5996875 8.6903125 -2.9453125 9.1953125 C-3.5703125 5.8203125 -3.5703125 5.8203125 -3.9453125 2.1953125 C-1.9453125 0.1953125 -1.9453125 0.1953125 0 0 Z " fill="#ECECEC" transform="translate(177.9453125,49.8046875)"/>
<path d="M0 0 C0 3.3 0 6.6 0 10 C-2.97 10 -5.94 10 -9 10 C-8.67 8.35 -8.34 6.7 -8 5 C-8.99 4.34 -9.98 3.68 -11 3 C-2.2 0 -2.2 0 0 0 Z " fill="#EBE9EE" transform="translate(174,174)"/>
<path d="M0 0 C1.37095624 3.69037278 0.60010967 5.70883835 -0.9375 9.25 C-1.31777344 10.14203125 -1.69804688 11.0340625 -2.08984375 11.953125 C-2.54037109 12.96632813 -2.54037109 12.96632813 -3 14 C-3.45375 13.505 -3.9075 13.01 -4.375 12.5 C-5.87635519 10.77390663 -5.87635519 10.77390663 -8 11 C-8 8.36 -8 5.72 -8 3 C-6.68 3 -5.36 3 -4 3 C-3.67 2.34 -3.34 1.68 -3 1 C-2.01 1.66 -1.02 2.32 0 3 C0 2.01 0 1.02 0 0 Z " fill="#E9E3EF" transform="translate(47,85)"/>
<path d="M0 0 C0.33 0 0.66 0 1 0 C1 7.26 1 14.52 1 22 C6.94 22 12.88 22 19 22 C19 22.33 19 22.66 19 23 C11.73633891 24.33979115 5.29654052 25.43069422 -2 24 C-2 23.01 -2 22.02 -2 21 C-1.34 21 -0.68 21 0 21 C0 14.07 0 7.14 0 0 Z " fill="#E9D5F9" transform="translate(98,116)"/>
<path d="M0 0 C2.01822917 0.06510417 4.03645833 0.13020833 6.0546875 0.1953125 C6.0546875 2.5053125 6.0546875 4.8153125 6.0546875 7.1953125 C3.0846875 7.1953125 0.1146875 7.1953125 -2.9453125 7.1953125 C-3.5703125 4.8203125 -3.5703125 4.8203125 -3.9453125 2.1953125 C-1.9453125 0.1953125 -1.9453125 0.1953125 0 0 Z " fill="#EEEEEF" transform="translate(129.9453125,38.8046875)"/>
<path d="M0 0 C1.2065625 0.0309375 1.2065625 0.0309375 2.4375 0.0625 C2.51846803 1.51992463 2.57667774 2.97862807 2.625 4.4375 C2.65980469 5.24960938 2.69460937 6.06171875 2.73046875 6.8984375 C2.63378906 7.61257812 2.53710938 8.32671875 2.4375 9.0625 C-2.1625 12.12916667 -2.1625 12.12916667 -5.1875 11.625 C-5.97125 11.439375 -6.755 11.25375 -7.5625 11.0625 C-6.2425 10.7325 -4.9225 10.4025 -3.5625 10.0625 C-3.57410156 9.42441406 -3.58570313 8.78632812 -3.59765625 8.12890625 C-3.61119141 6.88947266 -3.61119141 6.88947266 -3.625 5.625 C-3.63660156 4.80128906 -3.64820313 3.97757812 -3.66015625 3.12890625 C-3.51340586 0.02366796 -3.12550237 0.07623177 0 0 Z " fill="#EEEFE8" transform="translate(197.5625,106.9375)"/>
<path d="M0 0 C1.67542976 0.28604898 3.34385343 0.61781233 5 1 C5 3.97 5 6.94 5 10 C1 11 1 11 -1 10 C-1.02689216 8.52093108 -1.04634621 7.04172517 -1.0625 5.5625 C-1.07410156 4.73878906 -1.08570313 3.91507813 -1.09765625 3.06640625 C-1 1 -1 1 0 0 Z " fill="#EEEEEE" transform="translate(179,145)"/>
<path d="M0 0 C1 1 1 1 1.0625 3.5625 C1.041875 4.366875 1.02125 5.17125 1 6 C-1.97 6 -4.94 6 -8 6 C-8 4.02 -8 2.04 -8 0 C-4.69676014 -1.10107995 -3.29495231 -0.86709271 0 0 Z " fill="#EDEDEE" transform="translate(115,40)"/>
<path d="M0 0 C2.4375 1.3125 2.4375 1.3125 3.25 3.4375 C3.311875 4.05625 3.37375 4.675 3.4375 5.3125 C0.42718256 6.24673645 -0.42900268 6.35699911 -3.5625 5.3125 C-3.5625 5.9725 -3.5625 6.6325 -3.5625 7.3125 C-4.5525 7.3125 -5.5425 7.3125 -6.5625 7.3125 C-6.8925 6.6525 -7.2225 5.9925 -7.5625 5.3125 C-8.2225 4.9825 -8.8825 4.6525 -9.5625 4.3125 C-3.21791741 -0.86334369 -3.21791741 -0.86334369 0 0 Z " fill="#8C1DF4" transform="translate(61.5625,48.6875)"/>
<path d="M0 0 C0.33 0 0.66 0 1 0 C1 5.94 1 11.88 1 18 C0.67 18 0.34 18 0 18 C0 15.36 0 12.72 0 10 C-2.97 10 -5.94 10 -9 10 C-8.67 8.68 -8.34 7.36 -8 6 C-5.36 6 -2.72 6 0 6 C0 4.02 0 2.04 0 0 Z " fill="#E6DCF2" transform="translate(48,62)"/>
<path d="M0 0 C3.3 0.33 6.6 0.66 10 1 C10 2.65 10 4.3 10 6 C6.7 6 3.4 6 0 6 C0 4.02 0 2.04 0 0 Z " fill="#EDEEF0" transform="translate(126,178)"/>
<path d="M0 0 C0.33 0 0.66 0 1 0 C1 1.98 1 3.96 1 6 C1.66 6 2.32 6 3 6 C3.05397335 8.4377963 3.09365616 10.87439685 3.125 13.3125 C3.14175781 14.00279297 3.15851563 14.69308594 3.17578125 15.40429688 C3.21217794 19.17135396 3.14378864 20.78431704 1 24 C0.13036913 21.00293305 -0.11763099 18.35043474 -0.09765625 15.234375 C-0.09443359 14.34492187 -0.09121094 13.45546875 -0.08789062 12.5390625 C-0.07532227 11.15847656 -0.07532227 11.15847656 -0.0625 9.75 C-0.05798828 8.81414062 -0.05347656 7.87828125 -0.04882812 6.9140625 C-0.03706918 4.60930959 -0.02063426 2.30468773 0 0 Z " fill="#E4D4F5" transform="translate(176,62)"/>
<path d="M0 0 C1.65 0 3.3 0 5 0 C5 2.97 5 5.94 5 9 C3.68 9.33 2.36 9.66 1 10 C1 9.34 1 8.68 1 8 C0.34 8 -0.32 8 -1 8 C-0.67 5.36 -0.34 2.72 0 0 Z " fill="#EDEDED" transform="translate(179,68)"/>
<path d="M0 0 C2.97 0 5.94 0 9 0 C9.33 1.65 9.66 3.3 10 5 C6.7 5 3.4 5 0 5 C0 3.35 0 1.7 0 0 Z " fill="#FCFDFB" transform="translate(136,179)"/>
<path d="M0 0 C0.33 0.66 0.66 1.32 1 2 C1.66 2 2.32 2 3 2 C3.08096803 3.45742463 3.13917774 4.91612807 3.1875 6.375 C3.22230469 7.18710938 3.25710937 7.99921875 3.29296875 8.8359375 C3.19628906 9.55007812 3.09960938 10.26421875 3 11 C2.01 11.66 1.02 12.32 0 13 C-0.50615298 11.73160474 -1.00469099 10.46016898 -1.5 9.1875 C-1.7784375 8.47980469 -2.056875 7.77210937 -2.34375 7.04296875 C-3 5 -3 5 -3 2 C-2.34 2 -1.68 2 -1 2 C-0.67 1.34 -0.34 0.68 0 0 Z " fill="#EDEDEA" transform="translate(181,86)"/>
<path d="M0 0 C3.3 0 6.6 0 10 0 C10 1.65 10 3.3 10 5 C7.03 5 4.06 5 1 5 C0.67 3.35 0.34 1.7 0 0 Z " fill="#ECEEEF" transform="translate(145,179)"/>
<path d="M0 0 C0.33 0.99 0.66 1.98 1 3 C2.32 3 3.64 3 5 3 C5.33 2.01 5.66 1.02 6 0 C6.99 0.33 7.98 0.66 9 1 C9.33 2.98 9.66 4.96 10 7 C8.35 7.33 6.7 7.66 5 8 C5 7.34 5 6.68 5 6 C3.68 6.33 2.36 6.66 1 7 C0.67 4.69 0.34 2.38 0 0 Z " fill="#EEE2F4" transform="translate(130,127)"/>
<path d="M0 0 C2.97 0 5.94 0 9 0 C9.33 1.32 9.66 2.64 10 4 C9 5 9 5 6.93359375 5.09765625 C6.10988281 5.08605469 5.28617187 5.07445312 4.4375 5.0625 C3.61121094 5.05347656 2.78492187 5.04445312 1.93359375 5.03515625 C1.29550781 5.02355469 0.65742187 5.01195312 0 5 C0 3.35 0 1.7 0 0 Z " fill="#ECEEF0" transform="translate(107,179)"/>
<path d="M0 0 C1.98 0 3.96 0 6 0 C6.36923077 5.41538462 6.36923077 5.41538462 4.5 8.375 C4.005 8.91125 3.51 9.4475 3 10 C0.59185923 6.48812804 -0.36629408 4.27343092 0 0 Z " fill="#6D10EF" transform="translate(170,160)"/>
<path d="M0 0 C2.3125 0.125 2.3125 0.125 5 1 C6.8125 4.0625 6.8125 4.0625 8 7 C5.69 7.33 3.38 7.66 1 8 C0.40267181 5.23735711 0 2.83967231 0 0 Z " fill="#7618F5" transform="translate(176,96)"/>
<path d="M0 0 C0.66 0.33 1.32 0.66 2 1 C1.67 1.66 1.34 2.32 1 3 C2.65 3 4.3 3 6 3 C6.33 4.32 6.66 5.64 7 7 C4.03 7 1.06 7 -2 7 C-2.125 4.625 -2.125 4.625 -2 2 C-1.34 1.34 -0.68 0.68 0 0 Z " fill="#EBEDEF" transform="translate(70,39)"/>
<path d="M0 0 C1.65 0.33 3.3 0.66 5 1 C3.87548273 3.9719385 2.77706209 6.33440687 1 9 C0.34 9 -0.32 9 -1 9 C-2.25664978 6.09399739 -3 4.20395416 -3 1 C-2.34 1 -1.68 1 -1 1 C-1 1.66 -1 2.32 -1 3 C-0.34 3 0.32 3 1 3 C0.67 2.01 0.34 1.02 0 0 Z " fill="#6D0BEF" transform="translate(179,120)"/>
<path d="M0 0 C-1.32 0.33 -2.64 0.66 -4 1 C-4 1.66 -4 2.32 -4 3 C-3.01 3.33 -2.02 3.66 -1 4 C-3.76264289 4.59732819 -6.16032769 5 -9 5 C-9 4.34 -9 3.68 -9 3 C-12.3 3 -15.6 3 -19 3 C-19 2.67 -19 2.34 -19 2 C-16.95928485 1.66089006 -14.91737379 1.32897296 -12.875 1 C-11.73804687 0.814375 -10.60109375 0.62875 -9.4296875 0.4375 C-6.23862398 0.03043951 -3.21182209 -0.07809902 0 0 Z " fill="#F4EDF4" transform="translate(123,138)"/>
<path d="M0 0 C0.66 0 1.32 0 2 0 C3 1 3 1 4 4 C4.6599679 5.66933058 5.32558869 7.3364521 6 9 C2 9 2 9 -0.75 6.5 C-1.4925 5.675 -2.235 4.85 -3 4 C-1.625 2 -1.625 2 0 0 Z " fill="#E6E5E6" transform="translate(185,97)"/>
<path d="M0 0 C2.64 0 5.28 0 8 0 C8.33 1.32 8.66 2.64 9 4 C6.03 4 3.06 4 0 4 C0 2.68 0 1.36 0 0 Z " fill="#ECECEC" transform="translate(88,194)"/>
<path d="M0 0 C0.66 0.33 1.32 0.66 2 1 C2.0270043 2.45823212 2.04639787 3.91660675 2.0625 5.375 C2.07410156 6.18710938 2.08570312 6.99921875 2.09765625 7.8359375 C2 10 2 10 1 12 C0.01 11.67 -0.98 11.34 -2 11 C-1.835 10.05125 -1.67 9.1025 -1.5 8.125 C-0.8088796 4.39256302 -0.8088796 4.39256302 -2 1 C-1.34 0.67 -0.68 0.34 0 0 Z " fill="#7511EC" transform="translate(123,91)"/>
<path d="M0 0 C0 3 0 3 -1 5 C-0.34 5 0.32 5 1 5 C1 5.66 1 6.32 1 7 C-2.47325181 8.1577506 -5.36067448 8.06866652 -9 8 C-7.62100451 5.24200902 -5.62327638 4.56147404 -3 3 C-1.24850835 1.41754725 -1.24850835 1.41754725 0 0 Z " fill="#7013F1" transform="translate(135,103)"/>
<path d="M0 0 C2.97 0 5.94 0 9 0 C9 0.99 9 1.98 9 3 C5.7 3 2.4 3 -1 3 C-0.67 2.01 -0.34 1.02 0 0 Z " fill="#ECF0EF" transform="translate(88,43)"/>
<path d="M0 0 C0.33 0 0.66 0 1 0 C1 2.97 1 5.94 1 9 C2.3921875 9.1546875 2.3921875 9.1546875 3.8125 9.3125 C7.03254358 10.0070192 8.02579865 10.47740939 10 13 C8.02 13.99 8.02 13.99 6 15 C6 13.68 6 12.36 6 11 C5.195625 11.020625 4.39125 11.04125 3.5625 11.0625 C1 11 1 11 0 10 C-0.07205511 8.31391034 -0.08386068 6.62499341 -0.0625 4.9375 C-0.05347656 4.01839844 -0.04445313 3.09929687 -0.03515625 2.15234375 C-0.02355469 1.44207031 -0.01195313 0.73179688 0 0 Z " fill="#EBCFF6" transform="translate(30,108)"/>
<path d="M0 0 C2.64 0 5.28 0 8 0 C8.33 0.99 8.66 1.98 9 3 C6.03 3 3.06 3 0 3 C0 2.01 0 1.02 0 0 Z " fill="#EFEEEB" transform="translate(88,39)"/>
<path d="M0 0 C0.94875 0.350625 1.8975 0.70125 2.875 1.0625 C-1.875 5.0625 -1.875 5.0625 -4.125 5.0625 C-4.455 3.4125 -4.785 1.7625 -5.125 0.0625 C-3.125 -0.9375 -3.125 -0.9375 0 0 Z " fill="#6E13F1" transform="translate(189.125,114.9375)"/>
<path d="M0 0 C2.60334924 2.71182212 2.99456691 3.89133813 3.1875 7.75 C3.125625 8.8225 3.06375 9.895 3 11 C0.69 10.67 -1.62 10.34 -4 10 C-2.68 9.67 -1.36 9.34 0 9 C0 6.03 0 3.06 0 0 Z " fill="#E9D5FA" transform="translate(194,108)"/>
<path d="M0 0 C0 3.63 0 7.26 0 11 C-0.99 10.67 -1.98 10.34 -3 10 C-3 7.03 -3 4.06 -3 1 C-1 0 -1 0 0 0 Z " fill="#8C1AF9" transform="translate(48,93)"/>
<path d="M0 0 C2.31 0.33 4.62 0.66 7 1 C7 1.66 7 2.32 7 3 C4.03 3 1.06 3 -2 3 C-1.34 2.01 -0.68 1.02 0 0 Z " fill="#FCFCFC" transform="translate(12,222)"/>
<path d="M0 0 C0.66 0.99 1.32 1.98 2 3 C1.67 3.66 1.34 4.32 1 5 C-2.0625 5.625 -2.0625 5.625 -5 6 C-5 5.01 -5 4.02 -5 3 C-2.5 1.3125 -2.5 1.3125 0 0 Z " fill="#7518F5" transform="translate(133,142)"/>
<path d="M0 0 C2.475 0.495 2.475 0.495 5 1 C4 4 4 4 3 5 C2.67 5.99 2.34 6.98 2 8 C1.34 7.67 0.68 7.34 0 7 C0 4.69 0 2.38 0 0 Z " fill="#6A0CF1" transform="translate(176,96)"/>
<path d="M0 0 C1.32 0 2.64 0 4 0 C4.625 1.875 4.625 1.875 5 4 C4.34 4.66 3.68 5.32 3 6 C2.67 5.01 2.34 4.02 2 3 C1.01 3.33 0.02 3.66 -1 4 C-0.67 2.68 -0.34 1.36 0 0 Z " fill="#9021F6" transform="translate(50,56)"/>
<path d="M0 0 C2.4375 0.25 2.4375 0.25 5 1 C5.66 1.99 6.32 2.98 7 4 C5.25 4.75 5.25 4.75 3 5 C0.75 3.0625 0.75 3.0625 -1 1 C-0.67 0.67 -0.34 0.34 0 0 Z " fill="#8E12FA" transform="translate(58,50)"/>
<path d="M0 0 C0.33 0 0.66 0 1 0 C1.33 1.98 1.66 3.96 2 6 C0.35 6 -1.3 6 -3 6 C-3.33 5.01 -3.66 4.02 -4 3 C-2.68 2.67 -1.36 2.34 0 2 C0 1.34 0 0.68 0 0 Z " fill="#FBF2FC" transform="translate(128,99)"/>
<path d="M0 0 C0.66 0 1.32 0 2 0 C2 0.66 2 1.32 2 2 C2.66 2 3.32 2 4 2 C3.67 2.99 3.34 3.98 3 5 C3.27571139 7.00875442 3.60235737 9.01178687 4 11 C1.6870518 8.6870518 1.50419025 7.52095125 0.875 4.375 C0.70742187 3.55773437 0.53984375 2.74046875 0.3671875 1.8984375 C0.24601563 1.27195312 0.12484375 0.64546875 0 0 Z " fill="#EDE1F4" transform="translate(178,88)"/>
<path d="M0 0 C1.60080151 4.00200378 0.29279692 7.04556236 -1 11 C-2.24546405 8.50907189 -1.7767578 7.58919267 -1 5 C-1.66 4.67 -2.32 4.34 -3 4 C-2.01 2.68 -1.02 1.36 0 0 Z " fill="#8D17F7" transform="translate(47,120)"/>
<path d="M0 0 C1.65 0 3.3 0 5 0 C4.74438677 2.3431213 4.40729228 4.67843403 4 7 C3.01 7.495 3.01 7.495 2 8 C2.33 6.68 2.66 5.36 3 4 C2.34 4 1.68 4 1 4 C0.67 2.68 0.34 1.36 0 0 Z " fill="#F2F4EA" transform="translate(190,118)"/>
<path d="M0 0 C0.66 0.33 1.32 0.66 2 1 C1.67 2.32 1.34 3.64 1 5 C-0.32 5.33 -1.64 5.66 -3 6 C-3 4.68 -3 3.36 -3 2 C-2.01 1.34 -1.02 0.68 0 0 Z " fill="#8E1AF8" transform="translate(38,105)"/>
<path d="M0 0 C2.64 0 5.28 0 8 0 C8 0.66 8 1.32 8 2 C7.34 2 6.68 2 6 2 C5.67 2.66 5.34 3.32 5 4 C4.34 4 3.68 4 3 4 C3 3.01 3 2.02 3 1 C2.01 1.33 1.02 1.66 0 2 C0 1.34 0 0.68 0 0 Z " fill="#EDEDED" transform="translate(194,68)"/>
<path d="M0 0 C0.33 0 0.66 0 1 0 C1 1.65 1 3.3 1 5 C-0.65 5.66 -2.3 6.32 -4 7 C-2.92598892 4.08482708 -2.22189824 2.22189824 0 0 Z " fill="#EFEFEF" transform="translate(23,14)"/>
<path d="M0 0 C0.66 0 1.32 0 2 0 C1.125 4.75 1.125 4.75 0 7 C-0.99 6.67 -1.98 6.34 -3 6 C-2.01 4.02 -1.02 2.04 0 0 Z " fill="#8514F3" transform="translate(44,97)"/>
<path d="M0 0 C-0.33 0.99 -0.66 1.98 -1 3 C-2.98 3.33 -4.96 3.66 -7 4 C-6.6875 2.0625 -6.6875 2.0625 -6 0 C-3 -1 -3 -1 0 0 Z " fill="#EADCF6" transform="translate(126,137)"/>
<path d="M0 0 C2.475 0.495 2.475 0.495 5 1 C4.34 2.65 3.68 4.3 3 6 C2.34 5.67 1.68 5.34 1 5 C0.375 2.4375 0.375 2.4375 0 0 Z " fill="#731EF2" transform="translate(179,120)"/>
<path d="M0 0 C1.8125 0.1875 1.8125 0.1875 4 1 C5.75 3.5625 5.75 3.5625 7 6 C2.32307692 4.52307692 2.32307692 4.52307692 0.6875 1.875 C0.460625 1.25625 0.23375 0.6375 0 0 Z " fill="#E8DCF8" transform="translate(182,100)"/>
</svg>
