<?xml version="1.0" encoding="UTF-8"?>
<svg version="1.1" xmlns="http://www.w3.org/2000/svg" width="244" height="206">
<path d="M0 0 C80.52 0 161.04 0 244 0 C244 67.98 244 135.96 244 206 C163.48 206 82.96 206 0 206 C0 138.02 0 70.04 0 0 Z " fill="#FEFEFE" transform="translate(0,0)"/>
<path d="M0 0 C1.1443281 3.43298431 0.7253699 4.52789608 0 8 C-1.28046486 25.23139848 2.63147504 39.07867591 13.4765625 52.87890625 C24.52440822 65.08819216 40.75466846 72.67302985 57 74 C71.09877622 74.29646959 84.55106474 70.82596351 95 61 C95 66.58743212 90.07759183 70.78052385 86.3984375 74.7109375 C75.37389901 84.975163 60.89946619 88.75420474 46.24609375 88.27734375 C30.18544723 87.41046451 16.42752083 80.17793379 5 69 C-5.91502259 56.2564779 -11.76895723 41.96968403 -11.28125 25.0625 C-10.43258282 15.82145741 -6.63212154 6.63212154 0 0 Z " fill="#0B74B4" transform="translate(78,39)"/>
<path d="M0 0 C0.33 0 0.66 0 1 0 C1.01417969 1.23234375 1.02835938 2.4646875 1.04296875 3.734375 C1.34298088 16.40540012 2.66174887 27.56090792 11.8671875 37.125 C22.32912579 46.32230838 33.74137557 51.88785392 47.83203125 51.3828125 C56.76651958 50.30318259 63.86498184 46.28519864 71 41 C66.42215587 50.36005631 61.10424849 55.16256742 51.3984375 59.0390625 C39.60494383 62.76149266 27.20902494 62.26038003 16.22265625 56.55859375 C4.96269612 49.90147055 -2.67690895 40.57431301 -6.3125 27.9375 C-7.93690422 18.63409402 -7.31839346 9.87999038 -1.875 1.875 C-0.946875 0.946875 -0.946875 0.946875 0 0 Z " fill="#0D75B5" transform="translate(106,31)"/>
<path d="M0 0 C3.85544798 1.99657127 5.59805092 3.39707638 8 7 C8.99722805 14.05830244 7.36277596 20.38985296 5 27 C5.99 27.33 6.98 27.66 8 28 C7.67 29.65 7.34 31.3 7 33 C3.10441912 33.11643304 -0.79071258 33.18732909 -4.6875 33.25 C-5.79029297 33.28351563 -6.89308594 33.31703125 -8.02929688 33.3515625 C-16.20983836 33.45042101 -16.20983836 33.45042101 -20.20703125 31.171875 C-23.56977965 27.09848042 -23.34023476 22.91479498 -23.2734375 17.8515625 C-22.67832995 11.64544092 -19.9849353 7.62386263 -15.375 3.5625 C-10.42992269 -0.40004011 -6.26431923 -0.71098102 0 0 Z " fill="#172030" transform="translate(89,140)"/>
<path d="M0 0 C2.34765625 1.81640625 2.34765625 1.81640625 4 4 C4.36350358 8.0712401 3.99413172 11.02347311 3 15 C-2.61 15 -8.22 15 -14 15 C-13.67 16.32 -13.34 17.64 -13 19 C-6.07 19.495 -6.07 19.495 1 20 C1 21.65 1 23.3 1 25 C-1.15904819 27.15904819 -5.88884545 26.23159535 -8.875 26.25 C-10.11830078 26.2809375 -10.11830078 26.2809375 -11.38671875 26.3125 C-12.18464844 26.31765625 -12.98257813 26.3228125 -13.8046875 26.328125 C-14.53671387 26.3374707 -15.26874023 26.34681641 -16.02294922 26.35644531 C-18.5643651 25.89824981 -19.43789315 25.01998659 -21 23 C-22.04959727 16.53777368 -21.35749918 10.59583197 -18 5 C-13.1629495 -0.82926599 -7.35107764 -1.48454911 0 0 Z " fill="#141D2D" transform="translate(147,147)"/>
<path d="M0 0 C2.31 0 4.62 0 7 0 C6.855625 0.70125 6.71125 1.4025 6.5625 2.125 C5.43902645 7.86719815 4.7793285 13.15220515 5 19 C7.31 19.33 9.62 19.66 12 20 C12.18175781 18.71416016 12.18175781 18.71416016 12.3671875 17.40234375 C13.23855224 11.45695509 14.13815819 5.71851412 16 0 C18.31 0 20.62 0 23 0 C22.83564453 0.804375 22.83564453 0.804375 22.66796875 1.625 C21.02745157 9.73422314 19.51370171 17.86637615 18 26 C15.24894578 26.10812003 12.50214913 26.18734945 9.75 26.25 C8.58404297 26.30027344 8.58404297 26.30027344 7.39453125 26.3515625 C3.64167432 26.4157139 1.63731265 26.43870824 -1.51953125 24.265625 C-4.63762565 19.49387104 -3.41780272 14.02932748 -2.31640625 8.6796875 C-1.59718684 5.76839744 -0.83162578 2.8809893 0 0 Z " fill="#192231" transform="translate(103,147)"/>
<path d="M0 0 C0.33 0 0.66 0 1 0 C1.09796875 0.85722656 1.1959375 1.71445312 1.296875 2.59765625 C2.63058747 12.79595765 4.69477525 18.77833065 12.8046875 25.421875 C21.12788063 31.40509568 28.71996082 31.85153074 38.6875 30.5 C39.450625 30.335 40.21375 30.17 41 30 C37.803698 34.92763224 34.58275881 36.7508457 29 38 C20.78960618 39.08414218 14.48613979 37.2191838 7.80078125 32.421875 C2.32748293 27.92992592 -1.58533497 23.09976747 -3 16 C-3.52236348 9.91245636 -3.35532324 5.31259514 0 0 Z " fill="#0F76B6" transform="translate(130,24)"/>
<path d="M0 0 C2.2109375 0.01953125 2.2109375 0.01953125 5.7734375 0.64453125 C4.28214821 5.27446427 1.58396942 8.58669967 -1.4765625 12.26953125 C-6.16500349 18.04853937 -9.97564048 23.92321569 -13.2265625 30.64453125 C-15.5365625 30.64453125 -17.8465625 30.64453125 -20.2265625 30.64453125 C-20.20335937 30.01546875 -20.18015625 29.38640625 -20.15625 28.73828125 C-20.03472169 22.97436727 -20.58882544 18.17189383 -22.2265625 12.64453125 C-19.5865625 12.64453125 -16.9465625 12.64453125 -14.2265625 12.64453125 C-14.2265625 13.63453125 -14.2265625 14.62453125 -14.2265625 15.64453125 C-10.74049679 12.4753806 -8.39922149 9.35046494 -5.9140625 5.33203125 C-2.89056448 0.83674235 -2.89056448 0.83674235 0 0 Z " fill="#182131" transform="translate(193.2265625,142.35546875)"/>
<path d="M0 0 C0.82886719 -0.020625 1.65773437 -0.04125 2.51171875 -0.0625 C3.70861328 -0.07023438 3.70861328 -0.07023438 4.9296875 -0.078125 C6.02772705 -0.09214355 6.02772705 -0.09214355 7.14794922 -0.10644531 C9.70216057 0.3540571 10.59153178 1.18480848 12.125 3.25 C12.125 4.24 12.125 5.23 12.125 6.25 C7.175 6.58 2.225 6.91 -2.875 7.25 C-3.15214844 8.53777344 -3.42929688 9.82554687 -3.71484375 11.15234375 C-4.08053472 12.83077154 -4.44643072 14.50915468 -4.8125 16.1875 C-4.99490234 17.03763672 -5.17730469 17.88777344 -5.36523438 18.76367188 C-5.63110352 19.97700195 -5.63110352 19.97700195 -5.90234375 21.21484375 C-6.06468506 21.9637085 -6.22702637 22.71257324 -6.39428711 23.48413086 C-6.875 25.25 -6.875 25.25 -7.875 26.25 C-9.87458364 26.29080783 -11.87545254 26.29254356 -13.875 26.25 C-12.0889076 0.07450791 -12.0889076 0.07450791 0 0 Z " fill="#192131" transform="translate(165.875,146.75)"/>
<path d="M0 0 C1.734375 1.25 1.734375 1.25 3 3 C3.14453125 5.015625 3.14453125 5.015625 2.8125 7.25 C2.69648437 8.03761719 2.58046875 8.82523438 2.4609375 9.63671875 C1.83610613 12.84030332 0.99231418 15.89074889 0 19 C-1.79133978 19.05391993 -3.58313899 19.09275571 -5.375 19.125 C-6.37273437 19.14820313 -7.37046875 19.17140625 -8.3984375 19.1953125 C-11 19 -11 19 -13 17 C-13.64785186 10.73743198 -12.57711322 6.23511826 -9 1 C-5.95016004 -0.52491998 -3.3576631 -0.23562548 0 0 Z " fill="#F9F9F9" transform="translate(87,147)"/>
<path d="M0 0 C2.31 0 4.62 0 7 0 C4.2681359 23.49403122 4.2681359 23.49403122 -1.75 28.4375 C-4.86623819 29.21655955 -7.80444672 29.1229059 -11 29 C-10.67 26.69 -10.34 24.38 -10 22 C-9.06027344 21.87431641 -9.06027344 21.87431641 -8.1015625 21.74609375 C-5.87397954 21.21294104 -5.87397954 21.21294104 -5.0234375 19.28515625 C-4.80945312 18.55167969 -4.59546875 17.81820312 -4.375 17.0625 C-4.01921875 15.8559375 -4.01921875 15.8559375 -3.65625 14.625 C-2.78181917 11.12727667 -2.06283317 7.61535434 -1.4296875 4.06640625 C-1 2 -1 2 0 0 Z " fill="#1A2333" transform="translate(56,155)"/>
<path d="M0 0 C1.134375 0.020625 2.26875 0.04125 3.4375 0.0625 C3.1075 2.0425 2.7775 4.0225 2.4375 6.0625 C0.1275 6.0625 -2.1825 6.0625 -4.5625 6.0625 C-4.605221 4.39638095 -4.60313832 2.72867115 -4.5625 1.0625 C-3.5625 0.0625 -3.5625 0.0625 0 0 Z " fill="#1A2333" transform="translate(61.5625,146.9375)"/>
<path d="M0 0 C3.1875 -0.25 3.1875 -0.25 6 0 C6.33 1.32 6.66 2.64 7 4 C3.7 4 0.4 4 -3 4 C-2.01 2.68 -1.02 1.36 0 0 Z " fill="#E9EAEB" transform="translate(137,153)"/>
<path d="M0 0 C2.31 0 4.62 0 7 0 C6.67 1.98 6.34 3.96 6 6 C5.67 4.68 5.34 3.36 5 2 C3.68 2 2.36 2 1 2 C0.67 2.99 0.34 3.98 0 5 C0 3.35 0 1.7 0 0 Z " fill="#293040" transform="translate(103,147)"/>
<path d="M0 0 C2.64 0 5.28 0 8 0 C7.67 1.32 7.34 2.64 7 4 C7 3.34 7 2.68 7 2 C5.35 2 3.7 2 2 2 C1.67 2.66 1.34 3.32 1 4 C0.67 2.68 0.34 1.36 0 0 Z " fill="#252D3D" transform="translate(171,155)"/>
</svg>
