<svg id="svg" version="1.1" xmlns="http://www.w3.org/2000/svg" xmlns:xlink="http://www.w3.org/1999/xlink" width="400" height="400" viewBox="0, 0, 400,400"><g id="svgg"><path id="path0" d="M191.200 220.739 C 190.210 220.899,188.950 221.319,188.400 221.673 C 187.850 222.027,186.977 222.443,186.461 222.598 C 185.438 222.904,184.941 223.290,182.082 226.000 C 175.165 232.557,176.564 245.922,184.657 250.595 C 185.286 250.958,186.520 251.691,187.400 252.225 C 188.280 252.758,189.630 253.485,190.400 253.840 C 191.170 254.195,191.936 254.723,192.102 255.012 C 192.269 255.301,192.925 255.652,193.561 255.791 C 194.197 255.931,195.034 256.395,195.421 256.823 C 195.807 257.250,196.411 257.603,196.762 257.607 C 201.504 257.661,208.310 268.716,205.541 271.865 C 205.185 272.269,204.769 273.012,204.615 273.516 C 204.215 274.829,200.722 277.451,198.927 277.786 C 198.087 277.943,197.147 278.280,196.839 278.536 C 195.953 279.268,190.096 279.105,188.092 278.292 C 187.152 277.912,185.954 277.600,185.429 277.600 C 184.904 277.600,183.602 277.158,182.537 276.618 C 179.758 275.209,178.585 275.542,177.865 277.945 C 177.339 279.700,177.355 279.838,178.155 280.500 C 178.620 280.885,179.236 281.397,179.525 281.639 C 179.814 281.881,180.714 282.259,181.525 282.479 C 182.336 282.699,183.270 283.111,183.600 283.395 C 185.487 285.014,197.366 286.177,200.520 285.051 C 201.444 284.721,202.910 284.335,203.779 284.193 C 204.647 284.051,205.796 283.589,206.333 283.167 C 206.869 282.745,207.527 282.400,207.796 282.400 C 208.241 282.400,209.415 281.502,211.335 279.692 C 215.728 275.551,217.404 267.833,215.232 261.741 C 214.030 258.367,209.066 253.284,206.295 252.588 C 205.725 252.445,204.948 251.984,204.567 251.564 C 204.187 251.144,203.627 250.800,203.322 250.800 C 203.017 250.800,202.235 250.440,201.584 250.000 C 200.933 249.560,199.878 248.848,199.240 248.418 C 198.602 247.987,197.620 247.520,197.057 247.378 C 196.493 247.237,195.815 246.859,195.548 246.538 C 195.282 246.217,194.505 245.720,193.821 245.435 C 191.004 244.257,186.800 238.632,186.800 236.039 C 186.800 233.848,189.065 230.184,191.473 228.481 C 193.727 226.886,204.500 226.815,207.358 228.377 C 209.338 229.459,211.198 229.135,211.202 227.709 C 211.204 227.319,211.453 226.524,211.757 225.941 C 212.404 224.702,210.637 223.218,207.515 222.377 C 206.612 222.134,205.469 221.670,204.975 221.347 C 203.949 220.675,194.256 220.247,191.200 220.739 M241.545 220.740 C 240.525 220.898,239.445 221.222,239.145 221.461 C 238.845 221.700,237.880 222.125,237.000 222.404 C 234.208 223.292,228.365 228.507,227.483 230.900 C 227.341 231.285,227.054 231.600,226.844 231.600 C 226.635 231.600,226.347 232.132,226.204 232.781 C 226.061 233.431,225.620 234.376,225.223 234.881 C 224.827 235.387,224.368 236.610,224.204 237.600 C 224.040 238.590,223.637 239.924,223.310 240.563 C 221.837 243.438,221.772 262.783,223.220 267.200 C 223.617 268.410,224.060 269.990,224.205 270.712 C 224.821 273.773,229.325 280.800,230.672 280.800 C 230.864 280.800,231.330 281.160,231.707 281.600 C 232.084 282.040,232.640 282.400,232.942 282.400 C 233.245 282.400,233.930 282.744,234.464 283.165 C 234.999 283.585,236.464 284.119,237.719 284.351 C 238.975 284.583,240.407 284.998,240.901 285.272 C 242.271 286.031,250.528 285.895,252.889 285.074 C 254.660 284.458,256.000 284.505,256.000 285.182 C 256.000 285.345,256.675 285.780,257.500 286.148 C 258.325 286.516,259.720 287.262,260.600 287.806 C 261.480 288.349,262.754 289.055,263.432 289.374 C 264.109 289.693,264.882 290.217,265.148 290.538 C 265.415 290.859,266.120 291.244,266.716 291.393 C 267.312 291.543,268.116 292.004,268.503 292.419 C 269.326 293.302,270.718 292.982,271.365 291.761 C 271.587 291.343,272.082 290.523,272.466 289.940 C 274.088 287.480,273.924 287.019,270.931 285.621 C 269.429 284.920,267.930 284.177,267.600 283.970 C 266.954 283.565,265.544 282.918,264.100 282.363 C 262.979 281.932,262.856 279.901,263.903 279.123 C 265.092 278.239,267.875 274.657,268.193 273.600 C 268.359 273.050,268.730 272.330,269.017 272.000 C 269.305 271.670,269.763 270.500,270.036 269.400 C 270.308 268.300,270.763 267.040,271.045 266.600 C 273.127 263.359,272.938 240.493,270.796 236.498 C 270.358 235.681,270.000 234.704,270.000 234.327 C 270.000 231.295,262.970 223.334,259.436 222.364 C 258.576 222.128,257.446 221.656,256.926 221.315 C 255.865 220.619,244.960 220.212,241.545 220.740 M283.389 221.287 C 283.281 221.569,283.240 235.840,283.297 253.000 L 283.400 284.200 298.000 284.200 L 312.600 284.200 312.600 281.000 L 312.600 277.800 303.143 277.693 C 295.879 277.611,293.584 277.463,293.246 277.055 C 292.937 276.683,292.775 268.236,292.703 248.762 L 292.600 221.000 288.093 220.887 C 284.709 220.802,283.536 220.902,283.389 221.287 M253.726 228.527 C 255.644 229.560,259.600 233.381,259.600 234.200 C 259.600 234.437,259.973 235.344,260.428 236.215 C 260.883 237.087,261.425 238.970,261.631 240.400 C 261.838 241.830,262.230 243.540,262.503 244.200 C 263.187 245.852,263.203 261.633,262.521 262.454 C 262.258 262.771,261.854 264.194,261.624 265.615 C 260.740 271.078,256.966 276.316,253.000 277.585 C 252.120 277.866,251.229 278.255,251.020 278.448 C 250.525 278.906,244.113 278.907,243.830 278.449 C 243.711 278.256,242.846 277.904,241.907 277.667 C 240.310 277.263,236.400 274.272,236.400 273.453 C 236.400 273.267,235.950 272.581,235.400 271.927 C 234.850 271.273,234.400 270.392,234.400 269.968 C 234.400 269.544,234.040 268.525,233.600 267.704 C 233.149 266.864,232.794 265.423,232.786 264.406 C 232.778 263.413,232.512 261.160,232.194 259.400 C 231.444 255.252,231.447 249.476,232.200 245.200 C 232.529 243.330,232.799 241.221,232.799 240.512 C 232.800 238.496,235.904 232.358,237.764 230.694 C 241.859 227.031,249.119 226.045,253.726 228.527 M327.371 278.131 C 327.066 278.926,327.931 280.890,328.502 280.698 C 328.962 280.543,328.985 278.634,328.536 277.900 C 328.244 277.423,327.593 277.552,327.371 278.131 M320.000 278.400 C 320.788 278.910,323.085 278.910,323.400 278.400 C 323.553 278.152,322.839 278.002,321.524 278.006 C 320.005 278.011,319.571 278.123,320.000 278.400 M333.200 279.104 C 333.200 279.774,333.514 280.404,334.000 280.707 C 334.556 281.054,334.800 281.640,334.800 282.627 C 334.800 283.408,334.935 283.964,335.100 283.863 C 335.987 283.318,335.140 278.000,334.167 278.000 C 333.378 278.000,333.200 278.203,333.200 279.104 M330.952 282.981 C 330.676 283.699,331.123 284.495,331.628 284.183 C 332.135 283.870,332.101 282.400,331.587 282.400 C 331.361 282.400,331.075 282.661,330.952 282.981 " stroke="none" fill="#fc991c" fill-rule="evenodd"></path><path id="path1" d="M0.000 200.000 L 0.000 400.000 200.000 400.000 L 400.000 400.000 400.000 200.000 L 400.000 0.000 200.000 0.000 L 0.000 0.000 0.000 200.000 M233.600 112.485 C 237.588 114.257,240.506 115.827,240.691 116.300 C 240.798 116.575,241.065 116.800,241.285 116.800 C 241.505 116.800,242.219 117.250,242.873 117.800 C 243.908 118.671,244.446 118.800,247.044 118.800 C 248.861 118.800,250.607 119.046,251.513 119.430 C 252.331 119.776,253.970 120.221,255.155 120.418 C 256.341 120.615,257.601 121.037,257.955 121.357 C 258.310 121.676,259.082 122.058,259.671 122.205 C 260.259 122.352,261.052 122.816,261.433 123.236 C 261.813 123.656,262.302 124.000,262.521 124.000 C 262.739 124.000,263.903 124.675,265.108 125.500 C 268.757 127.999,269.010 128.171,270.241 129.000 C 272.211 130.326,281.748 139.565,284.118 142.443 C 285.799 144.484,285.864 144.577,286.568 145.938 C 286.927 146.632,287.374 147.200,287.562 147.200 C 287.749 147.200,288.127 147.740,288.400 148.400 C 288.673 149.060,289.036 149.600,289.205 149.600 C 289.375 149.600,289.810 150.275,290.173 151.100 C 290.536 151.925,291.120 153.140,291.471 153.800 C 292.859 156.414,293.496 157.852,293.773 159.000 C 293.932 159.660,294.302 160.470,294.594 160.800 C 294.886 161.130,295.324 162.144,295.566 163.053 C 295.808 163.963,296.256 164.914,296.561 165.168 C 296.866 165.421,297.230 166.234,297.369 166.974 C 297.508 167.714,297.869 168.525,298.171 168.776 C 298.474 169.027,298.840 169.706,298.986 170.285 C 299.131 170.863,299.598 171.780,300.025 172.322 C 300.451 172.864,300.800 173.619,300.800 174.000 C 300.800 174.381,301.149 175.136,301.575 175.678 C 302.002 176.220,302.463 177.099,302.600 177.632 C 302.965 179.052,304.569 180.728,305.867 181.045 C 306.490 181.197,307.429 181.655,307.954 182.061 C 308.479 182.467,309.137 182.800,309.417 182.800 C 310.783 182.800,319.141 187.899,322.004 190.479 C 322.418 190.852,323.262 191.419,323.879 191.738 C 325.247 192.447,330.362 197.374,331.342 198.927 C 332.626 200.960,329.866 202.601,324.200 203.174 C 322.220 203.374,319.500 203.929,318.156 204.407 L 315.712 205.275 316.672 206.236 C 317.201 206.764,318.133 207.455,318.746 207.772 C 319.358 208.088,320.092 208.629,320.378 208.974 C 320.664 209.318,321.165 209.600,321.491 209.600 C 321.818 209.600,322.650 210.048,323.342 210.596 C 324.034 211.145,325.019 211.910,325.530 212.296 C 327.042 213.440,333.083 219.657,335.135 222.183 C 336.616 224.006,334.952 224.219,332.400 222.533 C 329.746 220.780,328.999 220.212,328.680 219.707 C 328.504 219.428,328.134 219.200,327.858 219.200 C 327.582 219.200,326.745 218.750,326.000 218.200 C 325.255 217.650,324.342 217.200,323.971 217.200 C 323.601 217.200,323.082 216.939,322.817 216.620 C 322.552 216.302,321.696 215.830,320.914 215.571 C 319.433 215.083,317.059 213.662,315.966 212.610 C 315.618 212.274,315.203 212.000,315.045 212.000 C 313.839 212.000,310.029 207.668,308.616 204.690 C 307.695 202.749,308.777 200.972,311.117 200.584 C 311.932 200.449,313.443 199.992,314.474 199.569 C 315.915 198.978,317.321 198.800,320.551 198.800 C 325.196 198.800,325.685 198.573,324.086 197.160 C 322.955 196.160,322.620 195.925,320.451 194.600 C 319.730 194.160,318.799 193.530,318.381 193.200 C 317.434 192.453,315.447 191.068,313.566 189.846 C 312.777 189.333,311.491 188.793,310.706 188.646 C 309.922 188.499,309.076 188.133,308.827 187.833 C 308.578 187.533,307.541 187.162,306.522 187.009 C 305.503 186.856,304.026 186.387,303.240 185.966 C 302.455 185.545,301.622 185.200,301.389 185.200 C 300.775 185.200,298.000 182.077,298.000 181.386 C 298.000 181.064,297.865 180.800,297.700 180.800 C 297.333 180.800,294.939 175.820,294.576 174.300 C 294.432 173.695,294.160 173.200,293.973 173.200 C 293.785 173.200,293.411 172.435,293.140 171.500 C 292.870 170.565,292.323 169.371,291.924 168.846 C 291.526 168.321,291.200 167.581,291.200 167.200 C 291.200 166.819,290.867 166.079,290.461 165.554 C 290.055 165.029,289.597 164.087,289.443 163.460 C 289.290 162.833,288.829 161.843,288.420 161.260 C 288.010 160.677,287.560 159.525,287.419 158.700 C 287.279 157.875,287.019 157.200,286.843 157.200 C 286.666 157.200,286.217 156.525,285.845 155.700 C 284.910 153.628,283.933 151.949,282.887 150.619 C 282.399 149.999,282.000 149.246,282.000 148.946 C 282.000 148.646,281.826 148.400,281.613 148.400 C 281.400 148.400,280.995 147.960,280.713 147.421 C 279.598 145.293,273.249 138.522,269.443 135.400 C 268.370 134.520,267.091 133.395,266.600 132.900 C 266.110 132.405,265.568 132.000,265.396 132.000 C 264.969 132.000,260.894 129.276,260.594 128.790 C 260.461 128.576,260.028 128.400,259.630 128.400 C 259.233 128.400,258.479 128.066,257.954 127.658 C 257.429 127.250,256.337 126.700,255.526 126.436 C 254.715 126.171,253.989 125.766,253.912 125.535 C 253.835 125.304,251.258 124.854,248.186 124.535 C 245.114 124.217,242.429 123.786,242.220 123.578 C 242.011 123.370,241.542 123.200,241.178 123.200 C 240.815 123.200,240.045 122.795,239.469 122.300 C 237.435 120.553,236.189 119.709,235.200 119.409 C 234.650 119.242,233.930 118.871,233.600 118.584 C 233.270 118.297,232.460 117.933,231.800 117.774 C 231.140 117.616,229.904 117.138,229.054 116.711 C 224.100 114.229,223.420 118.436,227.890 123.918 C 228.734 124.953,229.950 126.610,230.592 127.600 C 231.234 128.590,232.060 129.760,232.427 130.200 C 232.795 130.640,233.218 131.517,233.367 132.148 C 233.517 132.780,233.884 133.541,234.183 133.840 C 234.482 134.139,234.857 135.152,235.015 136.090 C 235.174 137.028,235.640 138.424,236.052 139.192 C 236.463 139.960,236.800 141.051,236.800 141.618 C 236.800 142.184,237.067 142.996,237.394 143.424 C 237.720 143.851,238.187 144.914,238.432 145.786 C 238.677 146.658,239.220 147.807,239.639 148.340 C 240.057 148.872,240.400 149.470,240.400 149.668 C 240.400 149.867,241.210 150.874,242.200 151.908 C 244.356 154.157,244.720 157.225,243.188 160.215 C 241.173 164.148,240.180 173.618,241.365 177.608 C 241.714 178.784,242.003 180.298,242.006 180.973 C 242.009 181.648,242.266 182.650,242.576 183.200 C 242.886 183.750,243.496 184.950,243.932 185.866 C 245.574 189.317,246.786 188.897,246.818 184.867 C 246.827 183.620,247.110 181.880,247.445 181.000 C 247.780 180.120,248.230 178.680,248.443 177.800 C 248.657 176.920,249.052 176.020,249.321 175.800 C 249.591 175.580,250.126 174.908,250.511 174.306 C 252.290 171.525,254.132 171.540,254.647 174.340 C 254.795 175.143,255.250 176.229,255.658 176.754 C 256.066 177.279,256.400 177.944,256.400 178.233 C 256.400 178.521,256.822 179.552,257.339 180.523 C 257.855 181.495,258.400 182.629,258.548 183.045 C 258.697 183.460,259.264 184.520,259.807 185.400 C 260.350 186.280,261.070 187.589,261.406 188.309 C 261.743 189.029,262.329 189.954,262.709 190.363 C 263.089 190.773,263.850 191.874,264.400 192.811 C 264.950 193.747,265.651 194.771,265.958 195.086 C 267.277 196.440,268.435 198.525,268.070 198.890 C 266.938 200.022,255.600 189.289,255.600 187.085 C 255.600 186.768,255.265 186.079,254.855 185.554 C 254.445 185.029,253.979 184.181,253.819 183.670 C 253.370 182.238,253.061 182.958,252.757 186.144 C 252.190 192.079,248.241 195.645,244.789 193.340 C 243.205 192.282,241.200 190.285,241.200 189.764 C 241.200 189.501,240.948 189.189,240.640 189.071 C 240.332 188.953,239.860 188.168,239.590 187.328 C 239.320 186.488,238.868 185.530,238.585 185.200 C 238.302 184.870,237.942 183.700,237.784 182.600 C 237.625 181.500,237.249 180.114,236.948 179.520 C 236.173 177.993,236.188 168.082,236.968 166.216 C 237.280 165.469,237.665 163.817,237.824 162.546 C 237.983 161.275,238.443 159.508,238.848 158.618 C 239.815 156.488,239.785 155.676,238.700 154.598 C 237.160 153.069,236.011 151.428,236.005 150.749 C 236.002 150.391,235.739 149.882,235.420 149.617 C 235.102 149.352,234.648 148.551,234.412 147.835 C 234.176 147.120,233.626 145.836,233.191 144.983 C 232.756 144.129,232.400 143.085,232.400 142.663 C 232.400 142.240,232.063 141.333,231.651 140.647 C 231.239 139.961,230.791 138.680,230.655 137.800 C 230.399 136.135,229.026 133.146,227.744 131.460 C 227.335 130.922,226.640 129.980,226.200 129.367 C 225.760 128.753,224.995 127.764,224.500 127.168 C 224.005 126.572,223.600 125.892,223.600 125.656 C 223.600 125.421,223.261 125.047,222.846 124.825 C 222.431 124.603,221.967 123.921,221.815 123.311 C 221.662 122.700,221.243 121.873,220.882 121.473 C 219.224 119.632,220.762 113.707,223.308 112.133 C 225.025 111.072,230.869 111.272,233.600 112.485 M247.715 131.168 C 250.128 132.085,250.921 135.206,249.251 137.206 C 248.038 138.659,246.800 138.463,246.800 136.819 C 246.800 136.443,246.083 135.340,245.206 134.368 C 243.341 132.300,243.326 132.238,244.489 131.423 C 245.507 130.710,246.338 130.644,247.715 131.168 M252.019 219.210 C 252.440 219.436,254.062 219.780,255.624 219.977 C 257.185 220.173,258.764 220.597,259.131 220.919 C 259.499 221.242,260.250 221.642,260.800 221.809 C 262.803 222.417,267.535 226.800,268.941 229.350 C 269.413 230.207,270.022 231.289,270.294 231.754 C 270.566 232.219,270.791 232.946,270.794 233.369 C 270.797 233.791,271.082 234.449,271.427 234.830 C 271.773 235.212,272.237 236.840,272.460 238.450 C 272.684 240.059,273.074 241.741,273.329 242.188 C 274.256 243.813,274.189 257.709,273.235 261.655 C 272.776 263.555,272.400 265.537,272.400 266.061 C 272.400 266.584,272.040 267.684,271.600 268.504 C 271.160 269.325,270.800 270.209,270.800 270.467 C 270.800 271.348,268.371 275.925,267.785 276.151 C 267.463 276.274,267.200 276.629,267.200 276.940 C 267.200 277.251,266.638 278.055,265.950 278.727 C 264.300 280.340,264.549 281.789,266.541 282.163 C 267.283 282.302,268.213 282.772,268.607 283.208 C 269.001 283.644,269.632 284.000,270.008 284.000 C 270.384 284.000,271.121 284.335,271.646 284.745 C 272.171 285.155,272.988 285.612,273.463 285.760 C 274.918 286.216,274.883 288.994,273.407 290.202 C 273.137 290.422,272.779 291.052,272.611 291.602 C 271.848 294.093,270.032 294.644,267.600 293.120 C 265.626 291.884,263.994 290.962,262.600 290.297 C 261.940 289.982,261.153 289.426,260.851 289.062 C 260.549 288.698,260.021 288.400,259.677 288.400 C 259.333 288.400,258.680 288.065,258.226 287.655 C 256.832 286.399,255.189 286.058,252.579 286.485 C 249.130 287.050,239.855 286.659,238.699 285.902 C 238.195 285.571,237.027 285.173,236.103 285.017 C 235.179 284.861,233.985 284.389,233.449 283.967 C 232.913 283.545,232.319 283.200,232.131 283.200 C 231.300 283.200,225.200 276.705,225.200 275.820 C 225.200 275.538,224.840 274.850,224.400 274.291 C 223.960 273.731,223.600 272.850,223.600 272.331 C 223.600 271.812,223.257 270.747,222.837 269.964 C 222.357 269.069,221.913 266.991,221.642 264.370 C 221.405 262.077,221.033 258.670,220.816 256.800 C 220.574 254.723,220.558 252.310,220.773 250.600 C 220.967 249.060,221.343 246.006,221.609 243.812 C 221.886 241.527,222.414 239.224,222.846 238.418 C 223.261 237.645,223.600 236.538,223.600 235.960 C 223.600 235.381,223.949 234.464,224.375 233.922 C 224.802 233.380,225.271 232.456,225.419 231.868 C 225.566 231.281,225.844 230.800,226.035 230.800 C 226.227 230.800,226.729 230.124,227.150 229.297 C 228.022 227.588,231.819 223.838,233.084 223.437 C 233.547 223.290,234.027 222.906,234.150 222.585 C 234.274 222.263,234.607 222.000,234.891 222.000 C 235.174 222.000,236.252 221.550,237.285 221.000 C 238.318 220.450,239.757 219.983,240.482 219.961 C 241.207 219.940,242.790 219.695,244.000 219.417 C 246.766 218.780,251.011 218.671,252.019 219.210 M201.894 219.759 C 204.145 220.056,206.398 220.569,206.900 220.897 C 207.401 221.226,208.368 221.617,209.048 221.767 C 209.728 221.916,210.625 222.297,211.042 222.613 C 211.459 222.930,212.250 223.538,212.800 223.965 L 213.800 224.740 212.841 226.670 C 212.313 227.732,211.755 228.870,211.600 229.200 C 211.138 230.186,208.665 230.114,205.502 229.022 C 195.301 225.501,186.603 230.306,188.768 238.266 C 189.254 240.053,193.566 244.800,194.702 244.800 C 194.917 244.800,195.521 245.135,196.046 245.545 C 196.571 245.955,197.450 246.426,198.000 246.592 C 198.550 246.759,199.303 247.160,199.672 247.484 C 200.399 248.122,202.042 249.056,204.648 250.314 C 205.555 250.751,206.421 251.310,206.572 251.555 C 206.723 251.800,207.123 252.000,207.460 252.000 C 208.847 252.000,215.066 257.887,215.466 259.578 C 215.599 260.140,215.998 260.933,216.354 261.341 C 217.462 262.610,217.521 271.587,216.433 273.347 C 215.975 274.088,215.600 274.974,215.600 275.317 C 215.600 275.659,215.150 276.473,214.600 277.127 C 214.050 277.781,213.600 278.453,213.600 278.620 C 213.600 279.140,209.466 282.808,208.200 283.411 C 207.540 283.726,206.730 284.154,206.400 284.363 C 205.558 284.894,202.173 285.976,199.800 286.473 C 197.061 287.045,188.783 286.650,187.223 285.871 C 186.555 285.538,185.421 285.141,184.704 284.990 C 183.987 284.838,182.839 284.373,182.153 283.957 C 181.467 283.541,180.657 283.197,180.353 283.193 C 179.713 283.184,176.363 280.987,175.935 280.295 C 175.776 280.038,175.993 279.191,176.416 278.414 C 176.840 277.636,177.374 276.480,177.604 275.845 C 178.093 274.495,182.117 274.458,183.590 275.791 C 185.613 277.622,198.482 277.909,200.400 276.166 C 200.730 275.866,201.644 275.084,202.432 274.429 C 206.730 270.851,204.586 262.647,198.600 259.771 C 197.940 259.454,196.680 258.752,195.800 258.211 C 194.920 257.671,193.570 256.932,192.800 256.569 C 192.030 256.207,191.310 255.771,191.200 255.600 C 191.090 255.429,190.325 255.009,189.500 254.665 C 188.675 254.322,188.000 253.880,188.000 253.684 C 188.000 253.487,187.299 253.116,186.441 252.860 C 185.584 252.603,184.780 252.124,184.654 251.796 C 184.528 251.468,184.182 251.200,183.885 251.200 C 183.587 251.200,182.958 250.795,182.487 250.300 C 182.015 249.805,181.083 248.860,180.415 248.200 C 179.747 247.540,179.201 246.832,179.200 246.626 C 179.200 246.420,178.843 245.872,178.407 245.408 C 177.400 244.335,176.241 238.466,176.549 236.000 C 177.221 230.630,177.540 229.825,180.563 225.878 C 181.630 224.485,185.438 221.600,186.210 221.600 C 186.390 221.600,186.858 221.310,187.250 220.955 C 188.781 219.569,196.001 218.979,201.894 219.759 M73.415 221.054 C 74.303 222.012,75.192 224.231,75.198 225.501 C 75.199 225.777,75.560 226.675,76.000 227.496 C 76.440 228.316,76.800 229.443,76.800 230.000 C 76.800 230.557,77.137 231.640,77.548 232.408 C 77.960 233.176,78.424 234.558,78.580 235.479 C 78.735 236.400,79.208 237.832,79.631 238.661 C 80.054 239.491,80.400 240.588,80.400 241.101 C 80.400 241.613,80.736 242.700,81.146 243.516 C 81.556 244.332,82.008 245.640,82.149 246.422 C 82.291 247.205,82.766 248.548,83.204 249.407 C 83.642 250.266,84.000 251.376,84.000 251.872 C 84.000 252.369,84.345 253.456,84.766 254.288 C 85.187 255.119,85.657 256.610,85.810 257.600 C 85.962 258.590,86.326 259.672,86.618 260.003 C 86.910 260.335,87.299 261.505,87.482 262.603 C 87.981 265.598,89.760 265.807,90.186 262.922 C 90.343 261.865,90.814 260.439,91.235 259.753 C 91.656 259.067,92.000 257.980,92.000 257.337 C 92.000 256.695,92.348 255.486,92.774 254.651 C 93.200 253.816,93.729 252.289,93.950 251.258 C 94.171 250.227,94.632 248.847,94.974 248.192 C 95.315 247.536,95.596 246.633,95.598 246.185 C 95.599 245.736,95.940 244.703,96.355 243.889 C 96.770 243.075,97.236 241.732,97.391 240.904 C 97.546 240.077,98.016 238.645,98.436 237.722 C 98.856 236.799,99.200 235.712,99.200 235.307 C 99.200 234.901,99.546 233.891,99.969 233.061 C 100.392 232.232,100.856 230.854,101.000 230.000 C 101.144 229.146,101.608 227.768,102.031 226.939 C 102.454 226.109,102.800 224.995,102.800 224.463 C 102.800 223.497,104.180 220.863,104.979 220.306 C 105.210 220.144,107.952 220.009,111.071 220.006 C 117.426 219.999,118.000 220.214,118.000 222.596 C 118.000 223.333,118.267 224.985,118.594 226.268 C 118.920 227.550,119.370 231.570,119.593 235.200 C 119.816 238.830,120.178 242.610,120.398 243.600 C 120.618 244.590,120.979 249.360,121.201 254.200 C 121.422 259.040,121.802 264.080,122.045 265.400 C 122.747 269.212,123.095 283.493,122.519 284.859 L 122.039 286.000 117.448 286.000 C 111.542 286.000,111.202 285.697,111.197 280.446 C 111.195 278.551,111.023 275.920,110.815 274.600 C 110.607 273.280,110.250 266.799,110.023 260.197 C 109.795 253.596,109.348 246.576,109.028 244.597 C 108.709 242.619,108.336 240.145,108.199 239.100 C 107.876 236.623,107.372 236.682,107.033 239.236 C 106.884 240.356,106.411 241.928,105.981 242.730 C 105.552 243.532,105.200 244.736,105.200 245.405 C 105.200 246.074,104.932 247.005,104.604 247.473 C 104.276 247.941,103.802 249.286,103.550 250.462 C 103.298 251.638,102.757 253.227,102.346 253.994 C 101.936 254.761,101.600 255.843,101.600 256.400 C 101.600 256.957,101.240 258.084,100.800 258.904 C 100.360 259.725,100.000 260.900,100.000 261.514 C 100.000 262.128,99.636 263.344,99.190 264.215 C 98.745 265.087,98.272 266.520,98.139 267.400 C 98.007 268.280,97.561 269.561,97.149 270.247 C 96.737 270.933,96.399 272.013,96.398 272.647 C 96.396 273.281,96.106 274.340,95.752 275.000 C 95.399 275.660,94.871 277.100,94.580 278.200 C 92.713 285.254,92.219 285.800,87.696 285.800 L 84.218 285.800 82.940 283.852 C 82.159 282.661,81.554 281.119,81.384 279.885 C 81.231 278.774,80.768 277.311,80.355 276.633 C 79.941 275.955,79.602 274.881,79.601 274.247 C 79.601 273.613,79.259 272.533,78.842 271.847 C 78.425 271.161,77.959 269.664,77.807 268.520 C 77.655 267.376,77.285 266.236,76.985 265.987 C 76.685 265.738,76.317 264.694,76.167 263.667 C 76.017 262.640,75.584 261.170,75.204 260.400 C 74.824 259.630,74.393 258.222,74.247 257.272 C 74.101 256.321,73.725 255.151,73.411 254.672 C 73.097 254.192,72.718 252.990,72.569 252.000 C 72.420 251.010,71.984 249.660,71.600 249.000 C 71.216 248.340,70.783 247.012,70.638 246.049 C 70.493 245.086,70.111 243.923,69.790 243.464 C 69.468 243.005,69.090 241.763,68.950 240.705 C 68.809 239.648,68.551 238.693,68.375 238.584 C 67.099 237.796,66.456 244.945,65.998 265.000 C 65.767 275.120,65.480 283.717,65.360 284.104 C 64.740 286.116,56.151 286.978,55.161 285.127 C 54.502 283.896,54.957 263.175,55.766 257.600 C 56.101 255.290,56.382 251.870,56.391 250.000 C 56.411 245.819,57.089 237.906,57.591 236.005 C 57.795 235.232,58.146 231.792,58.371 228.359 C 58.946 219.583,58.462 220.066,66.719 220.027 C 72.400 220.000,72.445 220.007,73.415 221.054 M293.097 220.328 C 293.484 220.574,293.617 226.849,293.697 248.622 L 293.800 276.600 303.515 276.800 C 314.800 277.032,314.084 276.713,313.915 281.439 C 313.739 286.394,315.116 286.000,297.965 286.000 C 283.589 286.000,283.218 285.980,282.796 285.192 C 282.350 284.359,282.190 221.063,282.632 220.348 C 282.900 219.914,292.417 219.896,293.097 220.328 M244.600 228.390 C 241.286 229.240,236.800 232.304,236.800 233.718 C 236.800 234.025,236.440 234.602,236.000 235.000 C 235.560 235.398,235.200 236.108,235.200 236.577 C 235.200 237.047,234.799 238.144,234.310 239.015 C 233.100 241.169,232.895 263.280,234.066 265.414 C 234.432 266.081,234.864 267.341,235.027 268.214 C 235.329 269.841,238.571 275.200,239.252 275.200 C 239.461 275.200,240.120 275.558,240.716 275.995 C 243.060 277.716,251.480 277.675,254.039 275.931 C 256.290 274.398,259.200 270.863,259.200 269.663 C 259.200 269.391,259.538 268.500,259.951 267.684 C 262.191 263.258,262.134 241.211,259.874 237.984 C 259.503 237.455,259.200 236.626,259.200 236.142 C 259.200 235.658,258.750 234.727,258.200 234.073 C 257.650 233.419,257.200 232.730,257.200 232.542 C 257.200 232.034,254.732 230.159,253.592 229.800 C 253.046 229.628,251.973 229.153,251.206 228.744 C 249.756 227.970,246.844 227.814,244.600 228.390 M137.786 237.050 C 138.592 237.359,140.800 242.130,140.800 243.561 C 140.800 244.139,141.134 245.239,141.543 246.006 C 141.952 246.773,142.409 248.232,142.560 249.248 C 142.710 250.265,143.186 251.788,143.617 252.633 C 144.048 253.478,144.400 254.629,144.400 255.191 C 144.400 255.752,144.734 256.839,145.143 257.606 C 145.552 258.373,146.009 259.832,146.160 260.848 C 146.310 261.865,146.786 263.388,147.217 264.233 C 147.648 265.078,148.000 266.255,148.000 266.849 C 148.000 267.443,148.344 268.890,148.764 270.064 C 149.184 271.239,149.697 272.830,149.903 273.600 L 150.279 275.000 150.590 273.400 C 150.761 272.520,151.218 271.080,151.606 270.200 C 151.994 269.320,152.438 267.790,152.594 266.800 C 152.750 265.810,153.113 264.627,153.401 264.172 C 153.689 263.716,154.055 262.276,154.215 260.972 C 154.374 259.667,154.816 257.790,155.196 256.800 C 155.577 255.810,156.011 253.761,156.160 252.248 C 156.310 250.734,156.693 248.874,157.010 248.115 C 157.327 247.355,157.691 245.264,157.818 243.467 C 158.146 238.847,158.267 238.469,159.711 237.589 C 161.237 236.658,167.871 236.431,168.720 237.280 C 169.459 238.019,169.296 242.508,168.437 245.098 C 168.017 246.364,167.564 248.451,167.429 249.734 C 167.295 251.018,166.938 252.548,166.637 253.134 C 166.335 253.721,165.903 255.399,165.676 256.865 C 165.449 258.331,165.001 259.951,164.680 260.465 C 164.359 260.979,163.987 262.256,163.855 263.303 C 163.723 264.350,163.355 265.610,163.037 266.103 C 162.719 266.596,162.334 267.720,162.181 268.600 C 162.028 269.480,161.565 270.761,161.151 271.447 C 160.738 272.133,160.400 273.144,160.400 273.693 C 160.400 274.243,160.063 275.121,159.652 275.646 C 159.241 276.171,158.767 277.230,158.600 278.000 C 158.433 278.770,157.959 279.829,157.548 280.354 C 157.137 280.879,156.800 281.619,156.800 282.000 C 156.800 282.381,156.465 283.121,156.055 283.646 C 155.645 284.171,155.176 285.026,155.013 285.547 C 154.850 286.069,154.185 287.239,153.535 288.147 C 152.886 289.056,151.987 290.385,151.538 291.100 C 151.088 291.815,150.559 292.400,150.360 292.400 C 150.162 292.400,150.000 292.630,150.000 292.912 C 150.000 293.956,144.622 298.918,141.840 300.441 C 134.367 304.532,126.000 303.074,126.000 297.680 C 126.000 295.023,126.352 294.801,130.580 294.794 C 132.995 294.790,134.533 294.596,135.200 294.211 C 135.750 293.894,136.585 293.459,137.055 293.244 C 141.006 291.441,143.139 284.936,141.083 280.960 C 140.748 280.313,140.282 278.745,140.048 277.474 C 139.813 276.204,139.346 274.773,139.010 274.293 C 138.675 273.814,138.400 272.870,138.400 272.196 C 138.400 271.521,138.042 270.266,137.604 269.407 C 137.166 268.548,136.691 267.205,136.549 266.422 C 136.408 265.640,135.981 264.370,135.602 263.600 C 135.223 262.830,134.793 261.422,134.647 260.472 C 134.501 259.521,134.125 258.351,133.811 257.872 C 133.497 257.392,133.117 256.225,132.965 255.277 C 132.814 254.330,132.355 252.896,131.945 252.093 C 131.535 251.289,131.200 250.171,131.200 249.609 C 131.200 249.048,130.863 247.960,130.452 247.192 C 130.040 246.424,129.569 245.002,129.405 244.031 C 129.241 243.061,128.769 241.712,128.355 241.033 C 127.439 239.531,127.412 238.846,128.223 237.689 C 128.853 236.790,135.883 236.320,137.786 237.050 M325.519 277.747 C 326.070 278.299,326.005 278.434,324.869 279.081 C 323.726 279.731,323.605 279.984,323.603 281.726 C 323.599 284.146,323.053 285.200,321.800 285.200 C 320.542 285.200,320.000 284.144,320.000 281.691 C 320.000 279.986,319.869 279.669,319.000 279.273 C 317.596 278.633,317.799 277.516,319.400 277.069 C 320.859 276.662,324.879 277.108,325.519 277.747 M330.043 278.600 C 331.551 280.700,332.000 280.844,332.000 279.229 C 332.000 277.814,332.919 276.800,334.200 276.800 C 336.473 276.800,337.510 282.964,335.622 285.256 L 334.845 286.200 334.138 284.568 L 333.432 282.936 332.816 284.144 C 332.042 285.661,331.560 285.814,330.578 284.854 C 329.813 284.106,329.784 284.107,328.866 284.946 L 327.932 285.800 327.166 284.856 C 326.560 284.108,326.400 283.270,326.400 280.836 C 326.400 276.297,327.781 275.450,330.043 278.600 " stroke="none" fill="#fbfbfb" fill-rule="evenodd"></path><path id="path2" d="M223.548 113.500 C 221.092 116.196,220.469 118.621,221.760 120.464 C 222.112 120.967,222.400 121.643,222.400 121.968 C 222.400 122.675,224.106 125.216,225.899 127.178 C 226.613 127.960,227.470 129.171,227.802 129.868 C 228.135 130.565,228.547 131.195,228.718 131.268 C 229.378 131.548,231.118 135.079,231.384 136.677 C 231.537 137.599,232.008 139.032,232.431 139.861 C 232.854 140.691,233.200 141.700,233.200 142.105 C 233.200 142.510,233.535 143.507,233.945 144.321 C 234.355 145.134,235.210 146.874,235.845 148.186 C 237.153 150.888,238.414 152.944,239.648 154.385 C 240.615 155.515,240.519 158.236,239.439 160.324 C 237.336 164.392,237.291 182.062,239.378 184.379 C 239.686 184.721,240.070 185.532,240.233 186.182 C 240.746 188.237,243.845 191.821,245.615 192.405 C 249.141 193.569,251.241 190.828,252.159 183.864 C 252.517 181.149,254.800 180.743,254.800 183.395 C 254.800 183.674,255.058 184.117,255.374 184.379 C 255.690 184.641,256.071 185.428,256.221 186.128 C 256.371 186.827,256.832 187.722,257.247 188.116 C 257.661 188.509,258.000 188.980,258.000 189.162 C 258.000 190.042,264.080 195.680,264.532 195.219 C 264.890 194.855,264.809 194.586,264.187 194.072 C 263.739 193.702,263.138 192.828,262.850 192.129 C 262.562 191.430,262.073 190.760,261.763 190.641 C 261.454 190.522,261.200 190.162,261.200 189.841 C 261.200 189.520,260.944 189.001,260.631 188.689 C 260.066 188.123,259.027 186.273,257.776 183.600 C 257.415 182.830,256.885 181.930,256.597 181.600 C 256.310 181.270,255.876 180.256,255.634 179.347 C 255.392 178.437,254.945 177.486,254.641 177.234 C 254.336 176.981,253.968 175.984,253.823 175.017 L 253.560 173.260 252.480 173.884 C 251.216 174.614,249.200 177.561,249.200 178.679 C 249.200 179.105,248.844 180.792,248.409 182.427 C 247.975 184.062,247.615 185.951,247.609 186.624 C 247.585 189.739,244.571 189.884,243.311 186.831 C 242.986 186.044,242.491 185.130,242.211 184.800 C 241.931 184.470,241.573 183.486,241.416 182.614 C 241.260 181.741,240.896 180.571,240.609 180.014 C 238.712 176.329,239.679 165.532,242.460 159.356 C 243.608 156.806,243.443 154.712,241.970 153.125 C 240.365 151.395,238.168 148.065,237.798 146.800 C 237.637 146.250,237.272 145.530,236.987 145.200 C 236.701 144.870,236.342 143.880,236.189 143.000 C 236.036 142.120,235.656 140.994,235.344 140.498 C 235.033 140.001,234.602 138.664,234.386 137.525 C 234.170 136.387,233.725 135.159,233.397 134.796 C 233.068 134.434,232.800 133.781,232.800 133.346 C 232.800 132.911,232.350 131.945,231.800 131.200 C 231.250 130.455,230.800 129.681,230.800 129.481 C 230.800 129.281,229.668 127.741,228.284 126.059 C 226.901 124.376,225.542 122.550,225.265 122.000 C 224.988 121.450,224.480 120.484,224.136 119.853 C 222.308 116.497,227.756 113.455,230.755 116.156 C 231.110 116.476,231.940 116.869,232.600 117.030 C 233.260 117.191,234.229 117.655,234.754 118.061 C 235.279 118.467,235.937 118.800,236.217 118.800 C 236.497 118.800,237.706 119.598,238.904 120.573 C 241.025 122.302,241.186 122.358,245.226 122.803 C 247.506 123.054,249.503 123.340,249.663 123.439 C 249.823 123.538,250.991 123.810,252.259 124.045 C 253.527 124.279,255.001 124.815,255.536 125.235 C 256.070 125.656,256.819 126.000,257.200 126.000 C 257.581 126.000,258.350 126.360,258.909 126.800 C 259.469 127.240,260.123 127.600,260.363 127.600 C 260.603 127.600,261.117 127.915,261.505 128.300 C 261.894 128.685,262.659 129.226,263.205 129.503 C 264.606 130.211,268.269 132.908,269.227 133.937 C 269.669 134.412,270.165 134.800,270.328 134.800 C 270.839 134.800,276.786 140.718,278.273 142.706 C 279.052 143.748,279.897 144.780,280.150 145.000 C 280.404 145.220,280.918 145.850,281.294 146.400 C 281.670 146.950,282.610 148.300,283.383 149.400 C 284.155 150.500,284.791 151.597,284.794 151.838 C 284.797 152.079,285.150 152.593,285.577 152.979 C 286.005 153.366,286.466 154.189,286.602 154.808 C 286.738 155.427,287.098 156.029,287.402 156.146 C 287.707 156.262,288.082 157.042,288.236 157.879 C 288.390 158.716,288.830 159.803,289.213 160.297 C 289.596 160.790,290.025 161.807,290.165 162.556 C 290.306 163.306,290.686 164.140,291.011 164.409 C 291.335 164.678,291.600 165.098,291.600 165.343 C 291.600 165.588,292.050 166.736,292.600 167.894 C 293.150 169.052,294.064 171.035,294.632 172.300 C 296.349 176.128,297.300 178.169,297.662 178.800 C 297.850 179.130,298.319 180.013,298.702 180.762 C 299.781 182.867,301.393 184.379,302.863 184.665 C 303.598 184.808,304.827 185.257,305.594 185.662 C 306.361 186.068,307.351 186.401,307.794 186.402 C 308.237 186.404,309.140 186.692,309.800 187.044 C 310.460 187.395,311.673 187.926,312.497 188.222 C 313.320 188.519,314.220 188.948,314.497 189.175 C 316.692 190.976,317.569 191.600,317.903 191.600 C 318.274 191.600,320.749 193.376,322.000 194.540 C 322.330 194.847,322.971 195.213,323.424 195.352 C 323.878 195.492,324.831 196.206,325.542 196.940 C 327.401 198.858,326.649 199.331,321.239 199.648 C 318.907 199.785,316.190 200.178,315.200 200.523 C 314.210 200.867,312.724 201.259,311.897 201.393 C 308.757 201.904,308.614 204.250,311.528 207.468 C 313.442 209.583,317.847 213.200,318.507 213.200 C 318.709 213.200,319.331 213.560,319.891 214.000 C 320.450 214.440,321.219 214.800,321.600 214.800 C 321.981 214.800,322.736 215.149,323.278 215.575 C 323.820 216.002,324.731 216.468,325.302 216.611 C 325.874 216.755,326.652 217.216,327.033 217.636 C 327.413 218.056,327.893 218.400,328.099 218.400 C 328.305 218.400,328.931 218.760,329.491 219.200 C 330.582 220.058,331.600 220.251,331.600 219.600 C 331.600 219.380,331.330 219.200,331.000 219.200 C 330.670 219.200,330.400 218.912,330.400 218.560 C 330.400 217.348,321.593 210.000,320.140 210.000 C 319.911 210.000,319.398 209.640,319.000 209.200 C 318.602 208.760,318.079 208.400,317.838 208.400 C 317.125 208.399,314.429 205.399,314.727 204.937 C 315.376 203.931,319.164 202.721,322.753 202.374 C 324.817 202.174,326.707 201.860,326.953 201.675 C 327.199 201.491,328.165 201.121,329.100 200.854 C 330.035 200.587,330.800 200.212,330.800 200.022 C 330.800 199.457,328.087 196.380,326.485 195.128 C 325.668 194.489,324.723 193.749,324.384 193.483 C 320.597 190.514,318.792 189.209,317.700 188.647 C 316.985 188.280,316.400 187.826,316.400 187.638 C 316.400 187.451,315.860 187.073,315.200 186.800 C 314.540 186.527,314.000 186.148,314.000 185.959 C 314.000 185.770,313.505 185.496,312.900 185.349 C 312.295 185.203,311.170 184.761,310.400 184.367 C 309.630 183.974,307.920 183.149,306.600 182.534 C 303.264 180.981,301.298 178.646,300.033 174.732 C 299.773 173.925,299.298 173.048,298.980 172.783 C 298.661 172.518,298.400 171.988,298.400 171.605 C 298.400 171.222,298.067 170.479,297.661 169.954 C 297.255 169.429,296.793 168.474,296.636 167.832 C 296.479 167.189,296.002 166.220,295.575 165.678 C 295.149 165.136,294.800 164.291,294.800 163.800 C 294.800 163.309,294.440 162.450,294.000 161.891 C 293.560 161.331,293.200 160.630,293.200 160.331 C 293.200 160.032,292.857 159.148,292.437 158.365 C 292.018 157.583,291.449 156.190,291.174 155.271 C 290.899 154.352,290.534 153.600,290.364 153.600 C 290.193 153.600,289.927 153.195,289.772 152.700 C 289.617 152.205,289.065 151.291,288.545 150.669 C 288.025 150.047,287.600 149.353,287.600 149.127 C 287.600 148.901,287.147 148.150,286.594 147.458 C 285.464 146.045,285.518 146.117,283.600 143.460 C 282.084 141.360,273.355 132.335,272.390 131.871 C 272.066 131.714,271.080 131.044,270.200 130.381 C 269.320 129.718,268.150 128.870,267.600 128.497 C 267.050 128.124,266.456 127.590,266.280 127.310 C 266.104 127.029,265.723 126.800,265.434 126.800 C 265.145 126.800,264.401 126.401,263.781 125.913 C 260.999 123.725,255.778 121.351,253.086 121.049 C 251.814 120.906,250.464 120.622,250.086 120.418 C 249.709 120.213,247.919 119.876,246.108 119.667 C 243.114 119.323,242.644 119.145,240.908 117.698 C 239.859 116.823,238.616 115.988,238.148 115.842 C 237.679 115.696,236.886 115.222,236.386 114.788 C 235.887 114.355,235.097 114.000,234.633 114.000 C 234.168 114.000,233.116 113.640,232.296 113.200 C 229.829 111.878,224.870 112.048,223.548 113.500 M245.700 131.869 C 244.978 132.154,245.077 132.593,246.151 133.869 C 246.675 134.491,247.172 135.360,247.257 135.800 C 247.342 136.240,247.678 136.600,248.005 136.600 C 248.687 136.600,248.831 133.052,248.175 132.439 C 247.646 131.947,246.293 131.634,245.700 131.869 M60.900 221.065 C 60.625 221.176,60.400 221.759,60.400 222.361 C 60.400 222.962,60.138 224.342,59.817 225.427 C 59.497 226.512,59.061 230.460,58.850 234.200 C 58.639 237.940,58.256 241.540,57.999 242.200 C 57.732 242.886,57.376 247.602,57.168 253.200 C 56.968 258.590,56.606 264.338,56.363 265.973 C 55.805 269.745,55.262 283.204,55.637 284.000 C 55.869 284.494,56.612 284.565,59.859 284.400 L 63.800 284.200 64.069 277.800 C 64.217 274.280,64.536 269.420,64.778 267.000 C 65.019 264.580,65.380 256.660,65.580 249.400 C 65.780 242.140,66.066 235.886,66.214 235.502 C 66.879 233.783,69.595 236.875,69.602 239.360 C 69.604 239.822,69.885 240.736,70.226 241.392 C 70.568 242.047,71.039 243.487,71.273 244.592 C 71.507 245.696,72.036 247.268,72.449 248.084 C 72.862 248.900,73.200 250.049,73.200 250.637 C 73.200 251.225,73.537 252.267,73.948 252.953 C 74.360 253.639,74.811 255.087,74.950 256.171 C 75.090 257.255,75.457 258.425,75.767 258.771 C 76.077 259.117,76.519 260.431,76.750 261.691 C 76.981 262.951,77.425 264.391,77.737 264.891 C 78.050 265.391,78.421 266.578,78.562 267.528 C 78.703 268.479,79.075 269.649,79.389 270.128 C 79.703 270.608,80.082 271.810,80.231 272.800 C 80.380 273.790,80.816 275.140,81.200 275.800 C 81.584 276.460,82.019 277.801,82.167 278.780 C 82.314 279.759,82.630 280.795,82.869 281.083 C 83.107 281.370,83.421 282.189,83.567 282.902 L 83.833 284.200 87.807 284.200 L 91.781 284.200 92.242 282.200 C 92.496 281.100,92.994 279.660,93.349 279.000 C 93.704 278.340,93.996 277.347,93.998 276.794 C 93.999 276.241,94.333 275.161,94.739 274.394 C 95.146 273.627,95.605 272.190,95.759 271.200 C 95.914 270.210,96.297 269.008,96.611 268.528 C 96.925 268.049,97.299 266.879,97.442 265.928 C 97.585 264.978,98.039 263.639,98.451 262.953 C 98.863 262.267,99.200 261.180,99.200 260.537 C 99.200 259.895,99.564 258.656,100.010 257.785 C 100.455 256.913,100.928 255.480,101.061 254.600 C 101.193 253.720,101.639 252.439,102.051 251.753 C 102.463 251.067,102.800 249.984,102.800 249.347 C 102.800 248.710,103.137 247.560,103.548 246.792 C 103.960 246.024,104.427 244.587,104.587 243.598 C 104.746 242.609,105.141 241.384,105.463 240.876 C 105.786 240.368,106.214 238.941,106.415 237.706 C 106.986 234.196,108.486 233.870,109.015 237.140 C 109.145 237.943,109.432 239.042,109.654 239.582 C 109.876 240.122,110.227 244.622,110.434 249.582 C 110.641 254.542,111.073 260.670,111.395 263.200 C 111.717 265.730,112.020 271.356,112.068 275.703 C 112.175 285.287,111.674 284.452,117.232 284.314 L 121.800 284.200 121.925 282.457 C 121.994 281.498,121.855 279.158,121.616 277.257 C 121.377 275.356,121.001 269.120,120.779 263.400 C 120.557 257.680,120.107 251.380,119.779 249.400 C 119.452 247.420,119.033 242.642,118.850 238.782 C 118.666 234.922,118.309 231.376,118.055 230.903 C 117.802 230.429,117.494 228.367,117.372 226.321 C 117.005 220.199,117.675 220.800,111.213 220.800 L 105.642 220.800 104.640 222.795 C 104.089 223.892,103.519 225.467,103.374 226.295 C 103.229 227.123,102.856 228.206,102.544 228.702 C 102.233 229.199,101.802 230.536,101.586 231.675 C 101.370 232.813,100.944 234.027,100.640 234.372 C 100.336 234.717,99.960 235.810,99.805 236.800 C 99.650 237.790,99.266 239.006,98.951 239.502 C 98.636 239.999,98.202 241.336,97.986 242.475 C 97.770 243.613,97.349 244.827,97.050 245.172 C 96.751 245.517,96.383 246.610,96.233 247.600 C 96.083 248.590,95.703 249.792,95.389 250.272 C 95.075 250.751,94.701 251.921,94.558 252.872 C 94.415 253.822,93.982 255.140,93.596 255.800 C 93.210 256.460,92.774 257.840,92.628 258.867 C 92.481 259.894,92.115 260.938,91.815 261.187 C 91.515 261.436,91.144 262.576,90.992 263.720 C 90.365 268.414,86.800 268.386,86.800 263.688 C 86.800 263.141,86.463 262.133,86.051 261.447 C 85.639 260.761,85.193 259.480,85.061 258.600 C 84.928 257.720,84.455 256.287,84.010 255.415 C 83.564 254.544,83.200 253.369,83.200 252.804 C 83.200 252.240,82.932 251.395,82.604 250.927 C 82.276 250.459,81.802 249.116,81.550 247.942 C 81.298 246.768,80.856 245.446,80.566 245.004 C 80.277 244.562,79.917 243.390,79.767 242.400 C 79.617 241.410,79.249 240.317,78.950 239.972 C 78.651 239.627,78.230 238.413,78.014 237.275 C 77.798 236.136,77.364 234.799,77.049 234.302 C 76.734 233.806,76.350 232.590,76.195 231.600 C 76.040 230.610,75.647 229.499,75.323 229.131 C 74.998 228.763,74.634 227.683,74.514 226.731 C 74.394 225.779,73.856 224.055,73.319 222.900 L 72.342 220.800 66.871 220.832 C 63.862 220.849,61.175 220.954,60.900 221.065 M163.804 238.376 C 159.434 238.648,158.413 240.259,158.402 246.898 C 158.401 247.723,158.057 249.433,157.637 250.698 C 157.217 251.964,156.762 254.063,156.626 255.362 C 156.490 256.662,156.117 258.282,155.797 258.962 C 155.477 259.643,155.046 261.409,154.840 262.887 C 154.633 264.364,154.180 265.979,153.832 266.476 C 153.484 266.972,153.200 267.926,153.200 268.595 C 153.200 269.264,152.843 270.478,152.407 271.291 C 151.971 272.105,151.498 273.494,151.357 274.378 C 150.928 277.061,148.800 277.046,148.800 274.360 C 148.800 273.996,148.540 273.076,148.223 272.316 C 147.905 271.556,147.520 269.959,147.368 268.767 C 147.215 267.575,146.780 265.970,146.401 265.200 C 146.022 264.430,145.593 263.022,145.447 262.072 C 145.301 261.121,144.933 259.951,144.629 259.472 C 144.325 258.992,143.946 257.791,143.787 256.802 C 143.627 255.813,143.160 254.376,142.748 253.608 C 142.337 252.840,142.000 251.662,142.000 250.991 C 142.000 250.319,141.654 249.091,141.231 248.261 C 140.808 247.432,140.341 245.999,140.193 245.077 C 140.044 244.154,139.668 242.998,139.357 242.507 C 139.045 242.015,138.650 240.935,138.478 240.107 L 138.166 238.600 133.809 238.486 C 128.282 238.341,128.093 238.408,129.167 240.147 C 129.625 240.888,130.004 241.923,130.009 242.447 C 130.014 242.971,130.366 244.167,130.792 245.106 C 131.217 246.044,131.690 247.484,131.842 248.306 C 131.993 249.127,132.451 250.427,132.859 251.194 C 133.266 251.961,133.600 253.110,133.600 253.747 C 133.600 254.384,133.937 255.467,134.349 256.153 C 134.761 256.839,135.220 258.210,135.369 259.200 C 135.518 260.190,135.877 261.362,136.166 261.804 C 136.456 262.246,136.896 263.556,137.144 264.715 C 137.393 265.874,137.846 267.223,138.151 267.711 C 138.456 268.200,138.826 269.410,138.973 270.400 C 139.120 271.390,139.487 272.577,139.788 273.037 C 140.090 273.498,140.524 274.889,140.753 276.128 C 140.982 277.367,141.427 278.791,141.741 279.291 C 143.017 281.320,142.891 288.567,141.551 290.194 C 137.900 294.626,136.714 295.266,131.600 295.559 C 128.602 295.731,127.411 295.943,127.440 296.300 C 127.462 296.575,127.507 297.427,127.540 298.194 C 127.668 301.163,134.433 303.103,137.646 301.092 C 138.171 300.764,139.089 300.382,139.686 300.243 C 142.001 299.707,146.019 296.381,149.161 292.400 C 150.290 290.970,151.480 289.515,151.807 289.166 C 152.133 288.818,152.400 288.358,152.400 288.144 C 152.400 287.930,152.850 287.145,153.400 286.400 C 153.950 285.655,154.400 284.727,154.400 284.338 C 154.400 283.949,154.739 283.309,155.153 282.916 C 155.568 282.522,156.029 281.627,156.179 280.928 C 156.329 280.228,156.698 279.450,157.000 279.200 C 157.302 278.950,157.670 278.172,157.817 277.472 C 157.965 276.773,158.408 275.660,158.801 275.000 C 159.194 274.340,159.639 273.045,159.789 272.123 C 159.939 271.201,160.310 270.241,160.612 269.990 C 160.914 269.740,161.285 268.694,161.437 267.667 C 161.590 266.640,162.048 265.173,162.457 264.406 C 162.866 263.639,163.204 262.469,163.209 261.806 C 163.214 261.143,163.575 259.813,164.011 258.851 C 164.447 257.890,164.918 256.090,165.058 254.851 C 165.197 253.613,165.580 252.067,165.909 251.416 C 166.238 250.764,166.666 248.812,166.861 247.077 C 167.055 245.342,167.422 243.535,167.677 243.061 C 168.773 241.024,168.756 237.743,167.651 238.076 C 167.513 238.117,165.782 238.252,163.804 238.376 " stroke="none" fill="#5b85a2" fill-rule="evenodd"></path><path id="path3" d="M244.000 219.417 C 242.790 219.695,241.207 219.940,240.482 219.961 C 239.757 219.983,238.318 220.450,237.285 221.000 C 236.252 221.550,235.174 222.000,234.891 222.000 C 234.607 222.000,234.274 222.263,234.150 222.585 C 234.027 222.906,233.547 223.290,233.084 223.437 C 231.819 223.838,228.022 227.588,227.150 229.297 C 226.729 230.124,226.227 230.800,226.035 230.800 C 225.844 230.800,225.566 231.281,225.419 231.868 C 225.271 232.456,224.802 233.380,224.375 233.922 C 223.949 234.464,223.600 235.381,223.600 235.960 C 223.600 236.538,223.261 237.645,222.846 238.418 C 222.414 239.224,221.886 241.527,221.609 243.812 C 221.343 246.006,220.967 249.060,220.773 250.600 C 220.558 252.310,220.574 254.723,220.816 256.800 C 221.033 258.670,221.405 262.077,221.642 264.370 C 221.913 266.991,222.357 269.069,222.837 269.964 C 223.257 270.747,223.600 271.812,223.600 272.331 C 223.600 272.850,223.960 273.731,224.400 274.291 C 224.840 274.850,225.200 275.538,225.200 275.820 C 225.200 276.705,231.300 283.200,232.131 283.200 C 232.319 283.200,232.913 283.545,233.449 283.967 C 233.985 284.389,235.179 284.861,236.103 285.017 C 237.027 285.173,238.195 285.571,238.699 285.902 C 239.855 286.659,249.130 287.050,252.579 286.485 C 255.189 286.058,256.832 286.399,258.226 287.655 C 258.680 288.065,259.333 288.400,259.677 288.400 C 260.021 288.400,260.549 288.698,260.851 289.062 C 261.153 289.426,261.940 289.982,262.600 290.297 C 263.994 290.962,265.626 291.884,267.600 293.120 C 270.032 294.644,271.848 294.093,272.611 291.602 C 272.779 291.052,273.137 290.422,273.407 290.202 C 274.883 288.994,274.918 286.216,273.463 285.760 C 272.988 285.612,272.171 285.155,271.646 284.745 C 271.121 284.335,270.384 284.000,270.008 284.000 C 269.632 284.000,269.001 283.644,268.607 283.208 C 268.213 282.772,267.283 282.302,266.541 282.163 C 264.549 281.789,264.300 280.340,265.950 278.727 C 266.638 278.055,267.200 277.251,267.200 276.940 C 267.200 276.629,267.463 276.274,267.785 276.151 C 268.371 275.925,270.800 271.348,270.800 270.467 C 270.800 270.209,271.160 269.325,271.600 268.504 C 272.040 267.684,272.400 266.584,272.400 266.061 C 272.400 265.537,272.776 263.555,273.235 261.655 C 274.189 257.709,274.256 243.813,273.329 242.188 C 273.074 241.741,272.684 240.059,272.460 238.450 C 272.237 236.840,271.773 235.212,271.427 234.830 C 271.082 234.449,270.797 233.791,270.794 233.369 C 270.791 232.946,270.566 232.219,270.294 231.754 C 270.022 231.289,269.413 230.207,268.941 229.350 C 267.535 226.800,262.803 222.417,260.800 221.809 C 260.250 221.642,259.499 221.242,259.131 220.919 C 258.764 220.597,257.185 220.173,255.624 219.977 C 254.062 219.780,252.440 219.436,252.019 219.210 C 251.011 218.671,246.766 218.780,244.000 219.417 M191.482 219.799 C 189.442 220.095,187.663 220.581,187.250 220.955 C 186.858 221.310,186.390 221.600,186.210 221.600 C 185.438 221.600,181.630 224.485,180.563 225.878 C 177.540 229.825,177.221 230.630,176.549 236.000 C 176.241 238.466,177.400 244.335,178.407 245.408 C 178.843 245.872,179.200 246.420,179.200 246.626 C 179.201 246.832,179.747 247.540,180.415 248.200 C 181.083 248.860,182.015 249.805,182.487 250.300 C 182.958 250.795,183.587 251.200,183.885 251.200 C 184.182 251.200,184.528 251.468,184.654 251.796 C 184.780 252.124,185.584 252.603,186.441 252.860 C 187.299 253.116,188.000 253.487,188.000 253.684 C 188.000 253.880,188.675 254.322,189.500 254.665 C 190.325 255.009,191.090 255.429,191.200 255.600 C 191.310 255.771,192.030 256.207,192.800 256.569 C 193.570 256.932,194.920 257.671,195.800 258.211 C 196.680 258.752,197.940 259.454,198.600 259.771 C 204.586 262.647,206.730 270.851,202.432 274.429 C 201.644 275.084,200.730 275.866,200.400 276.166 C 198.482 277.909,185.613 277.622,183.590 275.791 C 182.117 274.458,178.093 274.495,177.604 275.845 C 177.374 276.480,176.840 277.636,176.416 278.414 C 175.993 279.191,175.776 280.038,175.935 280.295 C 176.363 280.987,179.713 283.184,180.353 283.193 C 180.657 283.197,181.467 283.541,182.153 283.957 C 182.839 284.373,183.987 284.838,184.704 284.990 C 185.421 285.141,186.555 285.538,187.223 285.871 C 188.783 286.650,197.061 287.045,199.800 286.473 C 202.173 285.976,205.558 284.894,206.400 284.363 C 206.730 284.154,207.540 283.726,208.200 283.411 C 209.466 282.808,213.600 279.140,213.600 278.620 C 213.600 278.453,214.050 277.781,214.600 277.127 C 215.150 276.473,215.600 275.659,215.600 275.317 C 215.600 274.974,215.975 274.088,216.433 273.347 C 217.521 271.587,217.462 262.610,216.354 261.341 C 215.998 260.933,215.599 260.140,215.466 259.578 C 215.066 257.887,208.847 252.000,207.460 252.000 C 207.123 252.000,206.723 251.800,206.572 251.555 C 206.421 251.310,205.555 250.751,204.648 250.314 C 202.042 249.056,200.399 248.122,199.672 247.484 C 199.303 247.160,198.550 246.759,198.000 246.592 C 197.450 246.426,196.571 245.955,196.046 245.545 C 195.521 245.135,194.917 244.800,194.702 244.800 C 193.566 244.800,189.254 240.053,188.768 238.266 C 186.603 230.306,195.301 225.501,205.502 229.022 C 208.665 230.114,211.138 230.186,211.600 229.200 C 211.755 228.870,212.313 227.732,212.841 226.670 L 213.800 224.740 212.800 223.965 C 212.250 223.538,211.459 222.930,211.042 222.613 C 210.625 222.297,209.728 221.916,209.048 221.767 C 208.368 221.617,207.401 221.226,206.900 220.897 C 204.839 219.548,197.039 218.992,191.482 219.799 M282.632 220.348 C 282.190 221.063,282.350 284.359,282.796 285.192 C 283.218 285.980,283.589 286.000,297.965 286.000 C 315.116 286.000,313.739 286.394,313.915 281.439 C 314.084 276.713,314.800 277.032,303.515 276.800 L 293.800 276.600 293.697 248.622 C 293.617 226.849,293.484 220.574,293.097 220.328 C 292.417 219.896,282.900 219.914,282.632 220.348 M204.975 221.347 C 205.469 221.670,206.612 222.134,207.515 222.377 C 210.637 223.218,212.404 224.702,211.757 225.941 C 211.453 226.524,211.204 227.319,211.202 227.709 C 211.198 229.135,209.338 229.459,207.358 228.377 C 204.500 226.815,193.727 226.886,191.473 228.481 C 189.065 230.184,186.800 233.848,186.800 236.039 C 186.800 238.632,191.004 244.257,193.821 245.435 C 194.505 245.720,195.282 246.217,195.548 246.538 C 195.815 246.859,196.493 247.237,197.057 247.378 C 197.620 247.520,198.602 247.987,199.240 248.418 C 199.878 248.848,200.933 249.560,201.584 250.000 C 202.235 250.440,203.017 250.800,203.322 250.800 C 203.627 250.800,204.187 251.144,204.567 251.564 C 204.948 251.984,205.725 252.445,206.295 252.588 C 209.066 253.284,214.030 258.367,215.232 261.741 C 217.404 267.833,215.728 275.551,211.335 279.692 C 209.415 281.502,208.241 282.400,207.796 282.400 C 207.527 282.400,206.869 282.745,206.333 283.167 C 205.796 283.589,204.647 284.051,203.779 284.193 C 202.910 284.335,201.444 284.721,200.520 285.051 C 197.366 286.177,185.487 285.014,183.600 283.395 C 183.270 283.111,182.336 282.699,181.525 282.479 C 180.714 282.259,179.814 281.881,179.525 281.639 C 179.236 281.397,178.620 280.885,178.155 280.500 C 177.355 279.838,177.339 279.700,177.865 277.945 C 178.585 275.542,179.758 275.209,182.537 276.618 C 183.602 277.158,184.904 277.600,185.429 277.600 C 185.954 277.600,187.152 277.912,188.092 278.292 C 190.096 279.105,195.953 279.268,196.839 278.536 C 197.147 278.280,198.087 277.943,198.927 277.786 C 200.722 277.451,204.215 274.829,204.615 273.516 C 204.769 273.012,205.185 272.269,205.541 271.865 C 208.310 268.716,201.504 257.661,196.762 257.607 C 196.411 257.603,195.807 257.250,195.421 256.823 C 195.034 256.395,194.197 255.931,193.561 255.791 C 192.925 255.652,192.269 255.301,192.102 255.012 C 191.936 254.723,191.170 254.195,190.400 253.840 C 189.630 253.485,188.280 252.758,187.400 252.225 C 186.520 251.691,185.286 250.958,184.657 250.595 C 176.564 245.922,175.165 232.557,182.082 226.000 C 184.941 223.290,185.438 222.904,186.461 222.598 C 186.977 222.443,187.850 222.027,188.400 221.673 C 190.517 220.311,203.019 220.065,204.975 221.347 M256.926 221.315 C 257.446 221.656,258.576 222.128,259.436 222.364 C 262.970 223.334,270.000 231.295,270.000 234.327 C 270.000 234.704,270.358 235.681,270.796 236.498 C 272.938 240.493,273.127 263.359,271.045 266.600 C 270.763 267.040,270.308 268.300,270.036 269.400 C 269.763 270.500,269.305 271.670,269.017 272.000 C 268.730 272.330,268.359 273.050,268.193 273.600 C 267.875 274.657,265.092 278.239,263.903 279.123 C 262.856 279.901,262.979 281.932,264.100 282.363 C 265.544 282.918,266.954 283.565,267.600 283.970 C 267.930 284.177,269.429 284.920,270.931 285.621 C 273.924 287.019,274.088 287.480,272.466 289.940 C 272.082 290.523,271.587 291.343,271.365 291.761 C 270.718 292.982,269.326 293.302,268.503 292.419 C 268.116 292.004,267.312 291.543,266.716 291.393 C 266.120 291.244,265.415 290.859,265.148 290.538 C 264.882 290.217,264.109 289.693,263.432 289.374 C 262.754 289.055,261.480 288.349,260.600 287.806 C 259.720 287.262,258.325 286.516,257.500 286.148 C 256.675 285.780,256.000 285.345,256.000 285.182 C 256.000 284.505,254.660 284.458,252.889 285.074 C 250.528 285.895,242.271 286.031,240.901 285.272 C 240.407 284.998,238.975 284.583,237.719 284.351 C 236.464 284.119,234.999 283.585,234.464 283.165 C 233.930 282.744,233.245 282.400,232.942 282.400 C 232.640 282.400,232.084 282.040,231.707 281.600 C 231.330 281.160,230.864 280.800,230.672 280.800 C 229.325 280.800,224.821 273.773,224.205 270.712 C 224.060 269.990,223.617 268.410,223.220 267.200 C 221.772 262.783,221.837 243.438,223.310 240.563 C 223.637 239.924,224.040 238.590,224.204 237.600 C 224.368 236.610,224.827 235.387,225.223 234.881 C 225.620 234.376,226.061 233.431,226.204 232.781 C 226.347 232.132,226.635 231.600,226.844 231.600 C 227.054 231.600,227.341 231.285,227.483 230.900 C 228.365 228.507,234.208 223.292,237.000 222.404 C 237.880 222.125,238.845 221.700,239.145 221.461 C 240.645 220.266,255.144 220.147,256.926 221.315 M292.703 248.762 C 292.775 268.236,292.937 276.683,293.246 277.055 C 293.584 277.463,295.879 277.611,303.143 277.693 L 312.600 277.800 312.600 281.000 L 312.600 284.200 298.000 284.200 L 283.400 284.200 283.297 253.000 C 283.240 235.840,283.281 221.569,283.389 221.287 C 283.536 220.902,284.709 220.802,288.093 220.887 L 292.600 221.000 292.703 248.762 M243.200 227.524 C 241.745 227.930,239.186 229.422,237.764 230.694 C 235.904 232.358,232.800 238.496,232.799 240.512 C 232.799 241.221,232.529 243.330,232.200 245.200 C 231.447 249.476,231.444 255.252,232.194 259.400 C 232.512 261.160,232.778 263.413,232.786 264.406 C 232.794 265.423,233.149 266.864,233.600 267.704 C 234.040 268.525,234.400 269.544,234.400 269.968 C 234.400 270.392,234.850 271.273,235.400 271.927 C 235.950 272.581,236.400 273.267,236.400 273.453 C 236.400 274.272,240.310 277.263,241.907 277.667 C 242.846 277.904,243.711 278.256,243.830 278.449 C 244.113 278.907,250.525 278.906,251.020 278.448 C 251.229 278.255,252.120 277.866,253.000 277.585 C 256.966 276.316,260.740 271.078,261.624 265.615 C 261.854 264.194,262.258 262.771,262.521 262.454 C 263.203 261.633,263.187 245.852,262.503 244.200 C 262.230 243.540,261.838 241.830,261.631 240.400 C 261.425 238.970,260.883 237.087,260.428 236.215 C 259.973 235.344,259.600 234.437,259.600 234.200 C 259.600 233.381,255.644 229.560,253.726 228.527 C 251.716 227.444,245.583 226.860,243.200 227.524 M251.206 228.744 C 251.973 229.153,253.046 229.628,253.592 229.800 C 254.732 230.159,257.200 232.034,257.200 232.542 C 257.200 232.730,257.650 233.419,258.200 234.073 C 258.750 234.727,259.200 235.658,259.200 236.142 C 259.200 236.626,259.503 237.455,259.874 237.984 C 262.134 241.211,262.191 263.258,259.951 267.684 C 259.538 268.500,259.200 269.391,259.200 269.663 C 259.200 270.863,256.290 274.398,254.039 275.931 C 251.480 277.675,243.060 277.716,240.716 275.995 C 240.120 275.558,239.461 275.200,239.252 275.200 C 238.571 275.200,235.329 269.841,235.027 268.214 C 234.864 267.341,234.432 266.081,234.066 265.414 C 232.895 263.280,233.100 241.169,234.310 239.015 C 234.799 238.144,235.200 237.047,235.200 236.577 C 235.200 236.108,235.560 235.398,236.000 235.000 C 236.440 234.602,236.800 234.025,236.800 233.718 C 236.800 230.338,247.361 226.692,251.206 228.744 M319.400 277.069 C 317.799 277.516,317.596 278.633,319.000 279.273 C 319.869 279.669,320.000 279.986,320.000 281.691 C 320.000 284.144,320.542 285.200,321.800 285.200 C 323.053 285.200,323.599 284.146,323.603 281.726 C 323.605 279.984,323.726 279.731,324.869 279.081 C 327.161 277.775,322.721 276.142,319.400 277.069 M326.880 277.280 C 326.046 278.114,326.259 283.737,327.166 284.856 L 327.932 285.800 328.866 284.946 C 329.784 284.107,329.813 284.106,330.578 284.854 C 331.560 285.814,332.042 285.661,332.816 284.144 L 333.432 282.936 334.138 284.568 L 334.845 286.200 335.622 285.256 C 336.652 284.006,336.758 278.415,335.771 277.429 C 334.328 275.985,332.000 277.096,332.000 279.229 C 332.000 280.844,331.551 280.700,330.043 278.600 C 328.745 276.793,327.773 276.387,326.880 277.280 M328.536 277.900 C 328.985 278.634,328.962 280.543,328.502 280.698 C 327.931 280.890,327.066 278.926,327.371 278.131 C 327.593 277.552,328.244 277.423,328.536 277.900 M323.400 278.400 C 323.085 278.910,320.788 278.910,320.000 278.400 C 319.571 278.123,320.005 278.011,321.524 278.006 C 322.839 278.002,323.553 278.152,323.400 278.400 M335.267 280.839 C 335.340 282.401,335.265 283.762,335.100 283.863 C 334.935 283.964,334.800 283.408,334.800 282.627 C 334.800 281.640,334.556 281.054,334.000 280.707 C 332.785 279.948,332.905 278.000,334.167 278.000 C 335.087 278.000,335.141 278.140,335.267 280.839 M332.000 283.176 C 332.000 284.090,331.369 284.598,330.992 283.987 C 330.656 283.444,331.048 282.400,331.587 282.400 C 331.814 282.400,332.000 282.749,332.000 283.176 " stroke="none" fill="#fccd9d" fill-rule="evenodd"></path><path id="path4" d="M225.186 111.581 C 221.367 112.296,218.516 118.848,220.882 121.473 C 221.243 121.873,221.662 122.700,221.815 123.311 C 221.967 123.921,222.431 124.603,222.846 124.825 C 223.261 125.047,223.600 125.421,223.600 125.656 C 223.600 125.892,224.005 126.572,224.500 127.168 C 224.995 127.764,225.760 128.753,226.200 129.367 C 226.640 129.980,227.335 130.922,227.744 131.460 C 229.026 133.146,230.399 136.135,230.655 137.800 C 230.791 138.680,231.239 139.961,231.651 140.647 C 232.063 141.333,232.400 142.240,232.400 142.663 C 232.400 143.085,232.756 144.129,233.191 144.983 C 233.626 145.836,234.176 147.120,234.412 147.835 C 234.648 148.551,235.102 149.352,235.420 149.617 C 235.739 149.882,236.002 150.391,236.005 150.749 C 236.011 151.428,237.160 153.069,238.700 154.598 C 239.785 155.676,239.815 156.488,238.848 158.618 C 238.443 159.508,237.983 161.275,237.824 162.546 C 237.665 163.817,237.280 165.469,236.968 166.216 C 236.188 168.082,236.173 177.993,236.948 179.520 C 237.249 180.114,237.625 181.500,237.784 182.600 C 237.942 183.700,238.302 184.870,238.585 185.200 C 238.868 185.530,239.320 186.488,239.590 187.328 C 239.860 188.168,240.332 188.953,240.640 189.071 C 240.948 189.189,241.200 189.501,241.200 189.764 C 241.200 190.285,243.205 192.282,244.789 193.340 C 248.241 195.645,252.190 192.079,252.757 186.144 C 253.061 182.958,253.370 182.238,253.819 183.670 C 253.979 184.181,254.445 185.029,254.855 185.554 C 255.265 186.079,255.600 186.768,255.600 187.085 C 255.600 189.289,266.938 200.022,268.070 198.890 C 268.435 198.525,267.277 196.440,265.958 195.086 C 265.651 194.771,264.950 193.747,264.400 192.811 C 263.850 191.874,263.089 190.773,262.709 190.363 C 262.329 189.954,261.743 189.029,261.406 188.309 C 261.070 187.589,260.350 186.280,259.807 185.400 C 259.264 184.520,258.697 183.460,258.548 183.045 C 258.400 182.629,257.855 181.495,257.339 180.523 C 256.822 179.552,256.400 178.521,256.400 178.233 C 256.400 177.944,256.066 177.279,255.658 176.754 C 255.250 176.229,254.795 175.143,254.647 174.340 C 254.132 171.540,252.290 171.525,250.511 174.306 C 250.126 174.908,249.591 175.580,249.321 175.800 C 249.052 176.020,248.657 176.920,248.443 177.800 C 248.230 178.680,247.780 180.120,247.445 181.000 C 247.110 181.880,246.827 183.620,246.818 184.867 C 246.786 188.897,245.574 189.317,243.932 185.866 C 243.496 184.950,242.886 183.750,242.576 183.200 C 242.266 182.650,242.009 181.648,242.006 180.973 C 242.003 180.298,241.714 178.784,241.365 177.608 C 240.180 173.618,241.173 164.148,243.188 160.215 C 244.720 157.225,244.356 154.157,242.200 151.908 C 241.210 150.874,240.400 149.867,240.400 149.668 C 240.400 149.470,240.057 148.872,239.639 148.340 C 239.220 147.807,238.677 146.658,238.432 145.786 C 238.187 144.914,237.720 143.851,237.394 143.424 C 237.067 142.996,236.800 142.184,236.800 141.618 C 236.800 141.051,236.463 139.960,236.052 139.192 C 235.640 138.424,235.174 137.028,235.015 136.090 C 234.857 135.152,234.482 134.139,234.183 133.840 C 233.884 133.541,233.517 132.780,233.367 132.148 C 233.218 131.517,232.795 130.640,232.427 130.200 C 232.060 129.760,231.234 128.590,230.592 127.600 C 229.950 126.610,228.734 124.953,227.890 123.918 C 223.420 118.436,224.100 114.229,229.054 116.711 C 229.904 117.138,231.140 117.616,231.800 117.774 C 232.460 117.933,233.270 118.297,233.600 118.584 C 233.930 118.871,234.650 119.242,235.200 119.409 C 236.189 119.709,237.435 120.553,239.469 122.300 C 240.045 122.795,240.815 123.200,241.178 123.200 C 241.542 123.200,242.011 123.370,242.220 123.578 C 242.429 123.786,245.114 124.217,248.186 124.535 C 251.258 124.854,253.835 125.304,253.912 125.535 C 253.989 125.766,254.715 126.171,255.526 126.436 C 256.337 126.700,257.429 127.250,257.954 127.658 C 258.479 128.066,259.233 128.400,259.630 128.400 C 260.028 128.400,260.461 128.576,260.594 128.790 C 260.894 129.276,264.969 132.000,265.396 132.000 C 265.568 132.000,266.110 132.405,266.600 132.900 C 267.091 133.395,268.370 134.520,269.443 135.400 C 273.249 138.522,279.598 145.293,280.713 147.421 C 280.995 147.960,281.400 148.400,281.613 148.400 C 281.826 148.400,282.000 148.646,282.000 148.946 C 282.000 149.246,282.399 149.999,282.887 150.619 C 283.933 151.949,284.910 153.628,285.845 155.700 C 286.217 156.525,286.666 157.200,286.843 157.200 C 287.019 157.200,287.279 157.875,287.419 158.700 C 287.560 159.525,288.010 160.677,288.420 161.260 C 288.829 161.843,289.290 162.833,289.443 163.460 C 289.597 164.087,290.055 165.029,290.461 165.554 C 290.867 166.079,291.200 166.819,291.200 167.200 C 291.200 167.581,291.526 168.321,291.924 168.846 C 292.323 169.371,292.870 170.565,293.140 171.500 C 293.411 172.435,293.785 173.200,293.973 173.200 C 294.160 173.200,294.432 173.695,294.576 174.300 C 294.939 175.820,297.333 180.800,297.700 180.800 C 297.865 180.800,298.000 181.064,298.000 181.386 C 298.000 182.077,300.775 185.200,301.389 185.200 C 301.622 185.200,302.455 185.545,303.240 185.966 C 304.026 186.387,305.503 186.856,306.522 187.009 C 307.541 187.162,308.578 187.533,308.827 187.833 C 309.076 188.133,309.922 188.499,310.706 188.646 C 311.491 188.793,312.777 189.333,313.566 189.846 C 315.447 191.068,317.434 192.453,318.381 193.200 C 318.799 193.530,319.730 194.160,320.451 194.600 C 326.298 198.170,326.313 198.800,320.551 198.800 C 317.321 198.800,315.915 198.978,314.474 199.569 C 313.443 199.992,311.932 200.449,311.117 200.584 C 308.777 200.972,307.695 202.749,308.616 204.690 C 310.029 207.668,313.839 212.000,315.045 212.000 C 315.203 212.000,315.618 212.274,315.966 212.610 C 317.059 213.662,319.433 215.083,320.914 215.571 C 321.696 215.830,322.552 216.302,322.817 216.620 C 323.082 216.939,323.601 217.200,323.971 217.200 C 324.342 217.200,325.255 217.650,326.000 218.200 C 326.745 218.750,327.582 219.200,327.858 219.200 C 328.134 219.200,328.504 219.428,328.680 219.707 C 328.999 220.212,329.746 220.780,332.400 222.533 C 334.952 224.219,336.616 224.006,335.135 222.183 C 333.083 219.657,327.042 213.440,325.530 212.296 C 325.019 211.910,324.034 211.145,323.342 210.596 C 322.650 210.048,321.818 209.600,321.491 209.600 C 321.165 209.600,320.664 209.318,320.378 208.974 C 320.092 208.629,319.358 208.088,318.746 207.772 C 318.133 207.455,317.201 206.764,316.672 206.236 L 315.712 205.275 318.156 204.407 C 319.500 203.929,322.220 203.374,324.200 203.174 C 329.866 202.601,332.626 200.960,331.342 198.927 C 330.362 197.374,325.247 192.447,323.879 191.738 C 323.262 191.419,322.418 190.852,322.004 190.479 C 319.141 187.899,310.783 182.800,309.417 182.800 C 309.137 182.800,308.479 182.467,307.954 182.061 C 307.429 181.655,306.490 181.197,305.867 181.045 C 304.569 180.728,302.965 179.052,302.600 177.632 C 302.463 177.099,302.002 176.220,301.575 175.678 C 301.149 175.136,300.800 174.381,300.800 174.000 C 300.800 173.619,300.451 172.864,300.025 172.322 C 299.598 171.780,299.131 170.863,298.986 170.285 C 298.840 169.706,298.474 169.027,298.171 168.776 C 297.869 168.525,297.508 167.714,297.369 166.974 C 297.230 166.234,296.866 165.421,296.561 165.168 C 296.256 164.914,295.808 163.963,295.566 163.053 C 295.324 162.144,294.886 161.130,294.594 160.800 C 294.302 160.470,293.932 159.660,293.773 159.000 C 293.496 157.852,292.859 156.414,291.471 153.800 C 291.120 153.140,290.536 151.925,290.173 151.100 C 289.810 150.275,289.375 149.600,289.205 149.600 C 289.036 149.600,288.673 149.060,288.400 148.400 C 288.127 147.740,287.749 147.200,287.562 147.200 C 287.374 147.200,286.927 146.632,286.568 145.938 C 284.996 142.899,274.108 131.603,270.241 129.000 C 269.010 128.171,268.757 127.999,265.108 125.500 C 263.903 124.675,262.739 124.000,262.521 124.000 C 262.302 124.000,261.813 123.656,261.433 123.236 C 261.052 122.816,260.259 122.352,259.671 122.205 C 259.082 122.058,258.310 121.676,257.955 121.357 C 257.601 121.037,256.341 120.615,255.155 120.418 C 253.970 120.221,252.331 119.776,251.513 119.430 C 250.607 119.046,248.861 118.800,247.044 118.800 C 244.446 118.800,243.908 118.671,242.873 117.800 C 242.219 117.250,241.505 116.800,241.285 116.800 C 241.065 116.800,240.798 116.575,240.691 116.300 C 240.506 115.827,237.588 114.257,233.600 112.485 C 231.639 111.614,227.430 111.162,225.186 111.581 M232.296 113.200 C 233.116 113.640,234.168 114.000,234.633 114.000 C 235.097 114.000,235.887 114.355,236.386 114.788 C 236.886 115.222,237.679 115.696,238.148 115.842 C 238.616 115.988,239.859 116.823,240.908 117.698 C 242.644 119.145,243.114 119.323,246.108 119.667 C 247.919 119.876,249.709 120.213,250.086 120.418 C 250.464 120.622,251.814 120.906,253.086 121.049 C 255.778 121.351,260.999 123.725,263.781 125.913 C 264.401 126.401,265.145 126.800,265.434 126.800 C 265.723 126.800,266.104 127.029,266.280 127.310 C 266.456 127.590,267.050 128.124,267.600 128.497 C 268.150 128.870,269.320 129.718,270.200 130.381 C 271.080 131.044,272.066 131.714,272.390 131.871 C 273.355 132.335,282.084 141.360,283.600 143.460 C 285.518 146.117,285.464 146.045,286.594 147.458 C 287.147 148.150,287.600 148.901,287.600 149.127 C 287.600 149.353,288.025 150.047,288.545 150.669 C 289.065 151.291,289.617 152.205,289.772 152.700 C 289.927 153.195,290.193 153.600,290.364 153.600 C 290.534 153.600,290.899 154.352,291.174 155.271 C 291.449 156.190,292.018 157.583,292.437 158.365 C 292.857 159.148,293.200 160.032,293.200 160.331 C 293.200 160.630,293.560 161.331,294.000 161.891 C 294.440 162.450,294.800 163.309,294.800 163.800 C 294.800 164.291,295.149 165.136,295.575 165.678 C 296.002 166.220,296.479 167.189,296.636 167.832 C 296.793 168.474,297.255 169.429,297.661 169.954 C 298.067 170.479,298.400 171.222,298.400 171.605 C 298.400 171.988,298.661 172.518,298.980 172.783 C 299.298 173.048,299.773 173.925,300.033 174.732 C 301.298 178.646,303.264 180.981,306.600 182.534 C 307.920 183.149,309.630 183.974,310.400 184.367 C 311.170 184.761,312.295 185.203,312.900 185.349 C 313.505 185.496,314.000 185.770,314.000 185.959 C 314.000 186.148,314.540 186.527,315.200 186.800 C 315.860 187.073,316.400 187.451,316.400 187.638 C 316.400 187.826,316.985 188.280,317.700 188.647 C 318.792 189.209,320.597 190.514,324.384 193.483 C 324.723 193.749,325.668 194.489,326.485 195.128 C 328.087 196.380,330.800 199.457,330.800 200.022 C 330.800 200.212,330.035 200.587,329.100 200.854 C 328.165 201.121,327.199 201.491,326.953 201.675 C 326.707 201.860,324.817 202.174,322.753 202.374 C 319.164 202.721,315.376 203.931,314.727 204.937 C 314.429 205.399,317.125 208.399,317.838 208.400 C 318.079 208.400,318.602 208.760,319.000 209.200 C 319.398 209.640,319.911 210.000,320.140 210.000 C 321.593 210.000,330.400 217.348,330.400 218.560 C 330.400 218.912,330.670 219.200,331.000 219.200 C 331.330 219.200,331.600 219.380,331.600 219.600 C 331.600 220.251,330.582 220.058,329.491 219.200 C 328.931 218.760,328.305 218.400,328.099 218.400 C 327.893 218.400,327.413 218.056,327.033 217.636 C 326.652 217.216,325.874 216.755,325.302 216.611 C 324.731 216.468,323.820 216.002,323.278 215.575 C 322.736 215.149,321.981 214.800,321.600 214.800 C 321.219 214.800,320.450 214.440,319.891 214.000 C 319.331 213.560,318.709 213.200,318.507 213.200 C 317.847 213.200,313.442 209.583,311.528 207.468 C 308.614 204.250,308.757 201.904,311.897 201.393 C 312.724 201.259,314.210 200.867,315.200 200.523 C 316.190 200.178,318.907 199.785,321.239 199.648 C 326.649 199.331,327.401 198.858,325.542 196.940 C 324.831 196.206,323.878 195.492,323.424 195.352 C 322.971 195.213,322.330 194.847,322.000 194.540 C 320.749 193.376,318.274 191.600,317.903 191.600 C 317.569 191.600,316.692 190.976,314.497 189.175 C 314.220 188.948,313.320 188.519,312.497 188.222 C 311.673 187.926,310.460 187.395,309.800 187.044 C 309.140 186.692,308.237 186.404,307.794 186.402 C 307.351 186.401,306.361 186.068,305.594 185.662 C 304.827 185.257,303.598 184.808,302.863 184.665 C 301.393 184.379,299.781 182.867,298.702 180.762 C 298.319 180.013,297.850 179.130,297.662 178.800 C 297.300 178.169,296.349 176.128,294.632 172.300 C 294.064 171.035,293.150 169.052,292.600 167.894 C 292.050 166.736,291.600 165.588,291.600 165.343 C 291.600 165.098,291.335 164.678,291.011 164.409 C 290.686 164.140,290.306 163.306,290.165 162.556 C 290.025 161.807,289.596 160.790,289.213 160.297 C 288.830 159.803,288.390 158.716,288.236 157.879 C 288.082 157.042,287.707 156.262,287.402 156.146 C 287.098 156.029,286.738 155.427,286.602 154.808 C 286.466 154.189,286.005 153.366,285.577 152.979 C 285.150 152.593,284.797 152.079,284.794 151.838 C 284.791 151.597,284.155 150.500,283.383 149.400 C 282.610 148.300,281.670 146.950,281.294 146.400 C 280.918 145.850,280.404 145.220,280.150 145.000 C 279.897 144.780,279.052 143.748,278.273 142.706 C 276.786 140.718,270.839 134.800,270.328 134.800 C 270.165 134.800,269.669 134.412,269.227 133.937 C 268.269 132.908,264.606 130.211,263.205 129.503 C 262.659 129.226,261.894 128.685,261.505 128.300 C 261.117 127.915,260.603 127.600,260.363 127.600 C 260.123 127.600,259.469 127.240,258.909 126.800 C 258.350 126.360,257.581 126.000,257.200 126.000 C 256.819 126.000,256.070 125.656,255.536 125.235 C 255.001 124.815,253.527 124.279,252.259 124.045 C 250.991 123.810,249.823 123.538,249.663 123.439 C 249.503 123.340,247.506 123.054,245.226 122.803 C 241.186 122.358,241.025 122.302,238.904 120.573 C 237.706 119.598,236.497 118.800,236.217 118.800 C 235.937 118.800,235.279 118.467,234.754 118.061 C 234.229 117.655,233.260 117.191,232.600 117.030 C 231.940 116.869,231.110 116.476,230.755 116.156 C 227.756 113.455,222.308 116.497,224.136 119.853 C 224.480 120.484,224.988 121.450,225.265 122.000 C 225.542 122.550,226.901 124.376,228.284 126.059 C 229.668 127.741,230.800 129.281,230.800 129.481 C 230.800 129.681,231.250 130.455,231.800 131.200 C 232.350 131.945,232.800 132.911,232.800 133.346 C 232.800 133.781,233.068 134.434,233.397 134.796 C 233.725 135.159,234.170 136.387,234.386 137.525 C 234.602 138.664,235.033 140.001,235.344 140.498 C 235.656 140.994,236.036 142.120,236.189 143.000 C 236.342 143.880,236.701 144.870,236.987 145.200 C 237.272 145.530,237.637 146.250,237.798 146.800 C 238.168 148.065,240.365 151.395,241.970 153.125 C 243.443 154.712,243.608 156.806,242.460 159.356 C 239.679 165.532,238.712 176.329,240.609 180.014 C 240.896 180.571,241.260 181.741,241.416 182.614 C 241.573 183.486,241.931 184.470,242.211 184.800 C 242.491 185.130,242.986 186.044,243.311 186.831 C 244.571 189.884,247.585 189.739,247.609 186.624 C 247.615 185.951,247.975 184.062,248.409 182.427 C 248.844 180.792,249.200 179.105,249.200 178.679 C 249.200 177.561,251.216 174.614,252.480 173.884 L 253.560 173.260 253.823 175.017 C 253.968 175.984,254.336 176.981,254.641 177.234 C 254.945 177.486,255.392 178.437,255.634 179.347 C 255.876 180.256,256.310 181.270,256.597 181.600 C 256.885 181.930,257.415 182.830,257.776 183.600 C 259.027 186.273,260.066 188.123,260.631 188.689 C 260.944 189.001,261.200 189.520,261.200 189.841 C 261.200 190.162,261.454 190.522,261.763 190.641 C 262.073 190.760,262.562 191.430,262.850 192.129 C 263.138 192.828,263.739 193.702,264.187 194.072 C 264.809 194.586,264.890 194.855,264.532 195.219 C 264.080 195.680,258.000 190.042,258.000 189.162 C 258.000 188.980,257.661 188.509,257.247 188.116 C 256.832 187.722,256.371 186.827,256.221 186.128 C 256.071 185.428,255.690 184.641,255.374 184.379 C 255.058 184.117,254.800 183.674,254.800 183.395 C 254.800 180.743,252.517 181.149,252.159 183.864 C 251.241 190.828,249.141 193.569,245.615 192.405 C 243.845 191.821,240.746 188.237,240.233 186.182 C 240.070 185.532,239.686 184.721,239.378 184.379 C 237.291 182.062,237.336 164.392,239.439 160.324 C 240.519 158.236,240.615 155.515,239.648 154.385 C 238.414 152.944,237.153 150.888,235.845 148.186 C 235.210 146.874,234.355 145.134,233.945 144.321 C 233.535 143.507,233.200 142.510,233.200 142.105 C 233.200 141.700,232.854 140.691,232.431 139.861 C 232.008 139.032,231.537 137.599,231.384 136.677 C 231.118 135.079,229.378 131.548,228.718 131.268 C 228.547 131.195,228.135 130.565,227.802 129.868 C 227.470 129.171,226.613 127.960,225.899 127.178 C 224.106 125.216,222.400 122.675,222.400 121.968 C 222.400 121.643,222.112 120.967,221.760 120.464 C 220.469 118.621,221.092 116.196,223.548 113.500 C 224.870 112.048,229.829 111.878,232.296 113.200 M244.489 131.423 C 243.326 132.238,243.341 132.300,245.206 134.368 C 246.083 135.340,246.800 136.443,246.800 136.819 C 246.800 138.463,248.038 138.659,249.251 137.206 C 251.943 133.982,247.881 129.047,244.489 131.423 M248.175 132.439 C 248.831 133.052,248.687 136.600,248.005 136.600 C 247.678 136.600,247.342 136.240,247.257 135.800 C 247.172 135.360,246.675 134.491,246.151 133.869 C 244.539 131.953,246.311 130.701,248.175 132.439 M60.123 220.478 C 58.895 221.072,58.829 221.367,58.371 228.359 C 58.146 231.792,57.795 235.232,57.591 236.005 C 57.089 237.906,56.411 245.819,56.391 250.000 C 56.382 251.870,56.101 255.290,55.766 257.600 C 54.957 263.175,54.502 283.896,55.161 285.127 C 56.151 286.978,64.740 286.116,65.360 284.104 C 65.480 283.717,65.767 275.120,65.998 265.000 C 66.456 244.945,67.099 237.796,68.375 238.584 C 68.551 238.693,68.809 239.648,68.950 240.705 C 69.090 241.763,69.468 243.005,69.790 243.464 C 70.111 243.923,70.493 245.086,70.638 246.049 C 70.783 247.012,71.216 248.340,71.600 249.000 C 71.984 249.660,72.420 251.010,72.569 252.000 C 72.718 252.990,73.097 254.192,73.411 254.672 C 73.725 255.151,74.101 256.321,74.247 257.272 C 74.393 258.222,74.824 259.630,75.204 260.400 C 75.584 261.170,76.017 262.640,76.167 263.667 C 76.317 264.694,76.685 265.738,76.985 265.987 C 77.285 266.236,77.655 267.376,77.807 268.520 C 77.959 269.664,78.425 271.161,78.842 271.847 C 79.259 272.533,79.601 273.613,79.601 274.247 C 79.602 274.881,79.941 275.955,80.355 276.633 C 80.768 277.311,81.231 278.774,81.384 279.885 C 81.554 281.119,82.159 282.661,82.940 283.852 L 84.218 285.800 87.696 285.800 C 92.219 285.800,92.713 285.254,94.580 278.200 C 94.871 277.100,95.399 275.660,95.752 275.000 C 96.106 274.340,96.396 273.281,96.398 272.647 C 96.399 272.013,96.737 270.933,97.149 270.247 C 97.561 269.561,98.007 268.280,98.139 267.400 C 98.272 266.520,98.745 265.087,99.190 264.215 C 99.636 263.344,100.000 262.128,100.000 261.514 C 100.000 260.900,100.360 259.725,100.800 258.904 C 101.240 258.084,101.600 256.957,101.600 256.400 C 101.600 255.843,101.936 254.761,102.346 253.994 C 102.757 253.227,103.298 251.638,103.550 250.462 C 103.802 249.286,104.276 247.941,104.604 247.473 C 104.932 247.005,105.200 246.074,105.200 245.405 C 105.200 244.736,105.552 243.532,105.981 242.730 C 106.411 241.928,106.884 240.356,107.033 239.236 C 107.372 236.682,107.876 236.623,108.199 239.100 C 108.336 240.145,108.709 242.619,109.028 244.597 C 109.348 246.576,109.795 253.596,110.023 260.197 C 110.250 266.799,110.607 273.280,110.815 274.600 C 111.023 275.920,111.195 278.551,111.197 280.446 C 111.202 285.697,111.542 286.000,117.448 286.000 L 122.039 286.000 122.519 284.859 C 123.095 283.493,122.747 269.212,122.045 265.400 C 121.802 264.080,121.422 259.040,121.201 254.200 C 120.979 249.360,120.618 244.590,120.398 243.600 C 120.178 242.610,119.816 238.830,119.593 235.200 C 119.370 231.570,118.920 227.550,118.594 226.268 C 118.267 224.985,118.000 223.333,118.000 222.596 C 118.000 220.214,117.426 219.999,111.071 220.006 C 107.952 220.009,105.210 220.144,104.979 220.306 C 104.180 220.863,102.800 223.497,102.800 224.463 C 102.800 224.995,102.454 226.109,102.031 226.939 C 101.608 227.768,101.144 229.146,101.000 230.000 C 100.856 230.854,100.392 232.232,99.969 233.061 C 99.546 233.891,99.200 234.901,99.200 235.307 C 99.200 235.712,98.856 236.799,98.436 237.722 C 98.016 238.645,97.546 240.077,97.391 240.904 C 97.236 241.732,96.770 243.075,96.355 243.889 C 95.940 244.703,95.599 245.736,95.598 246.185 C 95.596 246.633,95.315 247.536,94.974 248.192 C 94.632 248.847,94.171 250.227,93.950 251.258 C 93.729 252.289,93.200 253.816,92.774 254.651 C 92.348 255.486,92.000 256.695,92.000 257.337 C 92.000 257.980,91.656 259.067,91.235 259.753 C 90.814 260.439,90.343 261.865,90.186 262.922 C 89.760 265.807,87.981 265.598,87.482 262.603 C 87.299 261.505,86.910 260.335,86.618 260.003 C 86.326 259.672,85.962 258.590,85.810 257.600 C 85.657 256.610,85.187 255.119,84.766 254.288 C 84.345 253.456,84.000 252.369,84.000 251.872 C 84.000 251.376,83.642 250.266,83.204 249.407 C 82.766 248.548,82.291 247.205,82.149 246.422 C 82.008 245.640,81.556 244.332,81.146 243.516 C 80.736 242.700,80.400 241.613,80.400 241.101 C 80.400 240.588,80.054 239.491,79.631 238.661 C 79.208 237.832,78.735 236.400,78.580 235.479 C 78.424 234.558,77.960 233.176,77.548 232.408 C 77.137 231.640,76.800 230.557,76.800 230.000 C 76.800 229.443,76.440 228.316,76.000 227.496 C 75.560 226.675,75.199 225.777,75.198 225.501 C 75.192 224.231,74.303 222.012,73.415 221.054 C 72.348 219.902,62.223 219.463,60.123 220.478 M73.319 222.900 C 73.856 224.055,74.394 225.779,74.514 226.731 C 74.634 227.683,74.998 228.763,75.323 229.131 C 75.647 229.499,76.040 230.610,76.195 231.600 C 76.350 232.590,76.734 233.806,77.049 234.302 C 77.364 234.799,77.798 236.136,78.014 237.275 C 78.230 238.413,78.651 239.627,78.950 239.972 C 79.249 240.317,79.617 241.410,79.767 242.400 C 79.917 243.390,80.277 244.562,80.566 245.004 C 80.856 245.446,81.298 246.768,81.550 247.942 C 81.802 249.116,82.276 250.459,82.604 250.927 C 82.932 251.395,83.200 252.240,83.200 252.804 C 83.200 253.369,83.564 254.544,84.010 255.415 C 84.455 256.287,84.928 257.720,85.061 258.600 C 85.193 259.480,85.639 260.761,86.051 261.447 C 86.463 262.133,86.800 263.141,86.800 263.688 C 86.800 268.386,90.365 268.414,90.992 263.720 C 91.144 262.576,91.515 261.436,91.815 261.187 C 92.115 260.938,92.481 259.894,92.628 258.867 C 92.774 257.840,93.210 256.460,93.596 255.800 C 93.982 255.140,94.415 253.822,94.558 252.872 C 94.701 251.921,95.075 250.751,95.389 250.272 C 95.703 249.792,96.083 248.590,96.233 247.600 C 96.383 246.610,96.751 245.517,97.050 245.172 C 97.349 244.827,97.770 243.613,97.986 242.475 C 98.202 241.336,98.636 239.999,98.951 239.502 C 99.266 239.006,99.650 237.790,99.805 236.800 C 99.960 235.810,100.336 234.717,100.640 234.372 C 100.944 234.027,101.370 232.813,101.586 231.675 C 101.802 230.536,102.233 229.199,102.544 228.702 C 102.856 228.206,103.229 227.123,103.374 226.295 C 103.519 225.467,104.089 223.892,104.640 222.795 L 105.642 220.800 111.213 220.800 C 117.675 220.800,117.005 220.199,117.372 226.321 C 117.494 228.367,117.802 230.429,118.055 230.903 C 118.309 231.376,118.666 234.922,118.850 238.782 C 119.033 242.642,119.452 247.420,119.779 249.400 C 120.107 251.380,120.557 257.680,120.779 263.400 C 121.001 269.120,121.377 275.356,121.616 277.257 C 121.855 279.158,121.994 281.498,121.925 282.457 L 121.800 284.200 117.232 284.314 C 111.674 284.452,112.175 285.287,112.068 275.703 C 112.020 271.356,111.717 265.730,111.395 263.200 C 111.073 260.670,110.641 254.542,110.434 249.582 C 110.227 244.622,109.876 240.122,109.654 239.582 C 109.432 239.042,109.145 237.943,109.015 237.140 C 108.486 233.870,106.986 234.196,106.415 237.706 C 106.214 238.941,105.786 240.368,105.463 240.876 C 105.141 241.384,104.746 242.609,104.587 243.598 C 104.427 244.587,103.960 246.024,103.548 246.792 C 103.137 247.560,102.800 248.710,102.800 249.347 C 102.800 249.984,102.463 251.067,102.051 251.753 C 101.639 252.439,101.193 253.720,101.061 254.600 C 100.928 255.480,100.455 256.913,100.010 257.785 C 99.564 258.656,99.200 259.895,99.200 260.537 C 99.200 261.180,98.863 262.267,98.451 262.953 C 98.039 263.639,97.585 264.978,97.442 265.928 C 97.299 266.879,96.925 268.049,96.611 268.528 C 96.297 269.008,95.914 270.210,95.759 271.200 C 95.605 272.190,95.146 273.627,94.739 274.394 C 94.333 275.161,93.999 276.241,93.998 276.794 C 93.996 277.347,93.704 278.340,93.349 279.000 C 92.994 279.660,92.496 281.100,92.242 282.200 L 91.781 284.200 87.807 284.200 L 83.833 284.200 83.567 282.902 C 83.421 282.189,83.107 281.370,82.869 281.083 C 82.630 280.795,82.314 279.759,82.167 278.780 C 82.019 277.801,81.584 276.460,81.200 275.800 C 80.816 275.140,80.380 273.790,80.231 272.800 C 80.082 271.810,79.703 270.608,79.389 270.128 C 79.075 269.649,78.703 268.479,78.562 267.528 C 78.421 266.578,78.050 265.391,77.737 264.891 C 77.425 264.391,76.981 262.951,76.750 261.691 C 76.519 260.431,76.077 259.117,75.767 258.771 C 75.457 258.425,75.090 257.255,74.950 256.171 C 74.811 255.087,74.360 253.639,73.948 252.953 C 73.537 252.267,73.200 251.225,73.200 250.637 C 73.200 250.049,72.862 248.900,72.449 248.084 C 72.036 247.268,71.507 245.696,71.273 244.592 C 71.039 243.487,70.568 242.047,70.226 241.392 C 69.885 240.736,69.604 239.822,69.602 239.360 C 69.595 236.875,66.879 233.783,66.214 235.502 C 66.066 235.886,65.780 242.140,65.580 249.400 C 65.380 256.660,65.019 264.580,64.778 267.000 C 64.536 269.420,64.217 274.280,64.069 277.800 L 63.800 284.200 59.859 284.400 C 56.612 284.565,55.869 284.494,55.637 284.000 C 55.262 283.204,55.805 269.745,56.363 265.973 C 56.606 264.338,56.968 258.590,57.168 253.200 C 57.376 247.602,57.732 242.886,57.999 242.200 C 58.256 241.540,58.639 237.940,58.850 234.200 C 59.061 230.460,59.497 226.512,59.817 225.427 C 60.138 224.342,60.400 222.962,60.400 222.361 C 60.400 220.904,60.551 220.868,66.871 220.832 L 72.342 220.800 73.319 222.900 M128.223 237.689 C 127.412 238.846,127.439 239.531,128.355 241.033 C 128.769 241.712,129.241 243.061,129.405 244.031 C 129.569 245.002,130.040 246.424,130.452 247.192 C 130.863 247.960,131.200 249.048,131.200 249.609 C 131.200 250.171,131.535 251.289,131.945 252.093 C 132.355 252.896,132.814 254.330,132.965 255.277 C 133.117 256.225,133.497 257.392,133.811 257.872 C 134.125 258.351,134.501 259.521,134.647 260.472 C 134.793 261.422,135.223 262.830,135.602 263.600 C 135.981 264.370,136.408 265.640,136.549 266.422 C 136.691 267.205,137.166 268.548,137.604 269.407 C 138.042 270.266,138.400 271.521,138.400 272.196 C 138.400 272.870,138.675 273.814,139.010 274.293 C 139.346 274.773,139.813 276.204,140.048 277.474 C 140.282 278.745,140.748 280.313,141.083 280.960 C 143.139 284.936,141.006 291.441,137.055 293.244 C 136.585 293.459,135.750 293.894,135.200 294.211 C 134.533 294.596,132.995 294.790,130.580 294.794 C 126.352 294.801,126.000 295.023,126.000 297.680 C 126.000 303.074,134.367 304.532,141.840 300.441 C 144.622 298.918,150.000 293.956,150.000 292.912 C 150.000 292.630,150.162 292.400,150.360 292.400 C 150.559 292.400,151.088 291.815,151.538 291.100 C 151.987 290.385,152.886 289.056,153.535 288.147 C 154.185 287.239,154.850 286.069,155.013 285.547 C 155.176 285.026,155.645 284.171,156.055 283.646 C 156.465 283.121,156.800 282.381,156.800 282.000 C 156.800 281.619,157.137 280.879,157.548 280.354 C 157.959 279.829,158.433 278.770,158.600 278.000 C 158.767 277.230,159.241 276.171,159.652 275.646 C 160.063 275.121,160.400 274.243,160.400 273.693 C 160.400 273.144,160.738 272.133,161.151 271.447 C 161.565 270.761,162.028 269.480,162.181 268.600 C 162.334 267.720,162.719 266.596,163.037 266.103 C 163.355 265.610,163.723 264.350,163.855 263.303 C 163.987 262.256,164.359 260.979,164.680 260.465 C 165.001 259.951,165.449 258.331,165.676 256.865 C 165.903 255.399,166.335 253.721,166.637 253.134 C 166.938 252.548,167.295 251.018,167.429 249.734 C 167.564 248.451,168.017 246.364,168.437 245.098 C 169.296 242.508,169.459 238.019,168.720 237.280 C 167.871 236.431,161.237 236.658,159.711 237.589 C 158.267 238.469,158.146 238.847,157.818 243.467 C 157.691 245.264,157.327 247.355,157.010 248.115 C 156.693 248.874,156.310 250.734,156.160 252.248 C 156.011 253.761,155.577 255.810,155.196 256.800 C 154.816 257.790,154.374 259.667,154.215 260.972 C 154.055 262.276,153.689 263.716,153.401 264.172 C 153.113 264.627,152.750 265.810,152.594 266.800 C 152.438 267.790,151.994 269.320,151.606 270.200 C 151.218 271.080,150.761 272.520,150.590 273.400 L 150.279 275.000 149.903 273.600 C 149.697 272.830,149.184 271.239,148.764 270.064 C 148.344 268.890,148.000 267.443,148.000 266.849 C 148.000 266.255,147.648 265.078,147.217 264.233 C 146.786 263.388,146.310 261.865,146.160 260.848 C 146.009 259.832,145.552 258.373,145.143 257.606 C 144.734 256.839,144.400 255.752,144.400 255.191 C 144.400 254.629,144.048 253.478,143.617 252.633 C 143.186 251.788,142.710 250.265,142.560 249.248 C 142.409 248.232,141.952 246.773,141.543 246.006 C 141.134 245.239,140.800 244.139,140.800 243.561 C 140.800 242.130,138.592 237.359,137.786 237.050 C 135.883 236.320,128.853 236.790,128.223 237.689 M168.316 238.500 C 168.781 239.061,168.412 241.695,167.677 243.061 C 167.422 243.535,167.055 245.342,166.861 247.077 C 166.666 248.812,166.238 250.764,165.909 251.416 C 165.580 252.067,165.197 253.613,165.058 254.851 C 164.918 256.090,164.447 257.890,164.011 258.851 C 163.575 259.813,163.214 261.143,163.209 261.806 C 163.204 262.469,162.866 263.639,162.457 264.406 C 162.048 265.173,161.590 266.640,161.437 267.667 C 161.285 268.694,160.914 269.740,160.612 269.990 C 160.310 270.241,159.939 271.201,159.789 272.123 C 159.639 273.045,159.194 274.340,158.801 275.000 C 158.408 275.660,157.965 276.773,157.817 277.472 C 157.670 278.172,157.302 278.950,157.000 279.200 C 156.698 279.450,156.329 280.228,156.179 280.928 C 156.029 281.627,155.568 282.522,155.153 282.916 C 154.739 283.309,154.400 283.949,154.400 284.338 C 154.400 284.727,153.950 285.655,153.400 286.400 C 152.850 287.145,152.400 287.930,152.400 288.144 C 152.400 288.358,152.133 288.818,151.807 289.166 C 151.480 289.515,150.290 290.970,149.161 292.400 C 146.019 296.381,142.001 299.707,139.686 300.243 C 139.089 300.382,138.171 300.764,137.646 301.092 C 134.433 303.103,127.668 301.163,127.540 298.194 C 127.507 297.427,127.462 296.575,127.440 296.300 C 127.411 295.943,128.602 295.731,131.600 295.559 C 136.714 295.266,137.900 294.626,141.551 290.194 C 142.891 288.567,143.017 281.320,141.741 279.291 C 141.427 278.791,140.982 277.367,140.753 276.128 C 140.524 274.889,140.090 273.498,139.788 273.037 C 139.487 272.577,139.120 271.390,138.973 270.400 C 138.826 269.410,138.456 268.200,138.151 267.711 C 137.846 267.223,137.393 265.874,137.144 264.715 C 136.896 263.556,136.456 262.246,136.166 261.804 C 135.877 261.362,135.518 260.190,135.369 259.200 C 135.220 258.210,134.761 256.839,134.349 256.153 C 133.937 255.467,133.600 254.384,133.600 253.747 C 133.600 253.110,133.266 251.961,132.859 251.194 C 132.451 250.427,131.993 249.127,131.842 248.306 C 131.690 247.484,131.217 246.044,130.792 245.106 C 130.366 244.167,130.014 242.971,130.009 242.447 C 130.004 241.923,129.625 240.888,129.167 240.147 C 128.093 238.408,128.282 238.341,133.809 238.486 L 138.166 238.600 138.478 240.107 C 138.650 240.935,139.045 242.015,139.357 242.507 C 139.668 242.998,140.044 244.154,140.193 245.077 C 140.341 245.999,140.808 247.432,141.231 248.261 C 141.654 249.091,142.000 250.319,142.000 250.991 C 142.000 251.662,142.337 252.840,142.748 253.608 C 143.160 254.376,143.627 255.813,143.787 256.802 C 143.946 257.791,144.325 258.992,144.629 259.472 C 144.933 259.951,145.301 261.121,145.447 262.072 C 145.593 263.022,146.022 264.430,146.401 265.200 C 146.780 265.970,147.215 267.575,147.368 268.767 C 147.520 269.959,147.905 271.556,148.223 272.316 C 148.540 273.076,148.800 273.996,148.800 274.360 C 148.800 277.046,150.928 277.061,151.357 274.378 C 151.498 273.494,151.971 272.105,152.407 271.291 C 152.843 270.478,153.200 269.264,153.200 268.595 C 153.200 267.926,153.484 266.972,153.832 266.476 C 154.180 265.979,154.633 264.364,154.840 262.887 C 155.046 261.409,155.477 259.643,155.797 258.962 C 156.117 258.282,156.490 256.662,156.626 255.362 C 156.762 254.063,157.217 251.964,157.637 250.698 C 158.057 249.433,158.401 247.723,158.402 246.898 C 158.413 240.259,159.434 238.648,163.804 238.376 C 165.782 238.252,167.513 238.117,167.651 238.076 C 167.789 238.034,168.088 238.225,168.316 238.500 " stroke="none" fill="#bebcb8" fill-rule="evenodd"></path></g></svg>