<?xml version="1.0" encoding="UTF-8"?>
<svg version="1.1" xmlns="http://www.w3.org/2000/svg" width="306" height="165">
<path d="M0 0 C10.48921862 9.25219223 18.62308235 20.92137841 19.96191406 35.15527344 C20.37951396 49.38241176 16.46919831 59.98259504 7.59082031 71.20996094 C7.11902344 71.83386719 6.64722656 72.45777344 6.16113281 73.10058594 C-17.73294892 103.06943421 -64.49894899 112.89429196 -100.40917969 117.20996094 C-149.92497622 122.67476018 -211.79173263 116.64641556 -252.26464844 84.86621094 C-264.23792492 74.94796496 -275.86319219 63.23604297 -278.40917969 47.20996094 C-279.91674174 30.15566525 -274.57084447 17.61876668 -263.78417969 4.64746094 C-237.74648286 -23.27846581 -195.95513652 -33.62493106 -159.40917969 -37.79003906 C-158.6927832 -37.88430176 -157.97638672 -37.97856445 -157.23828125 -38.07568359 C-104.48649071 -44.40635146 -41.41015002 -35.31683778 0 0 Z M-146.40917969 -16.79003906 C-147.0727715 -14.09505895 -147.63490917 -11.44543229 -148.13574219 -8.71972656 C-148.28828461 -7.92349884 -148.44082703 -7.12727112 -148.59799194 -6.30691528 C-149.08401587 -3.76094639 -149.55920866 -1.21309072 -150.03417969 1.33496094 C-150.36159394 3.06035638 -150.6897102 4.78561876 -151.01855469 6.51074219 C-151.82358687 10.74231361 -152.61891045 14.97560869 -153.40917969 19.20996094 C-154.48178221 17.60105715 -155.54740113 15.98675198 -156.56542969 14.34277344 C-160.80377006 8.00990439 -166.10310834 4.6265878 -173.47216797 2.65917969 C-177.61214071 2.0259669 -181.68448949 2.08752558 -185.86621094 2.11230469 C-187.22065559 2.11442711 -187.22065559 2.11442711 -188.60246277 2.11659241 C-191.47556932 2.1221727 -194.34859684 2.13472159 -197.22167969 2.14746094 C-199.17415252 2.15247848 -201.12662657 2.15704095 -203.07910156 2.16113281 C-207.85582454 2.17213569 -212.63248873 2.18938676 -217.40917969 2.20996094 C-220.84166705 10.11048196 -222.22186744 18.44316123 -223.83496094 26.85449219 C-224.14909271 28.47259901 -224.46348394 30.09065548 -224.77812195 31.70866394 C-225.43259604 35.08406522 -226.08146313 38.46048823 -226.72680664 41.83764648 C-227.55534899 46.1691232 -228.40174742 50.49689956 -229.25275898 54.8240099 C-229.90553609 58.15688329 -230.54699203 61.49186032 -231.18520164 64.82755089 C-231.49266143 66.42513985 -231.80410848 68.02196676 -232.11959267 69.61799049 C-232.55778126 71.8416423 -232.98019656 74.06773455 -233.39868164 76.29516602 C-233.64278275 77.5612117 -233.88688385 78.82725739 -234.13838196 80.13166809 C-234.7475271 83.38004336 -234.7475271 83.38004336 -232.40917969 86.20996094 C-230.28223304 86.62523218 -230.28223304 86.62523218 -227.83886719 86.50292969 C-226.94296875 86.49326172 -226.04707031 86.48359375 -225.12402344 86.47363281 C-224.186875 86.44849609 -223.24972656 86.42335938 -222.28417969 86.39746094 C-221.33929688 86.38392578 -220.39441406 86.37039062 -219.42089844 86.35644531 C-217.0830919 86.321024 -214.74641731 86.27163365 -212.40917969 86.20996094 C-210.55202025 82.05153871 -209.61927918 77.84990465 -208.78417969 73.39746094 C-208.65011719 72.70458984 -208.51605469 72.01171875 -208.37792969 71.29785156 C-208.0505968 69.60273484 -207.72927375 67.90645948 -207.40917969 66.20996094 C-206.81081299 66.20061523 -206.21244629 66.19126953 -205.59594727 66.18164062 C-183.09211772 65.95536475 -183.09211772 65.95536475 -164.43261719 54.42871094 C-162.61227391 52.43265885 -160.97731055 50.40734177 -159.40917969 48.20996094 C-159.64314453 49.92505859 -159.64314453 49.92505859 -159.88183594 51.67480469 C-160.07874028 53.16565186 -160.27533913 54.65653941 -160.47167969 56.14746094 C-160.57544922 56.90220703 -160.67921875 57.65695313 -160.78613281 58.43457031 C-161.03583606 60.35470222 -161.22708249 62.28224237 -161.40917969 64.20996094 C-160.40358175 65.43780902 -160.40358175 65.43780902 -158.36791992 65.32348633 C-157.49337158 65.31824951 -156.61882324 65.3130127 -155.71777344 65.30761719 C-154.77353516 65.30439453 -153.82929688 65.30117187 -152.85644531 65.29785156 C-151.36661133 65.2852832 -151.36661133 65.2852832 -149.84667969 65.27246094 C-148.84958984 65.26794922 -147.8525 65.2634375 -146.82519531 65.25878906 C-144.3531312 65.246961 -141.88118451 65.23047943 -139.40917969 65.20996094 C-137.1924549 56.74583144 -135.31915222 48.23323476 -133.61938477 39.65209961 C-133.21578626 37.61775504 -132.8058952 35.58474257 -132.39550781 33.55175781 C-132.13833984 32.26205078 -131.88117188 30.97234375 -131.61621094 29.64355469 C-131.26780151 27.89643188 -131.26780151 27.89643188 -130.91235352 26.11401367 C-130.32381849 23.20852166 -130.32381849 23.20852166 -130.40917969 20.20996094 C-128.13804165 20.35096951 -125.86727244 20.49792849 -123.59667969 20.64746094 C-122.33210938 20.72867188 -121.06753906 20.80988281 -119.76464844 20.89355469 C-116.40917969 21.20996094 -116.40917969 21.20996094 -113.40917969 22.20996094 C-113.91314892 30.71049695 -115.18165455 38.82910883 -116.97167969 47.14746094 C-117.43579678 49.32229061 -117.89560224 51.49804595 -118.35058594 53.67480469 C-118.6552478 55.09200806 -118.6552478 55.09200806 -118.96606445 56.5378418 C-119.40168303 59.16475382 -119.56339559 61.55317508 -119.40917969 64.20996094 C-118.40358175 65.43780902 -118.40358175 65.43780902 -116.36791992 65.32348633 C-115.49337158 65.31824951 -114.61882324 65.3130127 -113.71777344 65.30761719 C-112.77353516 65.30439453 -111.82929688 65.30117187 -110.85644531 65.29785156 C-109.36661133 65.2852832 -109.36661133 65.2852832 -107.84667969 65.27246094 C-106.84958984 65.26794922 -105.8525 65.2634375 -104.82519531 65.25878906 C-102.3531312 65.246961 -99.88118451 65.23047943 -97.40917969 65.20996094 C-97.62574219 66.15097656 -97.84230469 67.09199219 -98.06542969 68.06152344 C-98.48308594 69.929375 -98.48308594 69.929375 -98.90917969 71.83496094 C-99.18761719 73.06472656 -99.46605469 74.29449219 -99.75292969 75.56152344 C-100.35234107 78.89396528 -100.611788 81.83653259 -100.40917969 85.20996094 C-98.09974257 87.51939805 -92.57269787 86.4428872 -89.47167969 86.45996094 C-88.53904297 86.48058594 -87.60640625 86.50121094 -86.64550781 86.52246094 C-85.30842773 86.53019531 -85.30842773 86.53019531 -83.94433594 86.53808594 C-83.12328369 86.54743164 -82.30223145 86.55677734 -81.45629883 86.56640625 C-80.78074951 86.4487793 -80.1052002 86.33115234 -79.40917969 86.20996094 C-77.12752836 82.78748395 -76.52313372 79.66864328 -75.78417969 75.70996094 C-75.65011719 75.03320312 -75.51605469 74.35644531 -75.37792969 73.65917969 C-74.82381141 70.79246576 -74.40917969 68.13664808 -74.40917969 65.20996094 C-73.81081299 65.2309082 -73.21244629 65.25185547 -72.59594727 65.2734375 C-51.02528937 66.03911924 -51.02528937 66.03911924 -32.34277344 56.19433594 C-24.60366403 48.2519772 -20.54555149 38.43425553 -20.15917969 27.39746094 C-20.26999665 19.92839738 -22.54570766 14.27031193 -27.60058594 8.74902344 C-34.88923388 2.54658869 -43.75117121 2.05829284 -52.86621094 2.11230469 C-54.22065559 2.11442711 -54.22065559 2.11442711 -55.60246277 2.11659241 C-58.47556932 2.1221727 -61.34859684 2.13472159 -64.22167969 2.14746094 C-66.17415252 2.15247848 -68.12662657 2.15704095 -70.07910156 2.16113281 C-74.85582454 2.17213569 -79.63248873 2.18938676 -84.40917969 2.20996094 C-85.82637707 5.65208625 -86.85038817 8.85929207 -87.53417969 12.52246094 C-87.70175781 13.40546875 -87.86933594 14.28847656 -88.04199219 15.19824219 C-88.16316406 15.86210938 -88.28433594 16.52597656 -88.40917969 17.20996094 C-88.96605469 15.63214844 -88.96605469 15.63214844 -89.53417969 14.02246094 C-91.65011522 9.19578771 -94.72538333 6.55185912 -99.35449219 4.23730469 C-107.93211388 1.02443245 -117.4052946 1.96036659 -126.40917969 2.20996094 C-126.18101562 1.10136719 -125.95285156 -0.00722656 -125.71777344 -1.14941406 C-125.42695918 -2.61286644 -125.13661942 -4.07641317 -124.84667969 -5.54003906 C-124.69521484 -6.26964844 -124.54375 -6.99925781 -124.38769531 -7.75097656 C-123.66684007 -11.43907316 -123.23347247 -14.20958536 -124.40917969 -17.79003906 C-126.64889448 -20.02975386 -131.83815457 -18.97535739 -134.84667969 -18.97753906 C-135.73162109 -18.98978516 -136.6165625 -19.00203125 -137.52832031 -19.01464844 C-138.37458984 -19.01658203 -139.22085938 -19.01851562 -140.09277344 -19.02050781 C-140.87193115 -19.0246167 -141.65108887 -19.02872559 -142.45385742 -19.03295898 C-144.64477941 -18.96412926 -144.64477941 -18.96412926 -146.40917969 -16.79003906 Z " fill="#767BB2" transform="translate(282.4091796875,42.7900390625)"/>
<path d="M0 0 C5.04961009 -0.07498279 10.09888564 -0.12898919 15.14892578 -0.16479492 C16.86154842 -0.1797446 18.57413371 -0.20011186 20.28662109 -0.22631836 C46.05864286 -0.61041337 46.05864286 -0.61041337 55.37890625 7.98828125 C60.88771229 14.82451043 60.8123045 21.57576348 60 30 C57.73418952 40.07453588 52.49805277 47.82821048 44.08203125 53.75 C37.7838767 57.53125602 30.97369978 59.01862048 23.69921875 59.31640625 C22.72275391 59.35830078 21.74628906 59.40019531 20.74023438 59.44335938 C19.73283203 59.48267578 18.72542969 59.52199219 17.6875 59.5625 C16.66076172 59.60568359 15.63402344 59.64886719 14.57617188 59.69335938 C12.05092511 59.79906738 9.52547933 59.90000208 7 60 C5.68 66.6 4.36 73.2 3 80 C-2.94 80 -8.88 80 -15 80 C-14.34928466 72.21546612 -13.10195471 64.6744146 -11.6015625 57.01171875 C-11.36593597 55.79152542 -11.13030945 54.57133209 -10.88754272 53.31416321 C-10.39037716 50.74459177 -9.89104107 48.17543943 -9.38964844 45.60668945 C-8.62954415 41.71079095 -7.87670965 37.8135416 -7.125 33.91601562 C-6.63845109 31.40616655 -6.15148544 28.89639823 -5.6640625 26.38671875 C-5.44207184 25.23838058 -5.22008118 24.09004242 -4.99136353 22.90690613 C-3.48951873 15.23103147 -1.80417645 7.61037544 0 0 Z M15 14 C14.15902586 18.22768438 13.32855975 22.45736656 12.5 26.6875 C12.26152344 27.88568359 12.02304688 29.08386719 11.77734375 30.31835938 C11.55175781 31.47529297 11.32617188 32.63222656 11.09375 33.82421875 C10.88427734 34.88729248 10.67480469 35.95036621 10.45898438 37.0456543 C10.03747195 39.75880423 9.91143497 42.26112659 10 45 C12.83439137 45.10901505 15.66450203 45.18777904 18.5 45.25 C19.68722656 45.30027344 19.68722656 45.30027344 20.8984375 45.3515625 C26.67451808 45.44625235 31.26532469 44.45788538 36 41 C40.73436944 35.1188171 41.34151858 28.85278744 41.29296875 21.5703125 C41.18971867 18.81666217 41.18971867 18.81666217 39.125 16.375 C35.93132243 14.30850275 34.20726073 13.87843506 30.4296875 13.90234375 C29.08583984 13.90717773 29.08583984 13.90717773 27.71484375 13.91210938 C26.77769531 13.92048828 25.84054688 13.92886719 24.875 13.9375 C23.45767578 13.94426758 23.45767578 13.94426758 22.01171875 13.95117188 C19.67441613 13.96297643 17.33723939 13.97944241 15 14 Z " fill="#020203" transform="translate(66,47)"/>
<path d="M0 0 C0.79375031 -0.00570007 1.58750061 -0.01140015 2.40530396 -0.01727295 C4.09505881 -0.02674608 5.78483234 -0.03326606 7.47460938 -0.03710938 C10.02508552 -0.04670485 12.5747171 -0.07765753 15.125 -0.109375 C26.03551015 -0.18091274 36.40594373 -0.00113531 45.66015625 6.53125 C50.52289627 11.82705847 51.87916111 16.53332323 51.6953125 23.515625 C51.68105225 24.26400635 51.66679199 25.0123877 51.65209961 25.78344727 C51.26256629 36.03671877 47.71761771 42.60540254 40.62109375 50.00390625 C31.26155775 58.48928269 20.8212747 59.53785367 8.6328125 59.328125 C7.62412109 59.31910156 6.61542969 59.31007812 5.57617188 59.30078125 C3.11562793 59.27745856 0.65560354 59.24473263 -1.8046875 59.203125 C-1.92585938 60.04875 -2.04703125 60.894375 -2.171875 61.765625 C-2.33945313 62.9 -2.50703125 64.034375 -2.6796875 65.203125 C-2.84210938 66.316875 -3.00453125 67.430625 -3.171875 68.578125 C-3.85512862 72.49207167 -4.84106034 76.34861637 -5.8046875 80.203125 C-11.7446875 80.203125 -17.6846875 80.203125 -23.8046875 80.203125 C-22.5537431 71.03618415 -21.08083557 61.9745574 -19.2734375 52.90234375 C-19.03685425 51.70051956 -18.800271 50.49869537 -18.55651855 49.26045227 C-18.06069912 46.74515817 -17.56316456 44.23020159 -17.06396484 41.71557617 C-16.30324823 37.8833745 -15.54764916 34.05019139 -14.79296875 30.21679688 C-14.30758675 27.75775424 -13.82191958 25.29876786 -13.3359375 22.83984375 C-13.11192261 21.70528244 -12.88790771 20.57072113 -12.65710449 19.40177917 C-8.81234552 0.0486596 -8.81234552 0.0486596 0 0 Z M7.1953125 14.203125 C5.17780844 19.63766297 4.12923458 25.1491651 3.0703125 30.828125 C2.79767578 32.23964844 2.79767578 32.23964844 2.51953125 33.6796875 C1.77224894 37.63522693 1.1953125 41.15743367 1.1953125 45.203125 C4.19686623 45.33928419 7.1921335 45.4377648 10.1953125 45.515625 C11.03449219 45.55751953 11.87367188 45.59941406 12.73828125 45.64257812 C19.05226731 45.7649422 23.39853398 44.41452909 28.1953125 40.203125 C32.3766559 34.60686395 33.47655885 28.10447777 33.1953125 21.203125 C31.98283884 18.07621925 31.20155837 16.8131582 28.36621094 15.09423828 C25.94545713 14.10056404 24.25508171 13.97258758 21.6484375 14.0078125 C20.80410156 14.01425781 19.95976562 14.02070312 19.08984375 14.02734375 C17.78080078 14.05248047 17.78080078 14.05248047 16.4453125 14.078125 C15.11306641 14.09166016 15.11306641 14.09166016 13.75390625 14.10546875 C11.56743192 14.12897923 9.38151156 14.16184001 7.1953125 14.203125 Z " fill="#020203" transform="translate(207.8046875,46.796875)"/>
<path d="M0 0 C0.74886475 0.00523682 1.49772949 0.01047363 2.26928711 0.01586914 C3.36188843 0.01961548 3.36188843 0.01961548 4.4765625 0.0234375 C5.40718506 0.0325415 6.33780762 0.04164551 7.29663086 0.05102539 C11.72069336 0.08196289 11.72069336 0.08196289 16.23413086 0.11352539 C14.91413086 6.71352539 13.59413086 13.31352539 12.23413086 20.11352539 C15.12163086 20.05165039 18.00913086 19.98977539 20.98413086 19.92602539 C29.95878313 19.85925656 38.53452448 20.19976943 46.35913086 25.05102539 C50.28440531 29.36882728 50.62533469 32.96601598 50.51879883 38.63598633 C49.97598951 45.26701198 48.62266134 51.7564655 47.29833984 58.26928711 C46.79104119 60.76603583 46.29950204 63.26551712 45.81030273 65.76586914 C45.49544363 67.35328673 45.17972092 68.94053332 44.86303711 70.52758789 C44.71508194 71.27537506 44.56712677 72.02316223 44.41468811 72.79360962 C43.35102672 77.99662953 43.35102672 77.99662953 42.23413086 79.11352539 C40.89145673 79.19984413 39.54438764 79.22059012 38.19897461 79.21118164 C37.39008789 79.20795898 36.58120117 79.20473633 35.74780273 79.20141602 C34.89766602 79.19303711 34.0475293 79.1846582 33.17163086 79.17602539 C32.31762695 79.17151367 31.46362305 79.16700195 30.58374023 79.16235352 C28.46717422 79.15052912 26.35064401 79.13259308 24.23413086 79.11352539 C24.92722108 75.2173273 25.62100955 71.32125425 26.31542969 67.42529297 C26.66695054 65.45229486 27.01792719 63.47919981 27.36889648 61.50610352 C27.59125977 60.25893555 27.81362305 59.01176758 28.04272461 57.72680664 C28.24696045 56.57994385 28.45119629 55.43308105 28.66162109 54.25146484 C29.02020885 52.28603691 29.39757216 50.32383995 29.80249023 48.36743164 C30.29426955 45.79949803 30.33145775 43.41304205 30.29663086 40.80102539 C30.28760742 39.91801758 30.27858398 39.03500977 30.26928711 38.12524414 C30.25768555 37.46137695 30.24608398 36.79750977 30.23413086 36.11352539 C27.94104123 34.96698057 26.4350343 34.91623422 23.88256836 34.79711914 C22.60639648 34.73427734 22.60639648 34.73427734 21.30444336 34.67016602 C20.41499023 34.63084961 19.52553711 34.5915332 18.60913086 34.55102539 C17.71194336 34.5078418 16.81475586 34.4646582 15.89038086 34.42016602 C13.67178803 34.31395678 11.45308206 34.21191345 9.23413086 34.11352539 C9.03049927 35.31344116 9.03049927 35.31344116 8.82275391 36.53759766 C1.8584805 77.48917575 1.8584805 77.48917575 0.23413086 79.11352539 C-2.62854481 79.18677707 -5.46658814 79.20590744 -8.32836914 79.17602539 C-9.13467773 79.17151367 -9.94098633 79.16700195 -10.77172852 79.16235352 C-12.7698067 79.15053057 -14.76784697 79.13259453 -16.76586914 79.11352539 C-16.89514317 74.15317214 -16.45818811 69.6810803 -15.49658203 64.81713867 C-15.29416649 63.77925957 -15.29416649 63.77925957 -15.08766174 62.72041321 C-14.6444387 60.45688835 -14.19173057 58.19538341 -13.73852539 55.93383789 C-13.42656822 54.35449327 -13.11508766 52.77505443 -12.80406189 51.19552612 C-12.15330576 47.89814872 -11.49806156 44.60170647 -10.83935547 41.3059082 C-9.99366992 37.07359695 -9.15736439 32.83949922 -8.32412052 28.60472298 C-7.68289321 25.34946015 -7.0377497 22.09498376 -6.39129448 18.84075546 C-6.08130599 17.27877234 -5.7723205 15.71658983 -5.46434212 14.15420914 C-5.03492206 11.97986674 -4.60048294 9.80658971 -4.16455078 7.63354492 C-3.9180629 6.39557159 -3.67157501 5.15759827 -3.4176178 3.8821106 C-2.5422098 0.1634353 -2.5422098 0.1634353 0 0 Z " fill="#020203" transform="translate(140.765869140625,26.886474609375)"/>
<path d="M0 0 C33.62482524 7.56406557 71.72314984 18.53667535 92 49 C98.84114954 60.68257845 101.30887771 73.38311202 98.125 86.64453125 C95.51269498 93.88852182 91.75970737 99.98099785 87 106 C86.52820313 106.62390625 86.05640625 107.2478125 85.5703125 107.890625 C61.67344059 137.86297282 14.91206693 147.67871604 -21 152 C-30.49196234 153.06052272 -39.96139033 153.19939831 -49.5 153.1875 C-50.24313446 153.18756042 -50.98626892 153.18762085 -51.75192261 153.18768311 C-60.88584362 153.17711954 -69.9642926 153.01991968 -79.0625 152.125 C-79.87589844 152.04660889 -80.68929687 151.96821777 -81.52734375 151.88745117 C-83.36308395 151.67452001 -85.18546761 151.35036263 -87 151 C-87.33 150.34 -87.66 149.68 -88 149 C-87.16021606 149.01571045 -87.16021606 149.01571045 -86.3034668 149.03173828 C-83.76485693 149.07333326 -81.2263188 149.09933685 -78.6875 149.125 C-77.36588867 149.15013672 -77.36588867 149.15013672 -76.01757812 149.17578125 C-74.74624023 149.18544922 -74.74624023 149.18544922 -73.44921875 149.1953125 C-72.27879028 149.21102295 -72.27879028 149.21102295 -71.0847168 149.22705078 C-68.6934152 149.12880859 -68.6934152 149.12880859 -66 147 C-63.35327148 146.74462891 -63.35327148 146.74462891 -60.12109375 146.7265625 C-58.90631348 146.70875732 -57.6915332 146.69095215 -56.43994141 146.67260742 C-55.78906555 146.66554779 -55.1381897 146.65848816 -54.46759033 146.6512146 C-31.1426451 146.35001909 -6.40058222 144.87816619 16 138 C16.89267578 137.73203613 17.78535156 137.46407227 18.70507812 137.18798828 C36.88644836 131.65517828 55.23646674 125.35072281 70 113 C70.85851562 112.30261719 71.71703125 111.60523437 72.6015625 110.88671875 C81.25326962 103.52884698 88.33684285 95.22658489 91 84 C91.226875 83.195625 91.45375 82.39125 91.6875 81.5625 C93.10691875 69.92326622 90.82971811 58.78190043 83.8203125 49.18359375 C65.13620143 26.7706794 38.87794041 17.70688374 12 9 C12.33 8.01 12.66 7.02 13 6 C8.71 4.68 4.42 3.36 0 2 C0 1.34 0 0.68 0 0 Z " fill="#454982" transform="translate(203,8)"/>
<path d="M0 0 C0.33 0 0.66 0 1 0 C0.44340486 6.62055271 -0.48031359 13.09620664 -1.6953125 19.62890625 C-1.79585937 20.41136719 -1.89640625 21.19382812 -2 22 C-1.00516798 23.21643292 -1.00516798 23.21643292 0.94946289 23.11352539 C2.1984436 23.10567017 2.1984436 23.10567017 3.47265625 23.09765625 C4.82133789 23.09282227 4.82133789 23.09282227 6.19726562 23.08789062 C7.14279297 23.07951172 8.08832031 23.07113281 9.0625 23.0625 C10.4865918 23.05573242 10.4865918 23.05573242 11.93945312 23.04882812 C14.29303065 23.0370011 16.64648477 23.02052025 19 23 C19.11593506 22.42967041 19.23187012 21.85934082 19.35131836 21.27172852 C19.87613125 18.70116824 20.40673615 16.13183782 20.9375 13.5625 C21.11990234 12.66466797 21.30230469 11.76683594 21.49023438 10.84179688 C21.66748047 9.98779297 21.84472656 9.13378906 22.02734375 8.25390625 C22.18968506 7.46314697 22.35202637 6.6723877 22.51928711 5.85766602 C23 4 23 4 24 3 C26.69654854 2.92680379 29.36691458 2.90757463 32.0625 2.9375 C32.82111328 2.94201172 33.57972656 2.94652344 34.36132812 2.95117188 C36.24091871 2.9629932 38.12046899 2.98092922 40 3 C36.35581659 5.42945561 35.07076636 5.0828781 30.8125 4.625 C29.72582031 4.51414062 28.63914063 4.40328125 27.51953125 4.2890625 C26.68808594 4.19367188 25.85664062 4.09828125 25 4 C25.04125 5.093125 25.0825 6.18625 25.125 7.3125 C25 11 25 11 23 14 C23.66 14.33 24.32 14.66 25 15 C24.2368139 16.60781893 23.46412942 18.21113138 22.6875 19.8125 C22.25824219 20.70582031 21.82898438 21.59914063 21.38671875 22.51953125 C20.11778211 24.78931933 18.93443102 26.29248171 17 28 C17 27.34 17 26.68 17 26 C16.01 26.33 15.02 26.66 14 27 C12.10529184 27.0685495 10.2083166 27.08480372 8.3125 27.0625 C7.31863281 27.05347656 6.32476562 27.04445312 5.30078125 27.03515625 C4.16189453 27.01775391 4.16189453 27.01775391 3 27 C2.505 28.485 2.505 28.485 2 30 C1.34 30.66 0.68 31.32 0 32 C2.92421368 33.02007454 5.68623853 33.9500834 8.75 34.4375 C11 35 11 35 13 38 C16.04907647 39.99767079 18.39697197 40.20016822 22 40 C22.495 39.01 22.495 39.01 23 38 C25.95019673 38.42145668 28.69867958 38.89425712 31.515625 39.8828125 C59.1667994 48.74854779 88.30683099 48.4565353 117 49 C117 49.33 117 49.66 117 50 C116.07662842 50.01981934 115.15325684 50.03963867 114.2019043 50.06005859 C110.77438826 50.13817739 107.34731202 50.22486997 103.92016602 50.31738281 C102.43717788 50.35565347 100.95409752 50.39050978 99.47094727 50.421875 C97.33836928 50.467568 95.20642509 50.52555338 93.07421875 50.5859375 C91.79119873 50.6173584 90.50817871 50.6487793 89.1862793 50.68115234 C85.84612541 50.76379228 85.84612541 50.76379228 83 53 C65.46803309 55.55997747 47.80878886 51.62303279 31 47 C30.15356934 46.77038574 29.30713867 46.54077148 28.43505859 46.30419922 C6.73941304 40.23342017 -15.63040656 29.83336425 -31 13 C-27.47967572 13 -26.5614657 13.70351351 -24 16 C-24 16.66 -24 17.32 -24 18 C-23.195625 18.268125 -22.39125 18.53625 -21.5625 18.8125 C-20.716875 19.204375 -19.87125 19.59625 -19 20 C-18.67 20.99 -18.34 21.98 -18 23 C-16.68225804 23.39044206 -15.34332728 23.70955086 -14 24 C-11.98473831 24.96887581 -9.98166034 25.9641321 -8 27 C-8 26.34 -8 25.68 -8 25 C-6.68 24.67 -5.36 24.34 -4 24 C-4.12375 22.2365625 -4.12375 22.2365625 -4.25 20.4375 C-4.29522941 13.38171144 -1.97938667 6.70693965 0 0 Z " fill="#64679A" transform="translate(51,105)"/>
<path d="M0 0 C-0.9590625 0.3403125 -0.9590625 0.3403125 -1.9375 0.6875 C-4.2772507 1.84191647 -4.2772507 1.84191647 -4.62890625 4.58203125 C-4.75136719 5.37996094 -4.87382813 6.17789062 -5 7 C-5.67240723 7.13986328 -6.34481445 7.27972656 -7.03759766 7.42382812 C-38.09527041 13.98226386 -73.39095788 23.96752574 -94 50 C-94.66 49.67 -95.32 49.34 -96 49 C-94.68 47.68 -93.36 46.36 -92 45 C-92.94729537 42.84188612 -92.94729537 42.84188612 -95 41 C-71.9448714 18.46243551 -32.64179996 -0.97914273 0 0 Z " fill="#ADB0D3" transform="translate(113,7)"/>
<path d="M0 0 C2.536875 -0.061875 5.07375 -0.12375 7.6875 -0.1875 C8.47729248 -0.21481201 9.26708496 -0.24212402 10.08081055 -0.27026367 C14.62090198 -0.3236495 17.37900572 0.25136763 21 3 C22.53209716 4.53209716 22.20614547 5.93190053 22.25 8.0625 C22.16373849 13.48834907 21.31819386 18.44745321 17.5703125 22.57421875 C12.63471001 26.85910748 8.56035182 27.13775927 2.3125 27.0625 C-1.3071875 27.0315625 -1.3071875 27.0315625 -5 27 C-3.35 18.09 -1.7 9.18 0 0 Z " fill="#757AB1" transform="translate(83,63)"/>
<path d="M0 0 C1.31355469 -0.02578125 2.62710938 -0.0515625 3.98046875 -0.078125 C7.97849812 0.26421391 10.38671003 1.22542739 13.8125 3.25 C14.20439633 11.27661752 14.17298236 17.10540509 8.9375 23.5625 C4.35047192 27.20513994 0.25427559 27.48255655 -5.5 27.375 C-6.75425781 27.35695313 -8.00851563 27.33890625 -9.30078125 27.3203125 C-10.25339844 27.29710938 -11.20601562 27.27390625 -12.1875 27.25 C-11.75084011 20.98618919 -10.8318676 14.85509709 -9.6875 8.6875 C-9.55690186 7.97271484 -9.42630371 7.25792969 -9.29174805 6.52148438 C-7.98358911 -0.35152799 -6.56821402 0.04980636 0 0 Z " fill="#7579AF" transform="translate(224.1875,62.75)"/>
<path d="M0 0 C4.04272117 0.95392067 8.08397636 1.91391584 12.125 2.875 C13.26710937 3.14441406 14.40921875 3.41382813 15.5859375 3.69140625 C16.69453125 3.95566406 17.803125 4.21992188 18.9453125 4.4921875 C19.96125488 4.73308105 20.97719727 4.97397461 22.02392578 5.22216797 C25.08324511 6.02175709 28.04694435 6.86594498 31 8 C31.33 8.66 31.66 9.32 32 10 C34.71727534 11.10848057 37.42831594 12.13208531 40.1875 13.125 C62.84081852 21.62366936 62.84081852 21.62366936 67 30 C66.34 30.66 65.68 31.32 65 32 C63.94683594 31.34773438 62.89367187 30.69546875 61.80859375 30.0234375 C46.01352141 20.38873875 29.53893152 14.68159001 12 9 C12.33 8.01 12.66 7.02 13 6 C8.71 4.68 4.42 3.36 0 2 C0 1.34 0 0.68 0 0 Z " fill="#4A4D89" transform="translate(203,8)"/>
<path d="M0 0 C-0.33 1.32 -0.66 2.64 -1 4 C-4.28696233 4.79953138 -5.71023192 5.09658936 -9 4 C-10.8253125 4.680625 -10.8253125 4.680625 -12.6875 5.375 C-19.53079668 7.86450494 -26.79614702 7.74366658 -34 8 C-34 8.33 -34 8.66 -34 9 C-44.79691697 9.19512501 -55.4922178 9.16220293 -66.25 8.125 C-67.11270508 8.04652832 -67.97541016 7.96805664 -68.86425781 7.88720703 C-70.91927649 7.66950375 -72.96252836 7.34526193 -75 7 C-75.33 6.34 -75.66 5.68 -76 5 C-75.16021606 5.01571045 -75.16021606 5.01571045 -74.3034668 5.03173828 C-71.76485693 5.07333326 -69.2263188 5.09933685 -66.6875 5.125 C-65.36588867 5.15013672 -65.36588867 5.15013672 -64.01757812 5.17578125 C-62.74624023 5.18544922 -62.74624023 5.18544922 -61.44921875 5.1953125 C-60.66893311 5.20578613 -59.88864746 5.21625977 -59.0847168 5.22705078 C-56.6934152 5.12880859 -56.6934152 5.12880859 -54 3 C-51.11523438 2.71289062 -51.11523438 2.71289062 -47.59375 2.65625 C-46.30057861 2.62781006 -45.00740723 2.59937012 -43.67504883 2.57006836 C-42.99262115 2.55877899 -42.31019348 2.54748962 -41.60708618 2.53585815 C-30.15622288 2.34098866 -18.83046264 1.81333336 -7.45703125 0.40234375 C-4 0 -4 0 0 0 Z " fill="#4E528A" transform="translate(191,152)"/>
<path d="M0 0 C2.0625 0.4375 2.0625 0.4375 4 1 C2.84826645 3.46800047 1.95216435 5.04783565 0 7 C0 7.99 0 8.98 0 10 C-0.8971875 11.7325 -0.8971875 11.7325 -1.8125 13.5 C-5.80079797 21.20788082 -7.29675183 29.42037235 -8 38 C-9.9375 38.5625 -9.9375 38.5625 -12 39 C-14.21619263 36.78380737 -13.37103377 31.55513661 -13.38500977 28.49780273 C-13.15483267 17.24152066 -7.88814153 7.88814153 0 0 Z " fill="#7F83B4" transform="translate(18,49)"/>
<path d="M0 0 C0.33 0 0.66 0 1 0 C0.44340486 6.62055271 -0.48031359 13.09620664 -1.6953125 19.62890625 C-1.79585937 20.41136719 -1.89640625 21.19382812 -2 22 C-1.00516798 23.21643292 -1.00516798 23.21643292 0.94946289 23.11352539 C2.1984436 23.10567017 2.1984436 23.10567017 3.47265625 23.09765625 C4.82133789 23.09282227 4.82133789 23.09282227 6.19726562 23.08789062 C7.14279297 23.07951172 8.08832031 23.07113281 9.0625 23.0625 C10.4865918 23.05573242 10.4865918 23.05573242 11.93945312 23.04882812 C14.29303065 23.0370011 16.64648477 23.02052025 19 23 C19.11593506 22.42967041 19.23187012 21.85934082 19.35131836 21.27172852 C19.87613125 18.70116824 20.40673615 16.13183782 20.9375 13.5625 C21.11990234 12.66466797 21.30230469 11.76683594 21.49023438 10.84179688 C21.66748047 9.98779297 21.84472656 9.13378906 22.02734375 8.25390625 C22.18968506 7.46314697 22.35202637 6.6723877 22.51928711 5.85766602 C23 4 23 4 24 3 C26.69654854 2.92680379 29.36691458 2.90757463 32.0625 2.9375 C32.82111328 2.94201172 33.57972656 2.94652344 34.36132812 2.95117188 C36.24091871 2.9629932 38.12046899 2.98092922 40 3 C36.35581659 5.42945561 35.07076636 5.0828781 30.8125 4.625 C29.72582031 4.51414062 28.63914063 4.40328125 27.51953125 4.2890625 C26.68808594 4.19367188 25.85664062 4.09828125 25 4 C25.04125 5.093125 25.0825 6.18625 25.125 7.3125 C25 11 25 11 23 14 C23.66 14.33 24.32 14.66 25 15 C24.2368139 16.60781893 23.46412942 18.21113138 22.6875 19.8125 C22.25824219 20.70582031 21.82898438 21.59914063 21.38671875 22.51953125 C20.11778211 24.78931933 18.93443102 26.29248171 17 28 C17 27.34 17 26.68 17 26 C16.01 26.33 15.02 26.66 14 27 C12.10529184 27.0685495 10.2083166 27.08480372 8.3125 27.0625 C7.31863281 27.05347656 6.32476562 27.04445312 5.30078125 27.03515625 C4.16189453 27.01775391 4.16189453 27.01775391 3 27 C2.67 27.99 2.34 28.98 2 30 C0.375 31.4375 0.375 31.4375 -2 32 C-4.56228226 30.91680342 -6.65365847 29.53414639 -9 28 C-8.505 26.515 -8.505 26.515 -8 25 C-5.9375 24.3125 -5.9375 24.3125 -4 24 C-4.0825 22.824375 -4.165 21.64875 -4.25 20.4375 C-4.29522941 13.38171144 -1.97938667 6.70693965 0 0 Z " fill="#7073A0" transform="translate(51,105)"/>
<path d="M0 0 C0.495 1.485 0.495 1.485 1 3 C1.66 3.33 2.32 3.66 3 4 C-26.38257823 19.08247729 -26.38257823 19.08247729 -37 16 C-37 15.34 -37 14.68 -37 14 C-36.34104736 13.78907715 -35.68209473 13.5781543 -35.00317383 13.36083984 C-17.11973855 7.64324217 -17.11973855 7.64324217 0 0 Z " fill="#494D8A" transform="translate(256,132)"/>
<path d="M0 0 C2.0625 0.4375 2.0625 0.4375 4 1 C2.84826645 3.46800047 1.95216435 5.04783565 0 7 C0 7.99 0 8.98 0 10 C-0.76953125 11.8671875 -0.76953125 11.8671875 -1.8125 13.875 C-2.17472656 14.57367188 -2.53695313 15.27234375 -2.91015625 15.9921875 C-4.20283053 18.37367345 -5.56388079 20.70220926 -7 23 C-9 21 -9 21 -9.22265625 18.71484375 C-8.7452173 10.43535359 -5.79120577 5.79120577 0 0 Z " fill="#8F92BD" transform="translate(18,49)"/>
<path d="M0 0 C0 0.66 0 1.32 0 2 C-0.66 2 -1.32 2 -2 2 C-2 3.32 -2 4.64 -2 6 C-1.34 6.33 -0.68 6.66 0 7 C-0.87011719 7.63615234 -0.87011719 7.63615234 -1.7578125 8.28515625 C-6.87605086 12.12805799 -11.01441048 15.99246445 -15 21 C-15.66 20.67 -16.32 20.34 -17 20 C-15.68 18.68 -14.36 17.36 -13 16 C-13.94729537 13.84188612 -13.94729537 13.84188612 -16 12 C-14.23139162 10.37251997 -12.46024324 8.74796543 -10.6875 7.125 C-10.18798828 6.66480469 -9.68847656 6.20460938 -9.17382812 5.73046875 C-2.90353261 0 -2.90353261 0 0 0 Z " fill="#A2A4C9" transform="translate(34,36)"/>
<path d="M0 0 C6.93 1.65 13.86 3.3 21 5 C21 5.66 21 6.32 21 7 C23.64 7.66 26.28 8.32 29 9 C28.67 10.65 28.34 12.3 28 14 C25.7058862 13.38304511 23.41500322 12.75687956 21.125 12.125 C20.47402344 11.95097656 19.82304687 11.77695312 19.15234375 11.59765625 C14.2265625 10.2265625 14.2265625 10.2265625 12 8 C12.33 7.34 12.66 6.68 13 6 C8.71 4.68 4.42 3.36 0 2 C0 1.34 0 0.68 0 0 Z " fill="#5D5F93" transform="translate(203,8)"/>
<path d="M0 0 C0.86140091 0.00424484 1.72280182 0.00848969 2.61030579 0.01286316 C5.36161556 0.02965627 8.11219287 0.06730919 10.86328125 0.10546875 C12.72850505 0.12051479 14.59374032 0.13420334 16.45898438 0.14648438 C21.03153223 0.17956182 25.60353255 0.23134815 30.17578125 0.29296875 C30.17578125 0.95296875 30.17578125 1.61296875 30.17578125 2.29296875 C30.83578125 2.62296875 31.49578125 2.95296875 32.17578125 3.29296875 C18.97578125 3.62296875 5.77578125 3.95296875 -7.82421875 4.29296875 C-8.48421875 7.26296875 -9.14421875 10.23296875 -9.82421875 13.29296875 C-10.15421875 13.29296875 -10.48421875 13.29296875 -10.82421875 13.29296875 C-11.07355445 11.69181299 -11.29800523 10.08676716 -11.51171875 8.48046875 C-11.63933594 7.58714844 -11.76695312 6.69382812 -11.8984375 5.7734375 C-11.82421875 3.29296875 -11.82421875 3.29296875 -10.56462097 1.65922546 C-7.52564225 -0.72644437 -3.70320539 -0.06845791 0 0 Z " fill="#777BA7" transform="translate(205.82421875,41.70703125)"/>
<path d="M0 0 C0.70125 0.33 1.4025 0.66 2.125 1 C5.26003116 2.09044562 7.70563182 2.15322643 11 2 C10.67 3.32 10.34 4.64 10 6 C8.87964355 5.67620361 7.75928711 5.35240723 6.60498047 5.01879883 C1.81499966 3.82692166 -2.76274698 3.693942 -7.6796875 3.69921875 C-8.57366241 3.69493362 -9.46763733 3.6906485 -10.38870239 3.68623352 C-12.26270708 3.68052678 -14.13673389 3.67996275 -16.01074219 3.68432617 C-18.88774549 3.68751412 -21.76374644 3.66388618 -24.640625 3.63867188 C-26.46614454 3.6364014 -28.29166684 3.63569421 -30.1171875 3.63671875 C-30.97859344 3.627509 -31.83999939 3.61829926 -32.72750854 3.60881042 C-35.38354 3.59424788 -35.38354 3.59424788 -39 4 C-39.66 4.99 -40.32 5.98 -41 7 C-40.67 5.02 -40.34 3.04 -40 1 C-38.82381104 1.00523682 -37.64762207 1.01047363 -36.43579102 1.01586914 C-32.08797969 1.03391663 -27.7401717 1.04543108 -23.39233398 1.05493164 C-21.5075627 1.05997244 -19.62279535 1.06680498 -17.73803711 1.07543945 C-15.03498364 1.08751617 -12.33198169 1.09323068 -9.62890625 1.09765625 C-8.78099014 1.10281754 -7.93307404 1.10797882 -7.0594635 1.11329651 C-5.03928932 1.11349195 -3.01922066 1.06206211 -1 1 C-0.67 0.67 -0.34 0.34 0 0 Z " fill="#7376A1" transform="translate(104,42)"/>
<path d="M0 0 C0.33 0 0.66 0 1 0 C2.02186657 8.55340163 -0.4153438 14.79044996 -5 22 C-5.66 22.33 -6.32 22.66 -7 23 C-7 22.01 -7 21.02 -7 20 C-7.66 19.34 -8.32 18.68 -9 18 C-8.38125 16.865625 -7.7625 15.73125 -7.125 14.5625 C-4.90992828 10.17163089 -3.8482631 5.82170604 -3 1 C-2.34 1.33 -1.68 1.66 -1 2 C-0.67 1.34 -0.34 0.68 0 0 Z " fill="#494D8A" transform="translate(298,86)"/>
<path d="M0 0 C0.33 0.66 0.66 1.32 1 2 C2.03060547 1.96519531 2.03060547 1.96519531 3.08203125 1.9296875 C4.43361328 1.90261719 4.43361328 1.90261719 5.8125 1.875 C6.70582031 1.85179687 7.59914062 1.82859375 8.51953125 1.8046875 C11 2 11 2 14 4 C9.93902453 4.51290789 5.87603944 5.00785283 1.8125 5.5 C0.68134766 5.64308594 -0.44980469 5.78617188 -1.61523438 5.93359375 C-11.46936493 7.11272048 -21.19145761 7.83231492 -31 6 C-31 5.67 -31 5.34 -31 5 C-30.38068604 4.98018066 -29.76137207 4.96036133 -29.12329102 4.93994141 C-26.26932611 4.84364769 -23.41599143 4.73439903 -20.5625 4.625 C-19.58861328 4.5940625 -18.61472656 4.563125 -17.61132812 4.53125 C-11.50041915 4.28599613 -5.9292205 3.50836426 0 2 C0 1.34 0 0.68 0 0 Z " fill="#414476" transform="translate(182,154)"/>
<path d="M0 0 C0.99 0.99 1.98 1.98 3 3 C2.67 3.99 2.34 4.98 2 6 C2.99 6 3.98 6 5 6 C5 6.66 5 7.32 5 8 C6.65 8.33 8.3 8.66 10 9 C9.71125 10.155 9.4225 11.31 9.125 12.5 C8.72220356 15.42942867 8.82883473 16.68821587 10.26953125 19.3125 C11.77561021 21.28768553 13.32105749 23.17019599 15 25 C14.67 25.66 14.34 26.32 14 27 C6.72060124 19.67752787 0.48170481 10.59750593 0 0 Z " fill="#7174A2" transform="translate(5,90)"/>
<path d="M0 0 C0.99 0 1.98 0 3 0 C3.05451714 2.04136395 3.09302485 4.08315856 3.125 6.125 C3.14820313 7.26195312 3.17140625 8.39890625 3.1953125 9.5703125 C2.99672109 13.05757767 2.2524801 15.7553862 1 19 C1.97582031 18.9278125 2.95164063 18.855625 3.95703125 18.78125 C5.22933594 18.6884375 6.50164062 18.595625 7.8125 18.5 C9.70935547 18.36078125 9.70935547 18.36078125 11.64453125 18.21875 C17.73276776 17.82184517 17.73276776 17.82184517 21 20 C21 20.66 21 21.32 21 22 C13.74 21.67 6.48 21.34 -1 21 C-0.42442129 15.24421293 0.15747615 9.53801836 0.9140625 3.8125 C1.15289779 1.89823528 1.15289779 1.89823528 0 0 Z " fill="#7477A2" transform="translate(157,24)"/>
<path d="M0 0 C6.62778503 1.25551262 12.25738985 3.17844557 18.3125 6.125 C19.13411621 6.51953369 19.95573242 6.91406738 20.80224609 7.32055664 C38.50421983 16.00843965 38.50421983 16.00843965 41 21 C40.236875 20.690625 39.47375 20.38125 38.6875 20.0625 C36.81210323 19.32106407 34.91315348 18.63771783 33 18 C33 17.34 33 16.68 33 16 C31.8553125 15.690625 31.8553125 15.690625 30.6875 15.375 C27.53681171 14.20016708 24.96580829 12.90531905 22.0625 11.25 C16.83085288 8.30584548 11.47971137 6.08530515 5.86352539 4.00488281 C1.10162535 2.2032507 1.10162535 2.2032507 0 0 Z " fill="#3F416E" transform="translate(234,17)"/>
<path d="M0 0 C0.99 0 1.98 0 3 0 C3 0.66 3 1.32 3 2 C4.794375 2.1546875 4.794375 2.1546875 6.625 2.3125 C10.5624176 2.78891352 13.54140375 4.01130716 17 6 C16.01 7.485 16.01 7.485 15 9 C9.06 8.01 9.06 8.01 3 7 C3 6.01 3 5.02 3 4 C2.01 3.34 1.02 2.68 0 2 C0 1.34 0 0.68 0 0 Z " fill="#6A6EA3" transform="translate(200,8)"/>
<path d="M0 0 C7.59 0.33 15.18 0.66 23 1 C22.67 3.97 22.34 6.94 22 10 C21.67 10 21.34 10 21 10 C21 8.02 21 6.04 21 4 C20.43490723 3.98541748 19.86981445 3.97083496 19.28759766 3.95581055 C16.73269981 3.88143942 14.17912502 3.78474758 11.625 3.6875 C10.73554688 3.66494141 9.84609375 3.64238281 8.9296875 3.61914062 C8.07890625 3.58369141 7.228125 3.54824219 6.3515625 3.51171875 C5.56604004 3.48553467 4.78051758 3.45935059 3.97119141 3.43237305 C2 3 2 3 0 0 Z " fill="#6E719B" transform="translate(162,107)"/>
<path d="M0 0 C0.66 0.33 1.32 0.66 2 1 C0.72029806 10.77090067 -0.97465089 20.35933823 -3 30 C-3.33 30 -3.66 30 -4 30 C-4.054348 27.9377952 -4.09294961 25.87517184 -4.125 23.8125 C-4.14820313 22.66394531 -4.17140625 21.51539062 -4.1953125 20.33203125 C-4.00267423 17.04562235 -3.34116736 14.96682476 -2 12 C-1.62406934 10.0075675 -1.28020455 8.0081326 -1 6 C-1.66 5.67 -2.32 5.34 -3 5 C-2.01 3.35 -1.02 1.7 0 0 Z " fill="#6C709A" transform="translate(61,49)"/>
<path d="M0 0 C1.44715727 3.87186448 0.5441918 6.8232328 -0.4375 10.75 C-0.72496094 11.92046875 -1.01242188 13.0909375 -1.30859375 14.296875 C-1.65083984 15.63492188 -1.65083984 15.63492188 -2 17 C-7 9.5 -7 9.5 -7 6 C-6.21625 5.7525 -5.4325 5.505 -4.625 5.25 C-1.67682892 3.84610901 -1.0975223 2.99324263 0 0 Z " fill="#61648F" transform="translate(131,48)"/>
<path d="M0 0 C2.76036415 0.18250342 5.49103909 0.52097656 8.23828125 0.84375 C10.79959681 0.98866177 12.58044004 0.78161557 15 0 C15.33 0.66 15.66 1.32 16 2 C13.23058394 2.83830973 10.45964931 3.67082034 7.6875 4.5 C6.50897461 4.85771484 6.50897461 4.85771484 5.30664062 5.22265625 C4.54931641 5.44824219 3.79199219 5.67382812 3.01171875 5.90625 C2.31522217 6.11572266 1.61872559 6.32519531 0.90112305 6.54101562 C-1 7 -1 7 -4 7 C-4 6.34 -4 5.68 -4 5 C-2.02 4.34 -0.04 3.68 2 3 C1.01 2.34 0.02 1.68 -1 1 C-0.67 0.67 -0.34 0.34 0 0 Z " fill="#434578" transform="translate(218,147)"/>
<path d="M0 0 C0.3125 2.25 0.3125 2.25 0 5 C-2.3125 7.3125 -2.3125 7.3125 -5 9 C-5.99 9 -6.98 9 -8 9 C-8 7.68 -8 6.36 -8 5 C-7.34 5 -6.68 5 -6 5 C-6.33 4.01 -6.66 3.02 -7 2 C-3.88692954 -0.07538031 -3.52734766 0 0 0 Z " fill="#B4B7D4" transform="translate(40,33)"/>
<path d="M0 0 C4.21912747 0.4794463 6.79663178 1.16625119 10 4 C9.34 4 8.68 4 8 4 C8 4.66 8 5.32 8 6 C6.35 6.33 4.7 6.66 3 7 C3 6.34 3 5.68 3 5 C1.68 4.67 0.36 4.34 -1 4 C-0.67 2.68 -0.34 1.36 0 0 Z " fill="#6C70A4" transform="translate(74,143)"/>
<path d="M0 0 C0.33 0 0.66 0 1 0 C1.144375 1.051875 1.28875 2.10375 1.4375 3.1875 C1.87526966 6.15460549 2.37804866 9.06794366 3 12 C0.03 14.475 0.03 14.475 -3 17 C-2.01 11.39 -1.02 5.78 0 0 Z " fill="#777AAB" transform="translate(146,91)"/>
<path d="M0 0 C2.56314499 -0.08132187 5.12368418 -0.14064175 7.6875 -0.1875 C8.40873047 -0.21263672 9.12996094 -0.23777344 9.87304688 -0.26367188 C14.44465213 -0.3262966 17.41650333 0.07807195 21 3 C21.8125 5.6875 21.8125 5.6875 22 8 C18.125 4.25 18.125 4.25 17 2 C16.01 2.33 15.02 2.66 14 3 C13.29875 2.855625 12.5975 2.71125 11.875 2.5625 C7.90799289 1.78634643 4.0290709 1.92099861 0 2 C0 1.34 0 0.68 0 0 Z " fill="#686B8E" transform="translate(83,63)"/>
<path d="M0 0 C0.66 0.33 1.32 0.66 2 1 C2.39541102 9.09860351 2.46311745 15.1410977 -3.1875 21.4375 C-3.785625 21.953125 -4.38375 22.46875 -5 23 C-5 19.40142046 -4.04169485 17.90548882 -2 15 C-1.34 15 -0.68 15 0 15 C0 10.05 0 5.1 0 0 Z " fill="#6A6D92" transform="translate(236,65)"/>
<path d="M0 0 C0.66 0 1.32 0 2 0 C1.91231752 1.5843317 1.80412671 3.16753567 1.6875 4.75 C1.62949219 5.63171875 1.57148438 6.5134375 1.51171875 7.421875 C0.92970571 10.35415446 0.04364902 11.8402919 -2 14 C-2.66 14 -3.32 14 -4 14 C-3.46148032 8.72250715 -2.22656164 4.74354436 0 0 Z " fill="#8384A8" transform="translate(9,61)"/>
<path d="M0 0 C3.99824088 3.66505414 6.60168569 7.11112852 9 12 C8.67 12.66 8.34 13.32 8 14 C6.02 11.03 4.04 8.06 2 5 C1.67 6.32 1.34 7.64 1 9 C0.34 8.67 -0.32 8.34 -1 8 C-1.08226668 4.95613276 -0.97608217 2.92824652 0 0 Z " fill="#3E4172" transform="translate(289,51)"/>
<path d="M0 0 C1.27116333 3.81349 0.53884053 5.37303425 -0.91015625 8.9921875 C-2.71091862 12.30972104 -4.86657903 13.91105269 -8 16 C-8.99 16 -9.98 16 -11 16 C-11 15.34 -11 14.68 -11 14 C-10.401875 13.938125 -9.80375 13.87625 -9.1875 13.8125 C-6.14245324 12.68148263 -5.55509485 10.75675905 -4 8 C-3.34 8 -2.68 8 -2 8 C-1.855625 6.865625 -1.71125 5.73125 -1.5625 4.5625 C-1 1 -1 1 0 0 Z " fill="#6A6D95" transform="translate(104,73)"/>
<path d="M0 0 C0.33 0.99 0.66 1.98 1 3 C0.01 3.66 -0.98 4.32 -2 5 C-1.67 5.99 -1.34 6.98 -1 8 C-1.99 8.33 -2.98 8.66 -4 9 C-6.6875 7.5625 -6.6875 7.5625 -9 6 C-6 4 -3 2 0 0 Z " fill="#7073A1" transform="translate(247,100)"/>
<path d="M0 0 C4.55384615 -0.36923077 4.55384615 -0.36923077 6.8125 1.5 C7.204375 1.995 7.59625 2.49 8 3 C8.99 2.34 9.98 1.68 11 1 C11.33 1.66 11.66 2.32 12 3 C11.0625 5.625 11.0625 5.625 10 8 C10.66 8.33 11.32 8.66 12 9 C11.01 9 10.02 9 9 9 C7.73037853 7.53505215 6.4658477 6.06360932 5.2734375 4.53515625 C3.73074239 2.67540417 2.00502227 1.33668152 0 0 Z " fill="#6C6F9A" transform="translate(249,48)"/>
<path d="M0 0 C0.33 0.99 0.66 1.98 1 3 C0.505 3.804375 0.01 4.60875 -0.5 5.4375 C-2.26274671 7.84522721 -2.26274671 7.84522721 -1.6875 10.3125 C-1.460625 10.869375 -1.23375 11.42625 -1 12 C-3.31 11.34 -5.62 10.68 -8 10 C-7.59007812 9.52949219 -7.18015625 9.05898437 -6.7578125 8.57421875 C-6.21898437 7.95160156 -5.68015625 7.32898438 -5.125 6.6875 C-4.59132812 6.07261719 -4.05765625 5.45773438 -3.5078125 4.82421875 C-1.8359553 2.86501788 -1.8359553 2.86501788 0 0 Z " fill="#6E72A0" transform="translate(256,90)"/>
<path d="M0 0 C-0.33 0.99 -0.66 1.98 -1 3 C-5.35665479 4.67563646 -8.49537986 5.36503641 -13 4 C-13 3.67 -13 3.34 -13 3 C-11.39743892 2.49487756 -9.79288208 1.99608373 -8.1875 1.5 C-7.29417969 1.2215625 -6.40085937 0.943125 -5.48046875 0.65625 C-3 0 -3 0 0 0 Z " fill="#71749F" transform="translate(110,104)"/>
<path d="M0 0 C1.09570312 0.00902344 2.19140625 0.01804688 3.3203125 0.02734375 C4.16335937 0.03894531 5.00640625 0.05054688 5.875 0.0625 C5.875 0.3925 5.875 0.7225 5.875 1.0625 C2.575 1.3925 -0.725 1.7225 -4.125 2.0625 C-4.785 5.0325 -5.445 8.0025 -6.125 11.0625 C-6.455 11.0625 -6.785 11.0625 -7.125 11.0625 C-7.455 7.7625 -7.785 4.4625 -8.125 1.0625 C-5.36047967 -0.31976016 -3.0788637 -0.03275387 0 0 Z " fill="#6C7197" transform="translate(202.125,43.9375)"/>
<path d="M0 0 C0.33 0 0.66 0 1 0 C1.85330338 5.83475015 2.48351814 10.44860651 0 16 C-0.66 16 -1.32 16 -2 16 C-1.50130596 10.63108121 -0.97772468 5.30764827 0 0 Z " fill="#6F719A" transform="translate(214,74)"/>
<path d="M0 0 C1.65 0.33 3.3 0.66 5 1 C4.67 2.65 4.34 4.3 4 6 C2.02 5.34 0.04 4.68 -2 4 C-2 3.34 -2 2.68 -2 2 C-1.34 2 -0.68 2 0 2 C0 1.34 0 0.68 0 0 Z " fill="#555A93" transform="translate(227,16)"/>
<path d="M0 0 C0.66 0 1.32 0 2 0 C3 6.625 3 6.625 3 10 C2.34 10 1.68 10 1 10 C1 9.34 1 8.68 1 8 C0.34 8 -0.32 8 -1 8 C-0.67 5.36 -0.34 2.72 0 0 Z " fill="#6E72A3" transform="translate(82,68)"/>
<path d="M0 0 C3.36591866 1.44253657 5.51047079 3.33264727 8 6 C7.67 6.66 7.34 7.32 7 8 C6.01 8 5.02 8 4 8 C1.53721199 5.53721199 1.00228745 3.29323018 0 0 Z " fill="#404473" transform="translate(281,43)"/>
<path d="M0 0 C1.09658936 3.28976808 0.79953138 4.71303767 0 8 C-0.99 7.67 -1.98 7.34 -3 7 C-5.16715557 7.87483915 -5.16715557 7.87483915 -7 9 C-6.02180976 7.68677212 -5.0424189 6.37443848 -4.0625 5.0625 C-3.51722656 4.33160156 -2.97195312 3.60070312 -2.41015625 2.84765625 C-1 1 -1 1 0 0 Z " fill="#595B79" transform="translate(123,90)"/>
<path d="M0 0 C0.33 0 0.66 0 1 0 C1.33 3.96 1.66 7.92 2 12 C0.68 12 -0.64 12 -2 12 C-1.34 8.04 -0.68 4.08 0 0 Z " fill="#6E7194" transform="translate(80,78)"/>
<path d="M0 0 C0.99 0 1.98 0 3 0 C3 4.29 3 8.58 3 13 C2.01 13 1.02 13 0 13 C0.08378906 12.22914062 0.16757813 11.45828125 0.25390625 10.6640625 C0.40666016 9.15972656 0.40666016 9.15972656 0.5625 7.625 C0.66691406 6.62726562 0.77132812 5.62953125 0.87890625 4.6015625 C1.21144708 2.015963 1.21144708 2.015963 0 0 Z " fill="#6E7299" transform="translate(157,24)"/>
<path d="M0 0 C0.33 0.99 0.66 1.98 1 3 C-2.625 6 -2.625 6 -6 6 C-6 4.68 -6 3.36 -6 2 C-3.525 2.495 -3.525 2.495 -1 3 C-0.67 2.01 -0.34 1.02 0 0 Z " fill="#ABB0DA" transform="translate(38,36)"/>
<path d="M0 0 C4.04131267 1.34710422 4.90288434 3.38428334 7 7 C7 7.99 7 8.98 7 10 C5.82739389 8.71372289 4.6620717 7.42080217 3.5 6.125 C2.8503125 5.40570313 2.200625 4.68640625 1.53125 3.9453125 C0 2 0 2 0 0 Z " fill="#686B94" transform="translate(12,107)"/>
<path d="M0 0 C2.31 0 4.62 0 7 0 C7.33 1.32 7.66 2.64 8 4 C4.31245243 3.50168276 2.39509338 2.89932357 0 0 Z " fill="#7174A6" transform="translate(119,50)"/>
<path d="M0 0 C7.75 1.875 7.75 1.875 10 3 C10 3.66 10 4.32 10 5 C6.7 4.01 3.4 3.02 0 2 C0 1.34 0 0.68 0 0 Z " fill="#64658C" transform="translate(67,145)"/>
<path d="M0 0 C0.33 0 0.66 0 1 0 C2.19876651 5.44893869 1.91360308 8.22169095 -1 13 C-2.12758089 9.61725734 -1.81750262 8.23221777 -1.0625 4.8125 C-0.86785156 3.91144531 -0.67320312 3.01039062 -0.47265625 2.08203125 C-0.23869141 1.05142578 -0.23869141 1.05142578 0 0 Z " fill="#6D6F97" transform="translate(146,91)"/>
<path d="M0 0 C0.66 0.33 1.32 0.66 2 1 C0.63016497 4.16115776 0.0109362 4.9927092 -3 7 C-3.66 6.34 -4.32 5.68 -5 5 C-3.35 3.35 -1.7 1.7 0 0 Z " fill="#9A9DC4" transform="translate(20,49)"/>
<path d="M0 0 C-0.66 1.32 -1.32 2.64 -2 4 C-2.99 3.67 -3.98 3.34 -5 3 C-7.14255793 3.38932856 -7.14255793 3.38932856 -9 4 C-9 3.34 -9 2.68 -9 2 C-2.25 0 -2.25 0 0 0 Z " fill="#AAACC5" transform="translate(91,11)"/>
<path d="M0 0 C-1 2 -1 2 -4.0625 3.125 C-5.5165625 3.558125 -5.5165625 3.558125 -7 4 C-7 3.34 -7 2.68 -7 2 C-7.99 1.67 -8.98 1.34 -10 1 C-6.59437148 0.22157062 -3.49234244 -0.09978121 0 0 Z " fill="#A9ABC9" transform="translate(103,9)"/>
</svg>
