<?xml version="1.0" encoding="UTF-8"?>
<svg version="1.1" xmlns="http://www.w3.org/2000/svg" width="204" height="192">
<path d="M0 0 C67.32 0 134.64 0 204 0 C204 63.36 204 126.72 204 192 C136.68 192 69.36 192 0 192 C0 128.64 0 65.28 0 0 Z " fill="#FDFDFD" transform="translate(0,0)"/>
<path d="M0 0 C2.21235471 1.55259893 4.08599153 3.02349153 6 4.9375 C11.86744609 4.80994682 16.71533868 2.53324447 22.03515625 0.19140625 C24.98454339 -1.05596301 27.95074606 -2.08836984 31 -3.0625 C28.26264299 4.69334486 22.88801951 12.34548699 16 16.9375 C22.54849313 15.77545007 28.74538144 14.20366615 35 11.9375 C33.46083954 15.48248126 31.33657665 18.02008802 28.75 20.875 C27.62851562 22.12603516 27.62851562 22.12603516 26.484375 23.40234375 C24 25.9375 24 25.9375 20.77734375 28.1328125 C16.82875685 32.12027438 17.01396624 35.44942244 16.8125 40.875 C16.68850533 42.76734448 16.55828211 44.65929099 16.421875 46.55078125 C16.35806641 47.47197754 16.29425781 48.39317383 16.22851562 49.34228516 C15.73036702 54.99967798 14.37711548 60.43610019 13 65.9375 C12.82082031 66.82824219 12.64164063 67.71898438 12.45703125 68.63671875 C9.23740688 83.09261609 0.38431875 95.7749425 -9 106.9375 C-9.70640625 107.80761719 -10.4128125 108.67773438 -11.140625 109.57421875 C-28.99367538 130.63420596 -54.94604543 141.18578861 -82 143.9375 C-92.16333301 144.45776586 -101.98559224 143.51177302 -112 141.9375 C-113.04414062 141.78925781 -114.08828125 141.64101562 -115.1640625 141.48828125 C-125.86215773 139.53940344 -136.67910086 134.51193343 -146 128.9375 C-146.33 128.2775 -146.66 127.6175 -147 126.9375 C-146.42258057 126.93862793 -145.84516113 126.93975586 -145.25024414 126.94091797 C-131.73237332 126.87933314 -120.36567378 125.50120039 -108 119.9375 C-106.96746094 119.47472656 -105.93492188 119.01195312 -104.87109375 118.53515625 C-100.92588167 116.64581888 -97.45409803 114.63092026 -94 111.9375 C-95.03898437 111.68097656 -96.07796875 111.42445313 -97.1484375 111.16015625 C-109.86540257 107.77100109 -117.70788986 102.23032852 -124.94140625 90.98046875 C-125.98651498 88.96352459 -126.5559391 87.15780452 -127 84.9375 C-126.40832031 84.94910156 -125.81664063 84.96070312 -125.20703125 84.97265625 C-124.41683594 84.98167969 -123.62664062 84.99070312 -122.8125 85 C-122.03519531 85.01160156 -121.25789063 85.02320312 -120.45703125 85.03515625 C-117.87887289 84.93268573 -115.51344269 84.50447553 -113 83.9375 C-113.92941406 83.525 -114.85882813 83.1125 -115.81640625 82.6875 C-127.34033375 77.38805064 -133.33416357 71.56585086 -138.91015625 59.92578125 C-140.46346059 55.66672095 -140.4483709 52.421209 -140 47.9375 C-139.01 48.2675 -138.02 48.5975 -137 48.9375 C-132.91405167 50.1240126 -129.23657606 50.08615179 -125 49.9375 C-126.03125 49.15375 -127.0625 48.37 -128.125 47.5625 C-134.30740344 42.27046297 -139.28633566 34.20851708 -140.21899414 26.01318359 C-140.3399206 23.87891996 -140.37880406 21.76264453 -140.375 19.625 C-140.37628906 18.87677979 -140.37757813 18.12855957 -140.37890625 17.35766602 C-140.26481068 11.38774514 -139.03154965 7.14797596 -136 1.9375 C-131.78247452 3.54801092 -129.19715913 6.72499407 -126.1875 9.9375 C-116.73075166 19.68985647 -105.68855959 27.03170042 -93 31.9375 C-92.39494629 32.18483887 -91.78989258 32.43217773 -91.16650391 32.68701172 C-80.18454664 37.15036791 -69.80805966 39.13648543 -58 39.9375 C-58.03480469 38.803125 -58.06960937 37.66875 -58.10546875 36.5 C-58.40871088 22.54622076 -56.25445429 14.33927513 -46.3125 3.8125 C-33.68276799 -8.59336675 -14.74163627 -9.60084273 0 0 Z " fill="#010101" transform="translate(158,27.0625)"/>
</svg>
