<svg id="svg" version="1.1" xmlns="http://www.w3.org/2000/svg" xmlns:xlink="http://www.w3.org/1999/xlink" width="400" height="400" viewBox="0, 0, 400,400"><g id="svgg"><path id="path0" d="M-0.000 14.633 C -0.000 26.101,0.107 29.231,0.496 29.101 C 0.769 29.010,1.140 28.052,1.322 26.971 C 1.503 25.891,1.895 24.735,2.194 24.403 C 2.493 24.072,2.871 23.260,3.035 22.600 C 3.198 21.940,3.638 20.950,4.012 20.400 C 4.386 19.850,5.391 18.347,6.246 17.060 C 7.101 15.773,8.070 14.323,8.400 13.838 C 8.730 13.353,9.890 12.066,10.978 10.978 C 12.066 9.890,13.353 8.730,13.838 8.400 C 14.323 8.070,15.773 7.101,17.060 6.246 C 18.347 5.391,19.850 4.386,20.400 4.012 C 20.950 3.638,21.940 3.198,22.600 3.035 C 23.260 2.871,24.072 2.493,24.403 2.194 C 24.735 1.895,25.891 1.503,26.971 1.322 C 28.052 1.140,29.010 0.769,29.101 0.496 C 29.231 0.107,26.101 -0.000,14.633 -0.000 L 0.000 0.000 -0.000 14.633 M370.899 0.496 C 370.990 0.769,371.948 1.140,373.029 1.322 C 374.109 1.503,375.265 1.895,375.597 2.194 C 375.928 2.493,376.740 2.871,377.400 3.035 C 378.060 3.198,379.050 3.638,379.600 4.012 C 380.150 4.386,381.653 5.391,382.940 6.246 C 384.227 7.101,385.677 8.070,386.162 8.400 C 387.301 9.175,390.825 12.699,391.600 13.838 C 391.930 14.323,392.899 15.773,393.754 17.060 C 394.609 18.347,395.614 19.850,395.988 20.400 C 396.362 20.950,396.802 21.940,396.965 22.600 C 397.129 23.260,397.507 24.072,397.806 24.403 C 398.105 24.735,398.497 25.891,398.678 26.971 C 398.860 28.052,399.231 29.010,399.504 29.101 C 399.893 29.231,400.000 26.101,400.000 14.633 L 400.000 0.000 385.367 0.000 C 373.899 0.000,370.769 0.107,370.899 0.496 M301.800 187.177 C 299.600 187.348,297.260 187.706,296.600 187.972 C 295.940 188.239,294.012 188.616,292.315 188.809 C 290.619 189.003,288.819 189.426,288.315 189.750 C 287.812 190.073,286.500 190.463,285.400 190.616 C 284.300 190.769,282.860 191.211,282.200 191.598 C 281.540 191.986,280.343 192.419,279.540 192.562 C 278.737 192.705,277.870 193.075,277.613 193.385 C 277.355 193.695,276.572 194.074,275.872 194.226 C 275.173 194.379,274.171 194.841,273.646 195.252 C 273.121 195.663,272.491 196.001,272.246 196.002 C 272.001 196.004,270.630 196.813,269.200 197.800 C 267.770 198.787,266.439 199.596,266.242 199.598 C 265.838 199.600,265.673 199.751,260.321 205.020 C 258.187 207.120,256.330 209.190,256.194 209.619 C 256.058 210.049,255.781 210.400,255.578 210.400 C 255.376 210.400,254.966 210.985,254.667 211.700 C 254.368 212.415,253.826 213.247,253.462 213.549 C 253.098 213.851,252.800 214.412,252.800 214.795 C 252.800 215.178,252.440 215.950,252.000 216.509 C 251.560 217.069,251.200 217.775,251.200 218.079 C 251.200 218.382,250.837 219.343,250.393 220.214 C 249.949 221.085,249.421 222.823,249.219 224.077 C 249.017 225.331,248.615 226.771,248.326 227.278 C 247.607 228.538,247.565 247.193,248.279 248.054 C 248.542 248.371,248.957 249.881,249.201 251.409 C 249.446 252.937,249.885 254.460,250.178 254.793 C 250.471 255.127,250.844 256.030,251.008 256.800 C 251.171 257.570,251.628 258.613,252.024 259.119 C 252.421 259.624,252.861 260.569,253.004 261.219 C 253.147 261.868,253.411 262.400,253.592 262.400 C 253.773 262.400,254.295 262.985,254.751 263.700 C 256.689 266.734,257.611 267.928,259.745 270.163 C 260.985 271.463,262.000 272.678,262.000 272.863 C 262.000 273.048,262.199 273.200,262.441 273.200 C 262.878 273.200,267.011 276.385,268.642 277.978 C 269.105 278.430,269.654 278.800,269.861 278.800 C 270.068 278.800,270.589 279.070,271.019 279.400 C 272.572 280.593,274.626 281.840,275.900 282.363 C 276.615 282.657,277.200 283.048,277.200 283.233 C 277.200 283.418,277.899 283.757,278.753 283.987 C 279.608 284.218,280.520 284.663,280.781 284.977 C 281.042 285.291,281.768 285.661,282.395 285.799 C 283.021 285.936,283.937 286.398,284.428 286.825 C 284.920 287.251,285.721 287.600,286.207 287.600 C 286.694 287.600,287.521 287.934,288.046 288.342 C 288.571 288.750,289.657 289.205,290.460 289.353 C 291.263 289.500,292.136 289.882,292.400 290.200 C 292.664 290.518,293.537 290.890,294.340 291.027 C 295.143 291.163,296.257 291.595,296.816 291.987 C 297.374 292.379,298.397 292.824,299.088 292.975 C 299.779 293.127,300.550 293.498,300.800 293.800 C 301.050 294.102,301.828 294.474,302.528 294.626 C 303.227 294.779,304.229 295.241,304.754 295.652 C 305.279 296.063,306.044 296.400,306.454 296.400 C 306.864 296.400,307.560 296.760,308.000 297.200 C 308.440 297.640,309.056 298.000,309.369 298.000 C 309.682 298.000,310.473 298.450,311.127 299.000 C 311.781 299.550,312.444 300.000,312.602 300.000 C 313.118 300.000,316.800 302.526,316.800 302.880 C 316.800 303.070,317.115 303.342,317.500 303.485 C 318.749 303.949,324.000 309.681,324.000 310.580 C 324.000 310.862,324.405 311.607,324.900 312.236 C 326.415 314.163,326.242 322.237,324.625 325.000 C 322.741 328.222,317.712 332.767,316.000 332.795 C 315.670 332.801,314.863 333.159,314.206 333.592 C 313.550 334.025,312.200 334.497,311.206 334.642 C 310.213 334.786,308.860 335.196,308.200 335.552 C 306.381 336.534,285.438 336.513,282.800 335.527 C 281.810 335.156,280.010 334.741,278.800 334.603 C 277.590 334.465,276.223 334.107,275.763 333.808 C 275.302 333.509,273.877 333.070,272.595 332.833 C 271.314 332.596,269.981 332.155,269.633 331.852 C 269.285 331.549,268.343 331.184,267.540 331.040 C 266.737 330.896,265.864 330.518,265.600 330.200 C 265.336 329.882,264.519 329.509,263.786 329.371 C 263.052 329.233,262.143 328.779,261.764 328.360 C 261.386 327.942,260.789 327.597,260.438 327.593 C 259.780 327.585,256.685 325.692,255.566 324.612 C 255.218 324.275,254.785 324.000,254.604 324.000 C 254.423 324.000,253.686 323.550,252.964 323.000 C 252.243 322.450,251.505 322.000,251.323 322.000 C 251.141 322.000,250.768 321.640,250.493 321.200 C 250.210 320.748,249.560 320.400,248.997 320.400 L 248.000 320.400 248.000 338.419 L 248.000 356.438 249.100 357.400 C 249.705 357.929,250.740 358.480,251.400 358.624 C 252.060 358.768,253.161 359.227,253.847 359.643 C 254.533 360.059,255.526 360.400,256.053 360.400 C 256.580 360.400,257.655 360.745,258.440 361.166 C 259.226 361.587,260.753 362.061,261.834 362.219 C 262.916 362.377,264.610 362.817,265.600 363.197 C 266.590 363.576,268.670 364.000,270.221 364.139 C 271.773 364.277,273.933 364.662,275.021 364.992 C 280.526 366.665,314.072 366.668,318.810 364.997 C 319.710 364.679,321.836 364.245,323.534 364.032 C 325.233 363.819,327.157 363.366,327.811 363.025 C 328.465 362.684,329.540 362.402,330.200 362.399 C 330.860 362.395,332.300 361.950,333.400 361.409 C 334.500 360.868,335.783 360.419,336.251 360.413 C 336.719 360.406,337.329 360.126,337.607 359.792 C 337.885 359.457,338.897 358.986,339.856 358.744 C 340.815 358.503,341.600 358.168,341.600 358.001 C 341.600 357.834,342.185 357.462,342.900 357.175 C 343.615 356.889,344.709 356.237,345.331 355.727 C 345.953 355.217,346.628 354.800,346.831 354.800 C 347.034 354.800,347.549 354.485,347.975 354.100 C 348.401 353.715,349.222 353.040,349.800 352.600 C 352.224 350.754,358.400 344.290,358.400 343.598 C 358.400 343.413,358.812 342.753,359.316 342.131 C 359.819 341.509,360.448 340.550,360.713 340.000 C 360.978 339.450,361.360 338.730,361.562 338.400 C 362.545 336.795,363.971 333.229,364.202 331.800 C 364.343 330.920,364.709 329.811,365.015 329.337 C 366.635 326.819,366.641 303.612,365.022 301.064 C 364.720 300.589,364.264 299.165,364.008 297.900 C 363.753 296.635,363.383 295.600,363.188 295.600 C 362.992 295.600,362.609 294.835,362.336 293.900 C 362.063 292.965,361.620 292.064,361.350 291.897 C 361.081 291.730,360.653 290.965,360.399 290.197 C 360.145 289.429,359.767 288.800,359.559 288.800 C 359.351 288.800,359.020 288.378,358.824 287.863 C 358.139 286.062,348.268 276.000,347.187 276.000 C 346.999 276.000,346.610 275.676,346.323 275.280 C 346.035 274.884,345.215 274.322,344.500 274.031 C 343.785 273.741,343.200 273.378,343.200 273.226 C 343.200 273.073,342.615 272.641,341.900 272.266 C 341.185 271.890,339.880 271.145,339.000 270.609 C 338.120 270.073,336.655 269.281,335.744 268.850 C 334.833 268.419,333.968 267.871,333.820 267.633 C 333.673 267.395,333.228 267.200,332.830 267.200 C 332.433 267.200,331.664 266.851,331.122 266.425 C 330.580 265.998,329.611 265.525,328.968 265.372 C 328.326 265.220,327.440 264.781,327.000 264.397 C 326.560 264.013,325.543 263.582,324.740 263.439 C 323.937 263.296,323.070 262.925,322.813 262.615 C 322.555 262.305,321.772 261.930,321.072 261.783 C 320.373 261.635,319.239 261.173,318.553 260.757 C 317.867 260.341,317.036 260.000,316.707 260.000 C 316.377 260.000,315.679 259.663,315.154 259.252 C 314.629 258.841,313.570 258.367,312.800 258.200 C 312.030 258.033,310.971 257.559,310.446 257.148 C 309.921 256.737,309.181 256.400,308.800 256.400 C 308.419 256.400,307.664 256.051,307.122 255.625 C 306.580 255.198,305.642 254.725,305.036 254.573 C 304.431 254.421,303.845 254.061,303.734 253.773 C 303.624 253.485,303.010 253.134,302.371 252.994 C 301.732 252.853,301.106 252.571,300.979 252.367 C 300.853 252.162,299.546 251.208,298.075 250.246 C 294.021 247.596,289.200 242.266,289.200 240.434 C 289.200 240.180,288.892 239.502,288.516 238.928 C 287.009 236.628,288.042 229.583,290.293 226.808 C 292.008 224.694,295.418 221.600,296.034 221.600 C 296.235 221.600,296.760 221.240,297.200 220.800 C 297.640 220.360,298.384 220.000,298.853 220.000 C 299.322 220.000,300.267 219.659,300.953 219.242 C 301.639 218.826,303.010 218.362,304.000 218.212 C 304.990 218.063,306.610 217.639,307.600 217.270 C 310.178 216.311,326.898 216.324,329.600 217.287 C 330.590 217.641,332.570 218.055,334.000 218.209 C 335.430 218.362,337.355 218.828,338.278 219.244 C 339.201 219.660,340.464 220.000,341.084 220.000 C 341.704 220.000,342.839 220.336,343.606 220.747 C 344.373 221.157,345.630 221.627,346.400 221.791 C 347.170 221.955,348.070 222.322,348.400 222.607 C 348.730 222.892,349.746 223.324,350.659 223.567 C 351.571 223.810,352.421 224.277,352.546 224.604 C 352.672 224.932,353.096 225.203,353.487 225.207 C 353.879 225.211,354.998 225.755,355.973 226.416 C 358.729 228.283,358.600 229.091,358.600 209.978 L 358.600 192.622 356.857 192.325 C 355.899 192.161,354.866 191.820,354.561 191.568 C 354.257 191.315,352.726 190.864,351.159 190.566 C 349.592 190.267,348.088 189.839,347.818 189.615 C 347.548 189.391,345.633 189.027,343.563 188.806 C 341.494 188.586,338.900 188.122,337.800 187.777 C 335.499 187.054,309.045 186.613,301.800 187.177 M93.067 190.667 C 92.920 190.813,92.800 197.833,92.800 206.267 L 92.800 221.600 117.386 221.600 C 141.284 221.600,141.983 221.622,142.386 222.374 C 142.667 222.899,142.800 245.793,142.800 293.578 L 142.800 364.008 161.900 363.904 L 181.000 363.800 181.101 293.219 C 181.171 244.727,181.333 222.507,181.621 222.219 C 181.899 221.941,190.258 221.733,206.520 221.600 L 231.000 221.400 231.200 206.260 C 231.384 192.352,231.345 191.091,230.726 190.760 C 229.952 190.346,93.480 190.253,93.067 190.667 M0.000 385.367 L 0.000 400.000 14.633 400.000 C 26.101 400.000,29.231 399.893,29.101 399.504 C 29.010 399.231,28.052 398.860,26.971 398.678 C 25.891 398.497,24.735 398.105,24.403 397.806 C 24.072 397.507,23.260 397.129,22.600 396.965 C 21.940 396.802,20.950 396.362,20.400 395.988 C 19.850 395.614,18.347 394.609,17.060 393.754 C 15.773 392.899,14.323 391.930,13.838 391.600 C 12.699 390.825,9.175 387.301,8.400 386.162 C 8.070 385.677,7.101 384.227,6.246 382.940 C 5.391 381.653,4.386 380.150,4.012 379.600 C 3.638 379.050,3.198 378.060,3.035 377.400 C 2.871 376.740,2.493 375.928,2.194 375.597 C 1.895 375.265,1.503 374.109,1.322 373.029 C 1.140 371.948,0.769 370.990,0.496 370.899 C 0.107 370.769,0.000 373.899,0.000 385.367 M399.075 371.100 C 398.980 371.265,398.780 372.240,398.631 373.267 C 398.483 374.294,398.111 375.342,397.806 375.595 C 397.501 375.848,397.127 376.621,396.975 377.312 C 396.824 378.003,396.386 379.026,396.004 379.584 C 395.621 380.143,394.609 381.653,393.754 382.940 C 392.899 384.227,391.930 385.677,391.600 386.162 C 390.825 387.301,387.301 390.825,386.162 391.600 C 385.677 391.930,384.227 392.899,382.940 393.754 C 381.653 394.609,380.150 395.614,379.600 395.988 C 379.050 396.362,378.060 396.802,377.400 396.965 C 376.740 397.129,375.928 397.507,375.597 397.806 C 375.265 398.105,374.109 398.497,373.029 398.678 C 371.948 398.860,370.990 399.231,370.899 399.504 C 370.769 399.893,373.899 400.000,385.367 400.000 L 400.000 400.000 400.000 385.400 C 400.000 372.248,399.840 369.771,399.075 371.100 " stroke="none" fill="#fafafb" fill-rule="evenodd"></path><path id="path1" d="M34.400 0.557 C 34.400 1.339,33.469 1.639,29.857 2.021 C 28.000 2.218,26.434 2.608,26.030 2.973 C 25.655 3.312,24.729 3.707,23.974 3.849 C 23.218 3.991,22.240 4.423,21.800 4.808 C 21.360 5.193,20.550 5.641,20.000 5.804 C 19.450 5.966,18.678 6.437,18.284 6.850 C 17.891 7.262,17.370 7.600,17.127 7.600 C 16.635 7.600,16.268 7.929,12.098 12.098 C 7.929 16.268,7.600 16.635,7.600 17.127 C 7.600 17.370,7.262 17.891,6.850 18.284 C 6.437 18.678,5.966 19.450,5.804 20.000 C 5.641 20.550,5.193 21.360,4.808 21.800 C 4.423 22.240,3.991 23.218,3.849 23.974 C 3.707 24.729,3.312 25.655,2.973 26.030 C 2.608 26.434,2.218 28.000,2.021 29.857 C 1.639 33.469,1.339 34.400,0.557 34.400 C 0.082 34.400,0.000 58.719,0.000 200.000 C 0.000 341.281,0.082 365.600,0.557 365.600 C 1.339 365.600,1.639 366.531,2.021 370.143 C 2.218 372.000,2.608 373.566,2.973 373.970 C 3.312 374.345,3.707 375.271,3.849 376.026 C 3.991 376.782,4.423 377.760,4.808 378.200 C 5.193 378.640,5.641 379.450,5.804 380.000 C 5.966 380.550,6.437 381.322,6.850 381.716 C 7.262 382.109,7.600 382.630,7.600 382.873 C 7.600 383.360,7.887 383.680,12.104 387.893 C 16.371 392.156,16.643 392.400,17.127 392.400 C 17.370 392.400,17.891 392.738,18.284 393.150 C 18.678 393.563,19.450 394.034,20.000 394.196 C 20.550 394.359,21.360 394.807,21.800 395.192 C 22.240 395.577,23.218 396.009,23.974 396.151 C 24.729 396.293,25.655 396.688,26.030 397.027 C 26.434 397.392,28.000 397.782,29.857 397.979 C 33.469 398.361,34.400 398.661,34.400 399.443 C 34.400 399.918,58.719 400.000,200.000 400.000 C 342.921 400.000,365.600 399.922,365.600 399.431 C 365.600 398.715,367.460 398.141,370.770 397.835 C 372.183 397.704,373.635 397.330,373.996 397.004 C 374.357 396.677,375.271 396.293,376.026 396.151 C 376.782 396.009,377.760 395.577,378.200 395.192 C 378.640 394.807,379.450 394.359,380.000 394.196 C 380.550 394.034,381.322 393.563,381.716 393.150 C 382.109 392.738,382.630 392.400,382.873 392.400 C 383.365 392.400,383.732 392.071,387.902 387.902 C 392.071 383.732,392.400 383.365,392.400 382.873 C 392.400 382.630,392.738 382.109,393.150 381.716 C 393.563 381.322,394.034 380.550,394.196 380.000 C 394.359 379.450,394.807 378.640,395.192 378.200 C 395.577 377.760,396.009 376.782,396.151 376.026 C 396.293 375.271,396.677 374.357,397.004 373.996 C 397.330 373.635,397.704 372.183,397.835 370.770 C 398.141 367.460,398.715 365.600,399.431 365.600 C 399.922 365.600,400.000 342.921,400.000 200.000 C 400.000 57.079,399.922 34.400,399.431 34.400 C 398.715 34.400,398.141 32.540,397.835 29.230 C 397.704 27.817,397.330 26.365,397.004 26.004 C 396.677 25.643,396.293 24.729,396.151 23.974 C 396.009 23.218,395.577 22.240,395.192 21.800 C 394.807 21.360,394.359 20.550,394.196 20.000 C 394.034 19.450,393.563 18.678,393.150 18.284 C 392.738 17.891,392.400 17.370,392.400 17.127 C 392.400 16.635,392.071 16.268,387.902 12.098 C 383.732 7.929,383.365 7.600,382.873 7.600 C 382.630 7.600,382.109 7.262,381.716 6.850 C 381.322 6.437,380.550 5.966,380.000 5.804 C 379.450 5.641,378.640 5.193,378.200 4.808 C 377.760 4.423,376.782 3.991,376.026 3.849 C 375.271 3.707,374.345 3.312,373.970 2.973 C 373.566 2.608,372.000 2.218,370.143 2.021 C 366.531 1.639,365.600 1.339,365.600 0.557 C 365.600 0.082,341.281 0.000,200.000 0.000 C 58.719 0.000,34.400 0.082,34.400 0.557 M328.295 185.543 C 328.803 185.815,331.746 186.127,335.095 186.264 C 338.894 186.419,341.499 186.716,342.400 187.095 C 343.170 187.419,345.215 187.835,346.943 188.020 C 348.843 188.222,350.364 188.606,350.789 188.990 C 351.174 189.339,352.460 189.736,353.645 189.873 C 354.830 190.010,356.229 190.454,356.754 190.861 C 357.279 191.267,358.022 191.600,358.405 191.600 C 360.169 191.600,360.200 191.938,360.200 210.951 L 360.200 228.980 359.046 229.386 C 358.048 229.738,357.812 229.672,357.297 228.896 C 356.970 228.403,356.489 228.000,356.229 228.000 C 355.968 228.000,355.145 227.550,354.400 227.000 C 353.655 226.450,352.742 226.000,352.371 226.000 C 352.001 226.000,351.475 225.731,351.202 225.403 C 350.930 225.074,349.963 224.608,349.053 224.366 C 348.144 224.124,347.130 223.688,346.800 223.397 C 346.470 223.106,345.480 222.741,344.600 222.585 C 343.720 222.430,342.439 221.965,341.753 221.551 C 341.067 221.138,339.804 220.800,338.947 220.800 C 338.090 220.800,336.754 220.460,335.978 220.044 C 334.988 219.514,333.262 219.200,330.184 218.990 C 327.773 218.826,325.102 218.447,324.250 218.146 C 322.421 217.502,314.184 217.398,312.603 217.999 C 312.025 218.218,309.809 218.599,307.677 218.844 C 305.265 219.121,303.329 219.575,302.553 220.045 C 301.867 220.460,300.860 220.800,300.315 220.800 C 299.770 220.800,299.013 221.144,298.633 221.564 C 298.252 221.984,297.484 222.443,296.925 222.583 C 296.075 222.796,293.380 225.255,290.917 228.065 C 289.382 229.816,289.426 240.299,290.974 241.431 C 291.318 241.682,291.602 242.048,291.604 242.244 C 291.606 242.440,292.493 243.500,293.574 244.600 C 296.793 247.875,297.841 248.800,298.333 248.800 C 298.590 248.800,298.800 248.989,298.800 249.220 C 298.800 249.452,299.399 249.891,300.132 250.197 C 300.864 250.503,301.696 251.034,301.981 251.377 C 302.265 251.720,302.836 252.000,303.249 252.000 C 303.662 252.000,304.355 252.355,304.790 252.790 C 305.224 253.224,306.079 253.702,306.690 253.851 C 307.300 254.000,308.213 254.442,308.719 254.833 C 309.224 255.225,310.157 255.659,310.791 255.798 C 311.426 255.937,312.155 256.305,312.413 256.615 C 312.670 256.925,313.537 257.297,314.340 257.443 C 315.143 257.588,316.122 258.042,316.516 258.453 C 316.909 258.864,317.736 259.200,318.354 259.200 C 318.971 259.200,319.782 259.538,320.155 259.950 C 320.529 260.363,321.459 260.802,322.223 260.926 C 322.987 261.050,324.084 261.523,324.660 261.976 C 325.236 262.429,326.109 262.800,326.600 262.800 C 327.091 262.800,327.921 263.133,328.446 263.539 C 328.971 263.945,329.940 264.410,330.600 264.571 C 331.260 264.733,332.122 265.210,332.516 265.632 C 332.909 266.055,333.560 266.400,333.962 266.400 C 334.363 266.400,335.121 266.722,335.646 267.116 C 336.171 267.510,337.050 268.058,337.600 268.335 C 338.150 268.612,339.320 269.273,340.200 269.804 C 341.080 270.336,342.442 271.124,343.227 271.556 C 344.011 271.988,344.889 272.625,345.176 272.971 C 345.463 273.317,345.940 273.600,346.235 273.600 C 346.530 273.600,346.965 273.960,347.200 274.400 C 347.435 274.840,347.833 275.200,348.083 275.200 C 349.413 275.200,359.600 285.385,359.600 286.715 C 359.600 286.913,359.960 287.402,360.400 287.800 C 360.840 288.198,361.200 288.759,361.200 289.046 C 361.200 289.334,361.533 289.891,361.940 290.284 C 362.348 290.678,362.880 291.590,363.124 292.312 C 363.367 293.033,363.844 293.901,364.183 294.240 C 364.523 294.580,364.800 295.450,364.800 296.175 C 364.800 296.899,365.141 297.926,365.559 298.456 C 366.037 299.064,366.427 300.447,366.614 302.195 C 366.778 303.720,367.192 305.606,367.535 306.384 C 368.458 308.480,368.452 321.582,367.526 323.658 C 367.169 324.459,366.748 326.481,366.592 328.150 C 366.396 330.236,366.072 331.456,365.554 332.053 C 365.139 332.531,364.800 333.501,364.800 334.207 C 364.800 334.914,364.451 335.936,364.025 336.478 C 363.598 337.020,363.125 337.958,362.973 338.564 C 362.821 339.169,362.466 339.753,362.185 339.861 C 361.903 339.969,361.554 340.528,361.410 341.102 C 361.266 341.676,360.711 342.698,360.178 343.373 C 359.644 344.048,358.890 345.026,358.504 345.546 C 356.200 348.643,352.673 352.016,348.600 355.018 C 348.160 355.342,347.234 356.055,346.542 356.604 C 345.850 357.152,345.022 357.600,344.701 357.600 C 344.380 357.600,343.631 358.050,343.038 358.600 C 342.444 359.150,341.546 359.600,341.041 359.600 C 340.537 359.600,339.798 359.960,339.400 360.400 C 339.002 360.840,338.188 361.200,337.592 361.200 C 336.996 361.200,336.058 361.554,335.508 361.987 C 334.958 362.419,333.718 362.892,332.754 363.038 C 331.789 363.183,330.439 363.639,329.753 364.051 C 328.944 364.536,327.746 364.800,326.347 364.800 C 325.008 364.800,323.659 365.083,322.794 365.544 C 321.794 366.078,320.100 366.367,316.800 366.566 C 314.270 366.718,311.300 367.145,310.200 367.513 C 307.305 368.483,287.291 368.476,284.000 367.504 C 282.790 367.146,279.640 366.729,277.000 366.578 C 273.659 366.385,271.690 366.073,270.522 365.551 C 269.571 365.125,267.935 364.800,266.748 364.800 C 265.525 364.800,263.976 364.483,263.026 364.039 C 262.132 363.620,260.547 363.159,259.505 363.015 C 258.462 362.871,257.347 362.489,257.025 362.168 C 256.704 361.846,255.615 361.429,254.606 361.241 C 253.597 361.052,252.463 360.626,252.086 360.293 C 251.709 359.961,250.851 359.573,250.181 359.430 C 249.510 359.288,248.475 358.721,247.881 358.170 L 246.800 357.168 246.800 338.217 C 246.800 327.793,246.909 318.981,247.043 318.633 C 247.384 317.744,248.689 317.845,249.200 318.800 C 249.435 319.240,249.973 319.600,250.394 319.600 C 250.816 319.600,251.305 319.858,251.481 320.173 C 251.902 320.925,254.310 322.673,255.700 323.234 C 256.305 323.478,256.800 323.821,256.800 323.996 C 256.800 324.170,257.520 324.601,258.400 324.953 C 259.280 325.305,260.000 325.768,260.000 325.981 C 260.000 326.195,260.701 326.558,261.559 326.789 C 262.416 327.020,263.211 327.451,263.325 327.748 C 263.438 328.044,264.274 328.405,265.181 328.551 C 266.088 328.696,266.930 329.072,267.051 329.388 C 267.172 329.703,268.067 330.081,269.040 330.227 C 270.013 330.373,271.241 330.831,271.768 331.246 C 272.333 331.690,273.364 332.000,274.279 332.000 C 275.132 332.000,276.544 332.376,277.415 332.836 C 278.516 333.417,280.161 333.761,282.800 333.963 C 284.890 334.123,287.050 334.512,287.600 334.827 C 289.033 335.648,303.165 335.659,304.152 334.839 C 304.524 334.531,306.263 334.153,308.017 333.998 C 310.169 333.809,311.456 333.493,311.972 333.025 C 312.393 332.644,313.487 332.232,314.403 332.109 C 315.320 331.986,316.156 331.658,316.263 331.379 C 316.370 331.101,317.030 330.641,317.729 330.357 C 318.428 330.073,319.235 329.516,319.523 329.120 C 319.810 328.724,320.305 328.400,320.623 328.400 C 320.940 328.400,321.200 328.140,321.200 327.823 C 321.200 327.505,321.540 327.007,321.956 326.716 C 322.372 326.425,322.941 325.422,323.221 324.488 C 323.501 323.555,323.970 322.591,324.265 322.346 C 325.064 321.683,325.012 314.674,324.203 314.002 C 323.874 313.730,323.415 312.798,323.182 311.932 C 322.949 311.066,322.483 310.052,322.148 309.679 C 319.434 306.657,317.304 304.503,316.800 304.274 C 316.470 304.123,315.390 303.374,314.400 302.609 C 313.410 301.844,312.037 300.962,311.349 300.650 C 310.661 300.337,309.984 299.897,309.844 299.672 C 309.705 299.446,309.068 299.147,308.429 299.006 C 307.790 298.866,307.177 298.517,307.067 298.232 C 306.958 297.946,306.043 297.504,305.034 297.250 C 304.025 296.996,303.200 296.618,303.200 296.410 C 303.200 296.202,302.435 295.811,301.500 295.540 C 300.565 295.270,299.371 294.723,298.846 294.324 C 298.321 293.926,297.494 293.600,297.007 293.600 C 296.521 293.600,295.734 293.263,295.258 292.851 C 294.783 292.439,293.695 291.990,292.841 291.853 C 291.986 291.716,291.190 291.351,291.072 291.042 C 290.953 290.733,290.128 290.357,289.240 290.207 C 288.351 290.057,287.185 289.589,286.649 289.167 C 286.113 288.745,285.321 288.400,284.891 288.400 C 284.460 288.400,283.679 288.063,283.154 287.652 C 282.629 287.241,281.634 286.781,280.941 286.629 C 280.249 286.478,279.366 286.005,278.979 285.577 C 278.593 285.150,277.979 284.800,277.616 284.800 C 277.253 284.800,276.345 284.350,275.600 283.800 C 274.855 283.250,274.018 282.800,273.742 282.800 C 273.466 282.800,273.096 282.564,272.920 282.277 C 272.744 281.989,272.015 281.517,271.300 281.228 C 270.585 280.939,270.000 280.555,270.000 280.373 C 270.000 280.192,269.575 279.809,269.056 279.522 C 264.585 277.051,253.600 266.146,253.600 264.178 C 253.600 263.907,253.348 263.589,253.040 263.471 C 252.732 263.353,252.268 262.613,252.009 261.828 C 251.750 261.043,251.379 260.400,251.184 260.400 C 250.990 260.400,250.627 259.635,250.378 258.700 C 250.129 257.765,249.665 256.708,249.347 256.351 C 249.028 255.994,248.618 254.824,248.434 253.751 C 248.251 252.678,247.768 251.170,247.362 250.400 C 246.163 248.129,246.246 226.807,247.461 224.789 C 247.921 224.025,248.409 222.530,248.545 221.467 C 248.682 220.404,249.155 219.075,249.597 218.513 C 250.039 217.952,250.400 217.094,250.400 216.608 C 250.400 216.122,250.760 215.398,251.200 215.000 C 251.640 214.602,252.000 213.972,252.000 213.601 C 252.000 213.230,252.369 212.493,252.819 211.963 C 253.269 211.434,254.173 210.280,254.827 209.400 C 258.096 205.003,262.510 200.418,263.486 200.406 C 263.753 200.403,264.165 200.040,264.400 199.600 C 264.635 199.160,265.082 198.800,265.391 198.800 C 265.701 198.800,266.191 198.485,266.481 198.100 C 267.066 197.321,268.638 196.339,270.900 195.341 C 271.725 194.977,272.400 194.540,272.400 194.370 C 272.400 194.201,273.075 193.845,273.900 193.580 C 274.725 193.316,275.670 192.868,276.000 192.587 C 276.330 192.305,277.410 191.861,278.400 191.600 C 279.390 191.339,280.470 190.894,280.800 190.612 C 281.130 190.329,282.300 189.970,283.400 189.813 C 284.500 189.657,285.691 189.269,286.046 188.951 C 286.402 188.633,288.022 188.219,289.646 188.030 C 291.271 187.841,293.140 187.398,293.800 187.046 C 294.587 186.625,296.032 186.401,298.000 186.394 C 300.939 186.384,304.209 185.975,307.400 185.219 C 309.718 184.669,327.170 184.940,328.295 185.543 M231.466 189.225 C 233.205 189.886,233.187 189.717,233.194 206.051 C 233.199 219.938,233.133 221.558,232.539 222.051 C 231.998 222.500,227.425 222.620,207.336 222.712 L 182.794 222.824 182.808 293.512 L 182.822 364.200 181.711 365.098 L 180.600 365.996 161.723 365.998 L 142.845 366.000 142.223 365.111 C 141.665 364.315,141.600 356.863,141.600 293.511 L 141.600 222.800 117.626 222.800 C 103.017 222.800,93.251 222.648,92.626 222.410 L 91.600 222.020 91.600 206.210 C 91.600 190.933,91.627 190.373,92.400 189.600 C 93.333 188.667,229.035 188.301,231.466 189.225 " stroke="none" fill="#337bc4" fill-rule="evenodd"></path><path id="path2" d="M31.443 0.633 C 31.293 1.023,31.382 1.206,31.675 1.108 C 32.273 0.909,32.602 -0.000,32.076 0.000 C 31.861 0.000,31.576 0.285,31.443 0.633 M367.692 0.475 C 367.779 0.736,368.064 1.021,368.325 1.108 C 368.618 1.206,368.707 1.023,368.557 0.633 C 368.278 -0.094,367.452 -0.245,367.692 0.475 M0.400 31.600 C 0.083 31.796,-0.044 32.089,0.118 32.252 C 0.281 32.414,0.623 32.337,0.880 32.080 C 1.484 31.476,1.147 31.138,0.400 31.600 M398.892 31.675 C 399.091 32.273,400.000 32.602,400.000 32.076 C 400.000 31.861,399.715 31.576,399.367 31.443 C 398.977 31.293,398.794 31.382,398.892 31.675 M311.500 185.889 C 312.215 185.978,313.385 185.978,314.100 185.889 C 314.815 185.801,314.230 185.728,312.800 185.728 C 311.370 185.728,310.785 185.801,311.500 185.889 M317.712 185.895 C 318.764 185.977,320.384 185.976,321.312 185.892 C 322.240 185.808,321.380 185.741,319.400 185.742 C 317.420 185.743,316.660 185.812,317.712 185.895 M306.705 186.283 C 307.202 186.379,307.922 186.375,308.305 186.275 C 308.687 186.175,308.280 186.096,307.400 186.101 C 306.520 186.105,306.207 186.187,306.705 186.283 M324.900 186.287 C 325.505 186.378,326.495 186.378,327.100 186.287 C 327.705 186.195,327.210 186.120,326.000 186.120 C 324.790 186.120,324.295 186.195,324.900 186.287 M302.100 186.676 C 302.485 186.776,303.115 186.776,303.500 186.676 C 303.885 186.575,303.570 186.493,302.800 186.493 C 302.030 186.493,301.715 186.575,302.100 186.676 M331.105 186.683 C 331.602 186.779,332.322 186.775,332.705 186.675 C 333.087 186.575,332.680 186.496,331.800 186.501 C 330.920 186.505,330.607 186.587,331.105 186.683 M127.500 189.900 C 146.475 189.957,177.525 189.957,196.500 189.900 C 215.475 189.843,199.950 189.795,162.000 189.795 C 124.050 189.795,108.525 189.843,127.500 189.900 M92.088 206.076 C 92.039 214.588,92.135 221.636,92.300 221.739 C 92.573 221.908,92.566 209.657,92.286 196.000 C 92.225 193.030,92.136 197.564,92.088 206.076 M358.696 192.436 C 359.069 192.914,359.218 197.373,359.300 210.436 L 359.409 227.800 359.504 210.349 C 359.593 194.138,359.550 192.859,358.900 192.349 C 358.281 191.863,358.257 191.873,358.696 192.436 M316.512 217.095 C 317.564 217.177,319.184 217.176,320.112 217.092 C 321.040 217.008,320.180 216.941,318.200 216.942 C 316.220 216.943,315.460 217.012,316.512 217.095 M331.700 218.676 C 332.085 218.776,332.715 218.776,333.100 218.676 C 333.485 218.575,333.170 218.493,332.400 218.493 C 331.630 218.493,331.315 218.575,331.700 218.676 M105.329 222.300 C 112.110 222.361,123.090 222.361,129.729 222.300 C 136.368 222.238,130.820 222.188,117.400 222.188 C 103.980 222.188,98.548 222.238,105.329 222.300 M194.900 222.300 C 201.445 222.361,212.155 222.361,218.700 222.300 C 225.245 222.238,219.890 222.188,206.800 222.188 C 193.710 222.188,188.355 222.238,194.900 222.300 M181.785 222.900 C 181.680 223.175,181.641 254.810,181.698 293.200 L 181.802 363.000 181.901 292.933 C 181.980 237.329,182.103 222.825,182.500 222.665 C 182.892 222.507,182.889 222.456,182.487 222.432 C 182.206 222.414,181.889 222.625,181.785 222.900 M142.196 293.400 C 142.196 332.340,142.243 348.211,142.300 328.668 C 142.357 309.126,142.357 277.266,142.300 257.868 C 142.243 238.471,142.196 254.460,142.196 293.400 M288.649 232.215 C 288.512 232.573,288.427 233.796,288.461 234.933 L 288.522 237.000 288.787 234.400 C 289.072 231.618,289.044 231.187,288.649 232.215 M246.960 237.800 C 246.961 241.100,247.022 242.397,247.098 240.682 C 247.173 238.967,247.172 236.267,247.097 234.682 C 247.021 233.097,246.959 234.500,246.960 237.800 M350.000 277.325 C 350.000 277.394,350.585 277.979,351.300 278.625 L 352.600 279.800 351.425 278.500 C 350.330 277.288,350.000 277.016,350.000 277.325 M367.324 311.800 C 367.326 313.120,367.401 313.612,367.490 312.893 C 367.579 312.174,367.577 311.094,367.486 310.493 C 367.395 309.892,367.322 310.480,367.324 311.800 M325.337 318.200 C 325.339 319.960,325.409 320.630,325.493 319.689 C 325.578 318.749,325.577 317.309,325.491 316.489 C 325.405 315.670,325.336 316.440,325.337 318.200 M367.309 318.400 C 367.309 319.390,367.387 319.795,367.482 319.300 C 367.578 318.805,367.578 317.995,367.482 317.500 C 367.387 317.005,367.309 317.410,367.309 318.400 M247.383 338.800 C 247.383 347.930,247.435 351.665,247.500 347.100 C 247.564 342.535,247.564 335.065,247.500 330.500 C 247.435 325.935,247.383 329.670,247.383 338.800 M322.434 326.953 L 321.469 328.200 322.613 327.112 C 323.243 326.514,323.677 325.953,323.579 325.865 C 323.480 325.777,322.965 326.267,322.434 326.953 M365.515 329.810 C 365.392 330.245,365.169 330.960,365.020 331.400 C 364.871 331.840,365.042 331.694,365.400 331.076 C 365.758 330.458,365.981 329.742,365.895 329.486 C 365.810 329.230,365.639 329.376,365.515 329.810 M276.400 333.400 C 276.950 333.714,277.580 333.972,277.800 333.972 C 278.020 333.972,277.750 333.714,277.200 333.400 C 276.650 333.086,276.020 332.828,275.800 332.828 C 275.580 332.828,275.850 333.086,276.400 333.400 M285.000 335.200 C 285.440 335.389,286.070 335.544,286.400 335.544 C 286.778 335.544,286.704 335.417,286.200 335.200 C 285.760 335.011,285.130 334.856,284.800 334.856 C 284.422 334.856,284.496 334.983,285.000 335.200 M152.528 365.100 C 157.768 365.163,166.228 365.163,171.328 365.100 C 176.427 365.036,172.140 364.985,161.800 364.985 C 151.460 364.985,147.287 365.037,152.528 365.100 M271.400 365.200 C 271.840 365.389,272.470 365.544,272.800 365.544 C 273.178 365.544,273.104 365.417,272.600 365.200 C 272.160 365.011,271.530 364.856,271.200 364.856 C 270.822 364.856,270.896 364.983,271.400 365.200 M278.100 366.276 C 278.485 366.376,279.115 366.376,279.500 366.276 C 279.885 366.175,279.570 366.093,278.800 366.093 C 278.030 366.093,277.715 366.175,278.100 366.276 M286.700 367.082 C 287.195 367.178,288.005 367.178,288.500 367.082 C 288.995 366.987,288.590 366.909,287.600 366.909 C 286.610 366.909,286.205 366.987,286.700 367.082 M306.500 367.076 C 306.885 367.176,307.515 367.176,307.900 367.076 C 308.285 366.975,307.970 366.893,307.200 366.893 C 306.430 366.893,306.115 366.975,306.500 367.076 M291.312 367.495 C 292.364 367.577,293.984 367.576,294.912 367.492 C 295.840 367.408,294.980 367.341,293.000 367.342 C 291.020 367.343,290.260 367.412,291.312 367.495 M301.907 367.490 C 302.626 367.579,303.706 367.577,304.307 367.486 C 304.908 367.395,304.320 367.322,303.000 367.324 C 301.680 367.326,301.188 367.401,301.907 367.490 M0.000 367.924 C 0.000 368.139,0.285 368.424,0.633 368.557 C 1.023 368.707,1.206 368.618,1.108 368.325 C 0.909 367.727,0.000 367.398,0.000 367.924 M399.067 367.867 C 398.581 368.353,398.790 368.779,399.400 368.545 C 399.730 368.418,400.000 368.154,400.000 367.957 C 400.000 367.538,399.449 367.484,399.067 367.867 M31.443 399.367 C 31.576 399.715,31.861 400.000,32.076 400.000 C 32.602 400.000,32.273 399.091,31.675 398.892 C 31.382 398.794,31.293 398.977,31.443 399.367 M367.867 399.067 C 367.484 399.449,367.538 400.000,367.957 400.000 C 368.154 400.000,368.418 399.730,368.545 399.400 C 368.779 398.790,368.353 398.581,367.867 399.067 " stroke="none" fill="#94b4dc" fill-rule="evenodd"></path><path id="path3" d="M29.077 0.544 C 28.961 0.845,27.978 1.206,26.876 1.352 C 25.781 1.497,24.673 1.871,24.415 2.182 C 24.156 2.494,23.379 2.873,22.688 3.025 C 21.997 3.176,20.974 3.614,20.416 3.996 C 19.857 4.379,18.347 5.391,17.060 6.246 C 15.773 7.101,14.323 8.070,13.838 8.400 C 12.699 9.175,9.175 12.699,8.400 13.838 C 8.070 14.323,7.101 15.773,6.246 17.060 C 5.391 18.347,4.379 19.857,3.996 20.416 C 3.614 20.974,3.176 21.997,3.025 22.688 C 2.873 23.379,2.494 24.156,2.182 24.415 C 1.871 24.673,1.497 25.781,1.352 26.876 C 1.206 27.978,0.845 28.961,0.544 29.077 C -0.146 29.342,-0.201 31.734,0.488 31.504 C 0.756 31.415,1.208 30.192,1.493 28.787 C 3.934 16.723,16.723 3.934,28.787 1.493 C 30.192 1.208,31.415 0.756,31.504 0.488 C 31.734 -0.201,29.342 -0.146,29.077 0.544 M368.496 0.488 C 368.585 0.756,369.808 1.208,371.213 1.493 C 383.277 3.934,396.066 16.723,398.507 28.787 C 398.792 30.192,399.244 31.415,399.512 31.504 C 400.201 31.734,400.146 29.342,399.456 29.077 C 399.155 28.961,398.794 27.978,398.648 26.876 C 398.503 25.781,398.129 24.673,397.818 24.415 C 397.506 24.156,397.127 23.379,396.975 22.688 C 396.824 21.997,396.386 20.974,396.004 20.416 C 395.621 19.857,394.609 18.347,393.754 17.060 C 392.899 15.773,391.930 14.323,391.600 13.838 C 390.825 12.699,387.301 9.175,386.162 8.400 C 385.677 8.070,384.227 7.101,382.940 6.246 C 381.653 5.391,380.143 4.379,379.584 3.996 C 379.026 3.614,378.003 3.176,377.312 3.025 C 376.621 2.873,375.844 2.494,375.585 2.182 C 375.327 1.871,374.219 1.497,373.124 1.352 C 372.022 1.206,371.039 0.845,370.923 0.544 C 370.658 -0.146,368.266 -0.201,368.496 0.488 M311.200 186.068 C 301.286 186.699,295.937 187.206,295.239 187.579 C 294.829 187.799,293.167 188.184,291.547 188.435 C 289.926 188.686,287.738 189.231,286.685 189.646 C 285.632 190.061,284.369 190.400,283.879 190.400 C 283.389 190.400,282.316 190.760,281.496 191.200 C 280.675 191.640,279.811 192.000,279.577 192.000 C 279.121 192.000,274.999 193.796,274.000 194.429 C 273.670 194.639,272.680 195.171,271.800 195.611 C 265.596 198.717,256.316 207.081,254.060 211.600 C 253.786 212.150,253.124 213.320,252.589 214.200 C 252.054 215.080,251.415 216.250,251.169 216.800 C 250.924 217.350,250.462 218.348,250.143 219.017 C 249.824 219.687,249.206 221.577,248.769 223.217 C 248.332 224.858,247.805 226.830,247.597 227.600 C 246.936 230.048,247.106 245.896,247.821 248.413 C 248.162 249.616,248.625 251.479,248.849 252.553 C 249.073 253.628,249.603 255.155,250.028 255.947 C 250.453 256.740,250.800 257.682,250.800 258.040 C 250.800 258.399,251.160 259.150,251.600 259.709 C 252.040 260.269,252.400 260.865,252.400 261.035 C 252.400 263.378,261.411 273.163,268.200 278.194 C 268.640 278.520,269.450 279.124,270.000 279.537 C 270.550 279.949,271.540 280.589,272.200 280.959 C 272.860 281.329,274.120 282.061,275.000 282.585 C 275.880 283.109,277.950 284.193,279.600 284.993 C 281.250 285.793,282.870 286.618,283.200 286.827 C 283.845 287.233,283.809 287.218,287.400 288.687 C 288.720 289.228,290.718 290.104,291.840 290.635 C 292.962 291.166,294.096 291.600,294.361 291.600 C 294.625 291.600,295.507 291.936,296.321 292.348 C 297.134 292.759,298.610 293.457,299.600 293.899 C 303.748 295.752,306.236 296.911,306.800 297.253 C 307.130 297.453,308.030 297.931,308.800 298.315 C 312.600 300.210,316.925 303.299,319.827 306.190 C 325.155 311.498,327.155 319.043,324.493 323.794 C 324.002 324.671,323.600 325.577,323.600 325.807 C 323.600 326.446,319.958 330.002,318.600 330.689 C 317.940 331.023,317.130 331.508,316.800 331.767 C 315.799 332.553,311.656 334.084,309.054 334.630 C 307.704 334.913,305.729 335.355,304.665 335.612 C 301.823 336.299,286.899 335.885,284.013 335.040 C 282.810 334.688,281.190 334.392,280.413 334.382 C 279.636 334.373,278.280 334.092,277.400 333.758 C 276.520 333.425,274.748 332.891,273.461 332.572 C 272.175 332.252,270.740 331.723,270.272 331.396 C 269.805 331.068,269.093 330.800,268.690 330.800 C 268.288 330.800,267.293 330.452,266.479 330.026 C 265.666 329.600,263.920 328.748,262.600 328.134 C 261.280 327.519,259.750 326.722,259.200 326.361 C 258.650 326.001,256.653 324.699,254.762 323.469 C 252.872 322.239,251.095 320.955,250.813 320.616 C 250.532 320.277,250.113 320.000,249.883 320.000 C 249.652 320.000,249.133 319.701,248.729 319.336 C 247.544 318.263,247.542 318.299,247.560 338.038 L 247.577 356.951 248.688 357.855 C 249.300 358.352,250.325 358.879,250.967 359.026 C 251.608 359.173,252.688 359.631,253.367 360.045 C 254.045 360.459,254.940 360.798,255.356 360.799 C 255.772 360.799,256.852 361.136,257.756 361.546 C 259.582 362.375,263.443 363.441,266.800 364.042 C 268.010 364.259,270.620 364.780,272.600 365.199 C 275.729 365.862,283.494 366.600,295.600 367.385 C 297.470 367.507,300.890 367.429,303.200 367.214 C 305.510 366.998,310.230 366.555,313.690 366.230 C 317.149 365.905,320.299 365.469,320.690 365.261 C 321.080 365.053,322.840 364.665,324.600 364.399 C 326.360 364.133,328.250 363.686,328.800 363.405 C 329.350 363.124,330.595 362.762,331.567 362.601 C 332.538 362.439,333.888 361.969,334.567 361.555 C 335.245 361.141,336.107 360.802,336.483 360.801 C 338.179 360.798,348.084 354.941,351.367 352.000 C 356.276 347.602,360.712 341.962,362.380 338.000 C 362.611 337.450,362.986 336.678,363.213 336.285 C 367.370 329.081,368.504 305.975,365.030 299.257 C 364.683 298.588,364.400 297.756,364.400 297.408 C 364.400 296.859,362.966 293.736,360.907 289.800 C 360.562 289.140,360.036 288.456,359.740 288.280 C 359.443 288.104,359.200 287.771,359.200 287.539 C 359.200 285.540,347.788 275.036,342.089 271.789 C 341.490 271.448,340.280 270.738,339.400 270.212 C 336.118 268.250,331.947 266.094,327.800 264.217 C 326.480 263.619,324.770 262.809,324.000 262.415 C 323.230 262.022,322.027 261.576,321.328 261.424 C 320.628 261.273,319.850 260.902,319.600 260.600 C 319.350 260.298,318.572 259.927,317.872 259.776 C 317.173 259.624,315.970 259.174,315.200 258.775 C 314.430 258.377,312.720 257.570,311.400 256.981 C 310.080 256.392,308.730 255.761,308.400 255.577 C 308.070 255.394,306.360 254.497,304.600 253.584 C 302.840 252.671,301.116 251.671,300.769 251.362 C 300.421 251.053,300.018 250.800,299.873 250.800 C 298.768 250.800,292.648 245.091,290.600 242.149 C 284.305 233.107,292.330 220.592,305.833 218.395 C 307.091 218.190,308.768 217.805,309.560 217.539 C 311.785 216.791,323.872 216.895,327.800 217.695 C 329.560 218.053,332.080 218.467,333.400 218.614 C 334.719 218.762,336.253 219.117,336.808 219.404 C 337.362 219.691,338.855 220.118,340.126 220.352 C 341.396 220.587,342.827 221.054,343.307 221.390 C 343.786 221.725,344.531 222.000,344.963 222.000 C 345.394 222.000,346.569 222.382,347.574 222.850 C 353.383 225.553,354.776 226.274,356.451 227.444 C 357.819 228.400,358.420 228.620,358.751 228.289 C 359.432 227.608,359.382 192.964,358.700 192.527 C 357.957 192.051,355.616 191.184,353.800 190.713 C 352.920 190.485,351.210 189.969,350.000 189.566 C 348.790 189.163,346.720 188.711,345.400 188.562 C 344.080 188.414,342.190 188.044,341.200 187.741 C 340.210 187.438,335.080 186.925,329.800 186.601 C 316.454 185.782,315.921 185.767,311.200 186.068 M337.800 187.777 C 338.900 188.122,341.494 188.586,343.563 188.806 C 345.633 189.027,347.548 189.391,347.818 189.615 C 348.088 189.839,349.592 190.267,351.159 190.566 C 352.726 190.864,354.257 191.315,354.561 191.568 C 354.866 191.820,355.899 192.161,356.857 192.325 L 358.600 192.622 358.600 209.978 C 358.600 229.091,358.729 228.283,355.973 226.416 C 354.998 225.755,353.879 225.211,353.487 225.207 C 353.096 225.203,352.672 224.932,352.546 224.604 C 352.421 224.277,351.571 223.810,350.659 223.567 C 349.746 223.324,348.730 222.892,348.400 222.607 C 348.070 222.322,347.170 221.955,346.400 221.791 C 345.630 221.627,344.373 221.157,343.606 220.747 C 342.839 220.336,341.704 220.000,341.084 220.000 C 340.464 220.000,339.201 219.660,338.278 219.244 C 337.355 218.828,335.430 218.362,334.000 218.209 C 332.570 218.055,330.590 217.641,329.600 217.287 C 326.898 216.324,310.178 216.311,307.600 217.270 C 306.610 217.639,304.990 218.063,304.000 218.212 C 303.010 218.362,301.639 218.826,300.953 219.242 C 300.267 219.659,299.322 220.000,298.853 220.000 C 298.384 220.000,297.640 220.360,297.200 220.800 C 296.760 221.240,296.235 221.600,296.034 221.600 C 295.418 221.600,292.008 224.694,290.293 226.808 C 288.042 229.583,287.009 236.628,288.516 238.928 C 288.892 239.502,289.200 240.180,289.200 240.434 C 289.200 242.266,294.021 247.596,298.075 250.246 C 299.546 251.208,300.853 252.162,300.979 252.367 C 301.106 252.571,301.732 252.853,302.371 252.994 C 303.010 253.134,303.624 253.485,303.734 253.773 C 303.845 254.061,304.431 254.421,305.036 254.573 C 305.642 254.725,306.580 255.198,307.122 255.625 C 307.664 256.051,308.419 256.400,308.800 256.400 C 309.181 256.400,309.921 256.737,310.446 257.148 C 310.971 257.559,312.030 258.033,312.800 258.200 C 313.570 258.367,314.629 258.841,315.154 259.252 C 315.679 259.663,316.377 260.000,316.707 260.000 C 317.036 260.000,317.867 260.341,318.553 260.757 C 319.239 261.173,320.373 261.635,321.072 261.783 C 321.772 261.930,322.555 262.305,322.813 262.615 C 323.070 262.925,323.937 263.296,324.740 263.439 C 325.543 263.582,326.560 264.013,327.000 264.397 C 327.440 264.781,328.326 265.220,328.968 265.372 C 329.611 265.525,330.580 265.998,331.122 266.425 C 331.664 266.851,332.433 267.200,332.830 267.200 C 333.228 267.200,333.673 267.395,333.820 267.633 C 333.968 267.871,334.833 268.419,335.744 268.850 C 336.655 269.281,338.120 270.073,339.000 270.609 C 339.880 271.145,341.185 271.890,341.900 272.266 C 342.615 272.641,343.200 273.073,343.200 273.226 C 343.200 273.378,343.785 273.741,344.500 274.031 C 345.215 274.322,346.035 274.884,346.323 275.280 C 346.610 275.676,346.999 276.000,347.187 276.000 C 348.268 276.000,358.139 286.062,358.824 287.863 C 359.020 288.378,359.351 288.800,359.559 288.800 C 359.767 288.800,360.145 289.429,360.399 290.197 C 360.653 290.965,361.081 291.730,361.350 291.897 C 361.620 292.064,362.063 292.965,362.336 293.900 C 362.609 294.835,362.992 295.600,363.188 295.600 C 363.383 295.600,363.753 296.635,364.008 297.900 C 364.264 299.165,364.720 300.589,365.022 301.064 C 366.641 303.612,366.635 326.819,365.015 329.337 C 364.709 329.811,364.343 330.920,364.202 331.800 C 363.971 333.229,362.545 336.795,361.562 338.400 C 361.360 338.730,360.978 339.450,360.713 340.000 C 360.448 340.550,359.819 341.509,359.316 342.131 C 358.812 342.753,358.400 343.413,358.400 343.598 C 358.400 344.290,352.224 350.754,349.800 352.600 C 349.222 353.040,348.401 353.715,347.975 354.100 C 347.549 354.485,347.034 354.800,346.831 354.800 C 346.628 354.800,345.953 355.217,345.331 355.727 C 344.709 356.237,343.615 356.889,342.900 357.175 C 342.185 357.462,341.600 357.834,341.600 358.001 C 341.600 358.168,340.815 358.503,339.856 358.744 C 338.897 358.986,337.885 359.457,337.607 359.792 C 337.329 360.126,336.719 360.406,336.251 360.413 C 335.783 360.419,334.500 360.868,333.400 361.409 C 332.300 361.950,330.860 362.395,330.200 362.399 C 329.540 362.402,328.465 362.684,327.811 363.025 C 327.157 363.366,325.233 363.819,323.534 364.032 C 321.836 364.245,319.710 364.679,318.810 364.997 C 314.072 366.668,280.526 366.665,275.021 364.992 C 273.933 364.662,271.773 364.277,270.221 364.139 C 268.670 364.000,266.590 363.576,265.600 363.197 C 264.610 362.817,262.916 362.377,261.834 362.219 C 260.753 362.061,259.226 361.587,258.440 361.166 C 257.655 360.745,256.580 360.400,256.053 360.400 C 255.526 360.400,254.533 360.059,253.847 359.643 C 253.161 359.227,252.060 358.768,251.400 358.624 C 250.740 358.480,249.705 357.929,249.100 357.400 L 248.000 356.438 248.000 338.419 L 248.000 320.400 248.997 320.400 C 249.560 320.400,250.210 320.748,250.493 321.200 C 250.768 321.640,251.141 322.000,251.323 322.000 C 251.505 322.000,252.243 322.450,252.964 323.000 C 253.686 323.550,254.423 324.000,254.604 324.000 C 254.785 324.000,255.218 324.275,255.566 324.612 C 256.685 325.692,259.780 327.585,260.438 327.593 C 260.789 327.597,261.386 327.942,261.764 328.360 C 262.143 328.779,263.052 329.233,263.786 329.371 C 264.519 329.509,265.336 329.882,265.600 330.200 C 265.864 330.518,266.737 330.896,267.540 331.040 C 268.343 331.184,269.285 331.549,269.633 331.852 C 269.981 332.155,271.314 332.596,272.595 332.833 C 273.877 333.070,275.302 333.509,275.763 333.808 C 276.223 334.107,277.590 334.465,278.800 334.603 C 280.010 334.741,281.810 335.156,282.800 335.527 C 285.438 336.513,306.381 336.534,308.200 335.552 C 308.860 335.196,310.213 334.786,311.206 334.642 C 312.200 334.497,313.550 334.025,314.206 333.592 C 314.863 333.159,315.670 332.801,316.000 332.795 C 317.712 332.767,322.741 328.222,324.625 325.000 C 326.242 322.237,326.415 314.163,324.900 312.236 C 324.405 311.607,324.000 310.862,324.000 310.580 C 324.000 309.681,318.749 303.949,317.500 303.485 C 317.115 303.342,316.800 303.070,316.800 302.880 C 316.800 302.526,313.118 300.000,312.602 300.000 C 312.444 300.000,311.781 299.550,311.127 299.000 C 310.473 298.450,309.682 298.000,309.369 298.000 C 309.056 298.000,308.440 297.640,308.000 297.200 C 307.560 296.760,306.864 296.400,306.454 296.400 C 306.044 296.400,305.279 296.063,304.754 295.652 C 304.229 295.241,303.227 294.779,302.528 294.626 C 301.828 294.474,301.050 294.102,300.800 293.800 C 300.550 293.498,299.779 293.127,299.088 292.975 C 298.397 292.824,297.374 292.379,296.816 291.987 C 296.257 291.595,295.143 291.163,294.340 291.027 C 293.537 290.890,292.664 290.518,292.400 290.200 C 292.136 289.882,291.263 289.500,290.460 289.353 C 289.657 289.205,288.571 288.750,288.046 288.342 C 287.521 287.934,286.694 287.600,286.207 287.600 C 285.721 287.600,284.920 287.251,284.428 286.825 C 283.937 286.398,283.021 285.936,282.395 285.799 C 281.768 285.661,281.042 285.291,280.781 284.977 C 280.520 284.663,279.608 284.218,278.753 283.987 C 277.899 283.757,277.200 283.418,277.200 283.233 C 277.200 283.048,276.615 282.657,275.900 282.363 C 274.626 281.840,272.572 280.593,271.019 279.400 C 270.589 279.070,270.068 278.800,269.861 278.800 C 269.654 278.800,269.105 278.430,268.642 277.978 C 267.011 276.385,262.878 273.200,262.441 273.200 C 262.199 273.200,262.000 273.048,262.000 272.863 C 262.000 272.678,260.985 271.463,259.745 270.163 C 257.611 267.928,256.689 266.734,254.751 263.700 C 254.295 262.985,253.773 262.400,253.592 262.400 C 253.411 262.400,253.147 261.868,253.004 261.219 C 252.861 260.569,252.421 259.624,252.024 259.119 C 251.628 258.613,251.171 257.570,251.008 256.800 C 250.844 256.030,250.471 255.127,250.178 254.793 C 249.885 254.460,249.446 252.937,249.201 251.409 C 248.957 249.881,248.542 248.371,248.279 248.054 C 247.565 247.193,247.607 228.538,248.326 227.278 C 248.615 226.771,249.017 225.331,249.219 224.077 C 249.421 222.823,249.949 221.085,250.393 220.214 C 250.837 219.343,251.200 218.382,251.200 218.079 C 251.200 217.775,251.560 217.069,252.000 216.509 C 252.440 215.950,252.800 215.178,252.800 214.795 C 252.800 214.412,253.098 213.851,253.462 213.549 C 253.826 213.247,254.368 212.415,254.667 211.700 C 254.966 210.985,255.376 210.400,255.578 210.400 C 255.781 210.400,256.058 210.049,256.194 209.619 C 256.330 209.190,258.187 207.120,260.321 205.020 C 265.673 199.751,265.838 199.600,266.242 199.598 C 266.439 199.596,267.770 198.787,269.200 197.800 C 270.630 196.813,272.001 196.004,272.246 196.002 C 272.491 196.001,273.121 195.663,273.646 195.252 C 274.171 194.841,275.173 194.379,275.872 194.226 C 276.572 194.074,277.355 193.695,277.613 193.385 C 277.870 193.075,278.737 192.705,279.540 192.562 C 280.343 192.419,281.540 191.986,282.200 191.598 C 282.860 191.211,284.300 190.769,285.400 190.616 C 286.500 190.463,287.812 190.073,288.315 189.750 C 288.819 189.426,290.619 189.003,292.315 188.809 C 294.012 188.616,295.940 188.239,296.600 187.972 C 299.793 186.683,333.802 186.521,337.800 187.777 M92.583 190.501 C 92.477 190.777,92.437 197.932,92.495 206.401 L 92.600 221.800 117.054 221.903 C 136.922 221.987,141.591 222.107,141.952 222.543 C 142.275 222.931,142.426 242.587,142.499 293.840 L 142.600 364.600 161.648 364.704 C 177.462 364.790,180.774 364.714,181.154 364.255 C 181.496 363.844,181.611 345.658,181.603 293.242 L 181.593 222.783 182.623 222.391 C 183.251 222.152,192.876 221.998,207.326 221.994 C 221.534 221.990,231.240 221.836,231.600 221.609 C 232.586 220.986,232.717 191.221,231.738 190.505 C 230.726 189.765,92.866 189.761,92.583 190.501 M230.726 190.760 C 231.345 191.091,231.384 192.352,231.200 206.260 L 231.000 221.400 206.520 221.600 C 190.258 221.733,181.899 221.941,181.621 222.219 C 181.333 222.507,181.171 244.727,181.101 293.219 L 181.000 363.800 161.900 363.904 L 142.800 364.008 142.800 293.578 C 142.800 245.793,142.667 222.899,142.386 222.374 C 141.983 221.622,141.284 221.600,117.386 221.600 L 92.800 221.600 92.800 206.267 C 92.800 197.833,92.920 190.813,93.067 190.667 C 93.480 190.253,229.952 190.346,230.726 190.760 M0.000 369.524 C 0.000 370.179,0.245 370.808,0.544 370.923 C 0.845 371.039,1.206 372.022,1.352 373.124 C 1.497 374.219,1.871 375.327,2.182 375.585 C 2.494 375.844,2.873 376.621,3.025 377.312 C 3.176 378.003,3.614 379.026,3.996 379.584 C 4.379 380.143,5.391 381.653,6.246 382.940 C 7.101 384.227,8.070 385.677,8.400 386.162 C 9.175 387.301,12.699 390.825,13.838 391.600 C 14.323 391.930,15.773 392.899,17.060 393.754 C 18.347 394.609,19.857 395.621,20.416 396.004 C 20.974 396.386,21.997 396.824,22.688 396.975 C 23.379 397.127,24.156 397.506,24.415 397.818 C 24.673 398.129,25.781 398.503,26.876 398.648 C 27.978 398.794,28.961 399.155,29.077 399.456 C 29.342 400.146,31.734 400.201,31.504 399.512 C 31.415 399.244,30.192 398.792,28.787 398.507 C 16.723 396.066,3.934 383.277,1.493 371.213 C 0.945 368.508,0.000 367.438,0.000 369.524 M399.014 368.900 C 398.925 369.175,398.654 370.390,398.411 371.600 C 396.069 383.269,383.097 396.102,371.213 398.507 C 369.808 398.792,368.585 399.244,368.496 399.512 C 368.266 400.201,370.658 400.146,370.923 399.456 C 371.039 399.155,372.022 398.794,373.124 398.648 C 374.219 398.503,375.327 398.129,375.585 397.818 C 375.844 397.506,376.621 397.127,377.312 396.975 C 378.003 396.824,379.026 396.386,379.584 396.004 C 380.143 395.621,381.653 394.609,382.940 393.754 C 384.227 392.899,385.677 391.930,386.162 391.600 C 387.301 390.825,390.825 387.301,391.600 386.162 C 391.930 385.677,392.899 384.227,393.754 382.940 C 394.609 381.653,395.621 380.143,396.004 379.584 C 396.386 379.026,396.824 378.003,396.975 377.312 C 397.127 376.621,397.506 375.844,397.818 375.585 C 398.129 375.327,398.503 374.219,398.648 373.124 C 398.794 372.022,399.155 371.039,399.456 370.923 C 400.086 370.682,400.204 368.400,399.587 368.400 C 399.361 368.400,399.102 368.625,399.014 368.900 " stroke="none" fill="#a0bce0" fill-rule="evenodd"></path><path id="path4" d="M32.198 0.611 C 31.973 0.956,30.758 1.385,29.400 1.598 C 26.806 2.006,23.935 3.096,20.107 5.128 C 14.812 7.937,7.937 14.812,5.128 20.107 C 3.101 23.925,2.007 26.803,1.593 29.400 C 1.383 30.720,0.938 32.000,0.605 32.244 C -0.155 32.802,-0.190 34.400,0.557 34.400 C 1.339 34.400,1.639 33.469,2.021 29.857 C 2.218 28.000,2.608 26.434,2.973 26.030 C 3.312 25.655,3.707 24.729,3.849 23.974 C 3.991 23.218,4.423 22.240,4.808 21.800 C 5.193 21.360,5.641 20.550,5.804 20.000 C 5.966 19.450,6.437 18.678,6.850 18.284 C 7.262 17.891,7.600 17.370,7.600 17.127 C 7.600 16.635,7.929 16.268,12.098 12.098 C 16.268 7.929,16.635 7.600,17.127 7.600 C 17.370 7.600,17.891 7.262,18.284 6.850 C 18.678 6.437,19.450 5.966,20.000 5.804 C 20.550 5.641,21.360 5.193,21.800 4.808 C 22.240 4.423,23.218 3.991,23.974 3.849 C 24.729 3.707,25.655 3.312,26.030 2.973 C 26.434 2.608,28.000 2.218,29.857 2.021 C 33.469 1.639,34.400 1.339,34.400 0.557 C 34.400 -0.197,32.697 -0.155,32.198 0.611 M365.600 0.557 C 365.600 1.339,366.531 1.639,370.143 2.021 C 372.000 2.218,373.566 2.608,373.970 2.973 C 374.345 3.312,375.271 3.707,376.026 3.849 C 376.782 3.991,377.760 4.423,378.200 4.808 C 378.640 5.193,379.450 5.641,380.000 5.804 C 380.550 5.966,381.322 6.437,381.716 6.850 C 382.109 7.262,382.630 7.600,382.873 7.600 C 383.365 7.600,383.732 7.929,387.902 12.098 C 392.071 16.268,392.400 16.635,392.400 17.127 C 392.400 17.370,392.738 17.891,393.150 18.284 C 393.563 18.678,394.034 19.450,394.196 20.000 C 394.359 20.550,394.807 21.360,395.192 21.800 C 395.577 22.240,396.009 23.218,396.151 23.974 C 396.293 24.729,396.677 25.643,397.004 26.004 C 397.330 26.365,397.704 27.817,397.835 29.230 C 398.141 32.540,398.715 34.400,399.431 34.400 C 400.185 34.400,400.163 32.809,399.402 32.244 C 399.073 32.000,398.618 30.720,398.391 29.400 C 397.925 26.692,396.824 23.784,394.872 20.107 C 392.063 14.812,385.188 7.937,379.893 5.128 C 376.075 3.101,373.197 2.007,370.600 1.593 C 369.280 1.383,368.000 0.938,367.756 0.605 C 367.198 -0.155,365.600 -0.190,365.600 0.557 M307.400 185.251 C 306.520 185.448,304.900 185.776,303.800 185.980 C 302.351 186.248,302.958 186.275,306.000 186.075 C 311.328 185.726,321.533 185.722,328.000 186.066 C 332.963 186.330,332.634 186.207,325.800 185.238 C 322.361 184.750,309.591 184.759,307.400 185.251 M293.800 187.046 C 293.140 187.398,291.271 187.841,289.646 188.030 C 288.022 188.219,286.402 188.633,286.046 188.951 C 285.691 189.269,284.500 189.657,283.400 189.813 C 282.300 189.970,281.130 190.329,280.800 190.612 C 280.470 190.894,279.390 191.339,278.400 191.600 C 277.410 191.861,276.330 192.305,276.000 192.587 C 275.670 192.868,274.725 193.316,273.900 193.580 C 273.075 193.845,272.400 194.201,272.400 194.370 C 272.400 194.540,271.725 194.977,270.900 195.341 C 268.638 196.339,267.066 197.321,266.481 198.100 C 266.191 198.485,265.701 198.800,265.391 198.800 C 265.082 198.800,264.635 199.160,264.400 199.600 C 264.165 200.040,263.753 200.403,263.486 200.406 C 262.510 200.418,258.096 205.003,254.827 209.400 C 254.173 210.280,253.269 211.434,252.819 211.963 C 252.369 212.493,252.000 213.230,252.000 213.601 C 252.000 213.972,251.640 214.602,251.200 215.000 C 250.760 215.398,250.400 216.122,250.400 216.608 C 250.400 217.094,250.039 217.952,249.597 218.513 C 249.155 219.075,248.682 220.404,248.545 221.467 C 248.409 222.530,247.960 223.961,247.548 224.647 C 246.968 225.615,246.814 226.600,246.860 229.047 L 246.921 232.200 247.204 229.200 C 247.360 227.550,247.782 225.531,248.144 224.713 C 248.505 223.895,248.800 222.832,248.800 222.351 C 248.800 220.859,251.464 215.328,253.949 211.658 C 254.747 210.480,255.580 209.214,255.800 208.844 C 257.071 206.707,263.238 200.825,266.560 198.583 C 267.197 198.152,268.187 197.484,268.760 197.097 C 269.332 196.711,270.520 196.030,271.400 195.585 C 272.280 195.140,273.270 194.619,273.600 194.428 C 275.136 193.539,278.522 192.000,278.943 192.000 C 279.201 192.000,280.078 191.643,280.891 191.207 C 281.705 190.771,283.142 190.296,284.085 190.151 C 285.028 190.007,286.322 189.625,286.959 189.303 C 287.597 188.981,289.392 188.542,290.947 188.326 C 292.503 188.110,294.141 187.733,294.588 187.486 C 295.035 187.240,296.840 186.923,298.600 186.781 L 301.800 186.524 298.400 186.464 C 295.954 186.422,294.663 186.585,293.800 187.046 M336.400 186.804 C 338.270 186.957,340.873 187.378,342.184 187.741 C 343.495 188.103,345.205 188.408,345.984 188.418 C 346.763 188.427,348.120 188.715,349.000 189.056 C 349.880 189.398,351.590 189.898,352.800 190.167 C 354.819 190.617,357.309 191.523,358.800 192.353 C 359.316 192.641,359.415 195.106,359.504 210.061 C 359.625 230.221,359.732 229.578,356.580 227.675 C 355.491 227.017,353.430 225.907,352.000 225.208 C 350.570 224.508,348.770 223.613,348.000 223.218 C 347.230 222.823,345.970 222.366,345.200 222.202 C 344.430 222.038,343.301 221.648,342.690 221.336 C 342.080 221.024,340.550 220.579,339.290 220.348 C 338.031 220.116,336.805 219.765,336.566 219.569 C 336.328 219.373,334.078 218.937,331.566 218.600 C 329.055 218.264,326.280 217.815,325.400 217.604 C 322.862 216.994,312.514 217.110,309.952 217.777 C 308.733 218.095,306.760 218.481,305.568 218.637 C 304.376 218.792,302.773 219.252,302.006 219.660 C 301.239 220.067,300.381 220.400,300.100 220.400 C 297.063 220.400,290.481 226.749,289.497 230.629 C 288.399 234.952,289.042 240.314,290.873 242.116 C 291.273 242.509,291.600 242.972,291.600 243.145 C 291.600 244.338,297.903 249.431,303.400 252.680 C 305.210 253.750,313.072 257.560,314.000 257.817 C 314.550 257.970,315.270 258.327,315.600 258.610 C 315.930 258.894,316.944 259.324,317.853 259.566 C 318.763 259.808,319.730 260.274,320.002 260.603 C 320.275 260.931,320.844 261.200,321.267 261.200 C 321.690 261.200,322.882 261.650,323.915 262.200 C 324.948 262.750,326.037 263.200,326.334 263.200 C 326.631 263.200,327.331 263.560,327.891 264.000 C 328.450 264.440,329.139 264.800,329.421 264.800 C 329.703 264.800,331.164 265.460,332.667 266.268 C 334.170 267.075,336.030 268.067,336.800 268.473 C 338.219 269.221,338.539 269.409,341.400 271.159 C 344.258 272.908,346.187 274.164,346.800 274.673 C 347.130 274.948,348.570 276.139,350.000 277.321 C 354.161 280.761,359.200 286.100,359.200 287.069 C 359.200 287.293,359.515 287.761,359.900 288.110 C 360.725 288.858,363.983 295.336,364.975 298.200 C 365.664 300.191,365.912 301.307,367.019 307.400 C 367.759 311.470,367.764 318.204,367.031 322.256 C 366.719 323.985,366.340 326.478,366.191 327.796 C 366.041 329.114,365.577 330.861,365.159 331.680 C 364.742 332.498,364.396 333.580,364.391 334.084 C 364.386 334.588,364.030 335.450,363.600 336.000 C 363.170 336.550,362.814 337.260,362.809 337.578 C 362.804 337.897,362.391 338.797,361.890 339.578 C 361.390 340.360,360.805 341.288,360.590 341.640 C 357.723 346.345,348.634 355.600,346.880 355.600 C 346.670 355.600,346.265 355.880,345.981 356.223 C 345.696 356.566,344.909 357.102,344.232 357.415 C 343.554 357.728,342.730 358.149,342.400 358.352 C 341.109 359.143,337.502 360.800,337.063 360.804 C 336.808 360.806,335.700 361.250,334.600 361.791 C 333.500 362.332,332.150 362.787,331.600 362.801 C 331.050 362.815,329.880 363.175,329.000 363.600 C 328.120 364.025,326.744 364.379,325.942 364.386 C 325.140 364.394,323.340 364.745,321.942 365.167 C 320.544 365.588,317.870 366.049,316.000 366.191 C 314.130 366.333,310.659 366.708,308.286 367.025 C 302.771 367.760,292.337 367.762,286.188 367.029 C 283.555 366.715,279.704 366.333,277.631 366.181 C 275.558 366.029,272.679 365.566,271.232 365.152 C 269.786 364.738,268.018 364.400,267.303 364.400 C 266.588 364.400,264.967 364.066,263.702 363.658 C 262.436 363.249,260.680 362.724,259.800 362.491 C 258.920 362.258,256.940 361.583,255.400 360.991 C 253.860 360.399,251.866 359.653,250.969 359.333 C 250.073 359.013,248.858 358.305,248.269 357.759 L 247.200 356.768 247.200 338.007 C 247.200 326.972,247.352 319.153,247.569 319.019 C 247.886 318.823,250.123 319.913,251.400 320.884 C 251.620 321.051,252.340 321.601,253.000 322.105 C 255.646 324.127,260.677 327.138,263.600 328.449 C 264.150 328.696,265.503 329.325,266.606 329.849 C 267.709 330.372,268.841 330.800,269.122 330.800 C 269.402 330.800,270.338 331.160,271.200 331.600 C 272.062 332.040,273.270 332.404,273.884 332.409 C 274.498 332.414,275.785 332.774,276.744 333.209 C 277.703 333.644,278.873 333.982,279.344 333.960 C 280.170 333.922,280.172 333.910,279.400 333.638 C 278.960 333.483,277.931 333.051,277.113 332.678 C 276.295 332.305,274.973 332.000,274.176 332.000 C 273.361 332.000,272.306 331.670,271.768 331.246 C 271.241 330.831,270.013 330.373,269.040 330.227 C 268.067 330.081,267.172 329.703,267.051 329.388 C 266.930 329.072,266.088 328.696,265.181 328.551 C 264.274 328.405,263.438 328.044,263.325 327.748 C 263.211 327.451,262.416 327.020,261.559 326.789 C 260.701 326.558,260.000 326.195,260.000 325.981 C 260.000 325.768,259.280 325.305,258.400 324.953 C 257.520 324.601,256.800 324.170,256.800 323.996 C 256.800 323.821,256.305 323.478,255.700 323.234 C 254.310 322.673,251.902 320.925,251.481 320.173 C 251.305 319.858,250.816 319.600,250.394 319.600 C 249.973 319.600,249.435 319.240,249.200 318.800 C 248.689 317.845,247.384 317.744,247.043 318.633 C 246.909 318.981,246.800 327.793,246.800 338.217 L 246.800 357.168 247.881 358.170 C 248.475 358.721,249.510 359.288,250.181 359.430 C 250.851 359.573,251.709 359.961,252.086 360.293 C 252.463 360.626,253.597 361.052,254.606 361.241 C 255.615 361.429,256.704 361.846,257.025 362.168 C 257.347 362.489,258.462 362.871,259.505 363.015 C 260.547 363.159,262.132 363.620,263.026 364.039 C 263.976 364.483,265.525 364.800,266.748 364.800 C 267.935 364.800,269.571 365.125,270.522 365.551 C 271.690 366.073,273.659 366.385,277.000 366.578 C 279.640 366.729,282.790 367.146,284.000 367.504 C 287.291 368.476,307.305 368.483,310.200 367.513 C 311.300 367.145,314.270 366.718,316.800 366.566 C 320.100 366.367,321.794 366.078,322.794 365.544 C 323.659 365.083,325.008 364.800,326.347 364.800 C 327.746 364.800,328.944 364.536,329.753 364.051 C 330.439 363.639,331.789 363.183,332.754 363.038 C 333.718 362.892,334.958 362.419,335.508 361.987 C 336.058 361.554,336.996 361.200,337.592 361.200 C 338.188 361.200,339.002 360.840,339.400 360.400 C 339.798 359.960,340.537 359.600,341.041 359.600 C 341.546 359.600,342.444 359.150,343.038 358.600 C 343.631 358.050,344.380 357.600,344.701 357.600 C 345.022 357.600,345.850 357.152,346.542 356.604 C 347.234 356.055,348.160 355.342,348.600 355.018 C 352.673 352.016,356.200 348.643,358.504 345.546 C 358.890 345.026,359.644 344.048,360.178 343.373 C 360.711 342.698,361.266 341.676,361.410 341.102 C 361.554 340.528,361.903 339.969,362.185 339.861 C 362.466 339.753,362.821 339.169,362.973 338.564 C 363.125 337.958,363.598 337.020,364.025 336.478 C 364.451 335.936,364.800 334.914,364.800 334.207 C 364.800 333.501,365.139 332.531,365.554 332.053 C 366.072 331.456,366.396 330.236,366.592 328.150 C 366.748 326.481,367.169 324.459,367.526 323.658 C 368.452 321.582,368.458 308.480,367.535 306.384 C 367.192 305.606,366.778 303.720,366.614 302.195 C 366.427 300.447,366.037 299.064,365.559 298.456 C 365.141 297.926,364.800 296.899,364.800 296.175 C 364.800 295.450,364.523 294.580,364.183 294.240 C 363.844 293.901,363.367 293.033,363.124 292.312 C 362.880 291.590,362.348 290.678,361.940 290.284 C 361.533 289.891,361.200 289.334,361.200 289.046 C 361.200 288.759,360.840 288.198,360.400 287.800 C 359.960 287.402,359.600 286.913,359.600 286.715 C 359.600 285.385,349.413 275.200,348.083 275.200 C 347.833 275.200,347.435 274.840,347.200 274.400 C 346.965 273.960,346.530 273.600,346.235 273.600 C 345.940 273.600,345.463 273.317,345.176 272.971 C 344.889 272.625,344.011 271.988,343.227 271.556 C 342.442 271.124,341.080 270.336,340.200 269.804 C 339.320 269.273,338.150 268.612,337.600 268.335 C 337.050 268.058,336.171 267.510,335.646 267.116 C 335.121 266.722,334.363 266.400,333.962 266.400 C 333.560 266.400,332.909 266.055,332.516 265.632 C 332.122 265.210,331.260 264.733,330.600 264.571 C 329.940 264.410,328.971 263.945,328.446 263.539 C 327.921 263.133,327.091 262.800,326.600 262.800 C 326.109 262.800,325.236 262.429,324.660 261.976 C 324.084 261.523,322.987 261.050,322.223 260.926 C 321.459 260.802,320.529 260.363,320.155 259.950 C 319.782 259.538,318.971 259.200,318.354 259.200 C 317.736 259.200,316.909 258.864,316.516 258.453 C 316.122 258.042,315.143 257.588,314.340 257.443 C 313.537 257.297,312.670 256.925,312.413 256.615 C 312.155 256.305,311.426 255.937,310.791 255.798 C 310.157 255.659,309.224 255.225,308.719 254.833 C 308.213 254.442,307.300 254.000,306.690 253.851 C 306.079 253.702,305.224 253.224,304.790 252.790 C 304.355 252.355,303.662 252.000,303.249 252.000 C 302.836 252.000,302.265 251.720,301.981 251.377 C 301.696 251.034,300.864 250.503,300.132 250.197 C 299.399 249.891,298.800 249.452,298.800 249.220 C 298.800 248.989,298.590 248.800,298.333 248.800 C 297.841 248.800,296.793 247.875,293.574 244.600 C 292.493 243.500,291.606 242.440,291.604 242.244 C 291.602 242.048,291.318 241.682,290.974 241.431 C 289.426 240.299,289.382 229.816,290.917 228.065 C 293.380 225.255,296.075 222.796,296.925 222.583 C 297.484 222.443,298.252 221.984,298.633 221.564 C 299.013 221.144,299.770 220.800,300.315 220.800 C 300.860 220.800,301.867 220.460,302.553 220.045 C 303.329 219.575,305.265 219.121,307.677 218.844 C 309.809 218.599,312.025 218.218,312.603 217.999 C 314.184 217.398,322.421 217.502,324.250 218.146 C 325.102 218.447,327.773 218.826,330.184 218.990 C 333.262 219.200,334.988 219.514,335.978 220.044 C 336.754 220.460,338.090 220.800,338.947 220.800 C 339.804 220.800,341.067 221.138,341.753 221.551 C 342.439 221.965,343.720 222.430,344.600 222.585 C 345.480 222.741,346.470 223.106,346.800 223.397 C 347.130 223.688,348.144 224.124,349.053 224.366 C 349.963 224.608,350.930 225.074,351.202 225.403 C 351.475 225.731,352.001 226.000,352.371 226.000 C 352.742 226.000,353.655 226.450,354.400 227.000 C 355.145 227.550,355.968 228.000,356.229 228.000 C 356.489 228.000,356.970 228.403,357.297 228.896 C 357.812 229.672,358.048 229.738,359.046 229.386 L 360.200 228.980 360.200 210.951 C 360.200 191.938,360.169 191.600,358.405 191.600 C 358.022 191.600,357.279 191.267,356.754 190.861 C 356.229 190.454,354.830 190.010,353.645 189.873 C 352.460 189.736,351.174 189.339,350.789 188.990 C 350.364 188.606,348.843 188.222,346.943 188.020 C 345.215 187.835,343.131 187.396,342.313 187.042 C 341.239 186.579,339.738 186.418,336.913 186.463 L 333.000 186.527 336.400 186.804 M92.400 189.600 C 91.627 190.373,91.600 190.933,91.600 206.210 L 91.600 222.020 92.626 222.410 C 93.251 222.648,103.017 222.800,117.626 222.800 L 141.600 222.800 141.600 293.511 C 141.600 356.863,141.665 364.315,142.223 365.111 L 142.845 366.000 161.723 365.998 L 180.600 365.996 181.711 365.098 L 182.822 364.200 182.808 293.512 L 182.794 222.824 207.336 222.712 C 227.425 222.620,231.998 222.500,232.539 222.051 C 233.248 221.462,233.576 191.211,232.886 190.125 C 232.065 188.834,230.257 188.800,161.774 188.800 C 93.733 188.800,93.194 188.806,92.400 189.600 M231.379 189.992 L 232.409 190.384 232.305 206.074 L 232.200 221.764 231.200 222.042 C 230.650 222.195,219.640 222.338,206.733 222.360 C 193.826 222.382,182.981 222.509,182.633 222.643 C 182.059 222.863,182.000 229.471,182.000 293.420 L 182.000 363.955 181.111 364.577 C 179.721 365.551,143.810 365.514,142.731 364.538 C 142.028 363.901,142.000 361.160,142.000 293.138 L 142.000 222.400 117.774 222.400 C 101.839 222.400,93.283 222.258,92.774 221.986 C 91.663 221.392,91.558 191.551,92.662 190.331 C 93.424 189.489,229.182 189.157,231.379 189.992 M246.558 237.800 C 246.558 240.880,246.621 242.087,246.697 240.482 C 246.773 238.878,246.773 236.358,246.696 234.882 C 246.619 233.407,246.557 234.720,246.558 237.800 M246.861 246.400 C 246.822 248.504,247.000 249.759,247.457 250.600 C 247.815 251.260,248.257 252.678,248.438 253.751 C 248.620 254.824,249.028 255.994,249.347 256.351 C 249.665 256.708,250.129 257.765,250.378 258.700 C 250.627 259.635,250.990 260.400,251.184 260.400 C 251.379 260.400,251.750 261.043,252.009 261.828 C 252.268 262.613,252.732 263.353,253.040 263.471 C 253.348 263.589,253.600 263.907,253.600 264.178 C 253.600 265.055,255.702 267.584,260.298 272.235 C 264.400 276.386,266.412 278.061,269.056 279.522 C 269.575 279.809,270.000 280.192,270.000 280.373 C 270.000 280.555,270.585 280.939,271.300 281.228 C 272.015 281.517,272.744 281.989,272.920 282.277 C 273.096 282.564,273.466 282.800,273.742 282.800 C 274.018 282.800,274.855 283.250,275.600 283.800 C 276.345 284.350,277.253 284.800,277.616 284.800 C 277.979 284.800,278.593 285.150,278.979 285.577 C 279.366 286.005,280.249 286.478,280.941 286.629 C 281.634 286.781,282.629 287.241,283.154 287.652 C 283.679 288.063,284.460 288.400,284.891 288.400 C 285.321 288.400,286.113 288.745,286.649 289.167 C 287.185 289.589,288.351 290.057,289.240 290.207 C 290.128 290.357,290.953 290.733,291.072 291.042 C 291.190 291.351,291.986 291.716,292.841 291.853 C 293.695 291.990,294.783 292.439,295.258 292.851 C 295.734 293.263,296.521 293.600,297.007 293.600 C 297.494 293.600,298.321 293.926,298.846 294.324 C 299.371 294.723,300.565 295.270,301.500 295.540 C 302.435 295.811,303.200 296.202,303.200 296.410 C 303.200 296.618,304.025 296.996,305.034 297.250 C 306.043 297.504,306.958 297.946,307.067 298.232 C 307.177 298.517,307.790 298.866,308.429 299.006 C 309.068 299.147,309.705 299.446,309.844 299.672 C 309.984 299.897,310.661 300.337,311.349 300.650 C 312.037 300.962,313.410 301.844,314.400 302.609 C 315.390 303.374,316.470 304.123,316.800 304.274 C 317.304 304.503,319.434 306.657,322.148 309.679 C 322.483 310.052,322.949 311.066,323.182 311.932 C 323.415 312.798,323.874 313.730,324.203 314.002 C 325.012 314.674,325.064 321.683,324.265 322.346 C 323.970 322.591,323.501 323.555,323.221 324.488 C 322.941 325.422,322.372 326.425,321.956 326.716 C 321.540 327.007,321.200 327.505,321.200 327.823 C 321.200 328.140,320.940 328.400,320.623 328.400 C 320.305 328.400,319.810 328.724,319.523 329.120 C 319.235 329.516,318.428 330.073,317.729 330.357 C 317.030 330.641,316.370 331.101,316.263 331.379 C 316.156 331.658,315.320 331.986,314.403 332.109 C 313.487 332.232,312.393 332.644,311.972 333.025 C 311.456 333.493,310.169 333.809,308.017 333.998 C 306.263 334.153,304.524 334.531,304.153 334.839 C 303.062 335.745,289.570 335.634,287.292 334.700 C 286.170 334.240,284.660 334.021,282.892 334.060 C 281.411 334.093,280.740 334.185,281.400 334.264 C 282.060 334.343,283.860 334.721,285.400 335.104 C 289.356 336.087,302.871 336.108,305.800 335.136 C 306.900 334.771,308.647 334.370,309.683 334.246 C 310.718 334.122,312.246 333.656,313.077 333.210 C 313.908 332.765,314.842 332.400,315.153 332.400 C 315.463 332.400,316.683 331.759,317.863 330.976 C 329.075 323.534,327.401 310.215,314.200 301.819 C 312.880 300.979,311.312 299.956,310.716 299.546 C 310.120 299.136,309.469 298.800,309.270 298.800 C 309.071 298.800,308.464 298.451,307.922 298.025 C 307.380 297.598,306.411 297.121,305.768 296.964 C 305.126 296.807,304.171 296.345,303.646 295.939 C 303.121 295.533,302.437 295.200,302.125 295.200 C 301.814 295.200,300.893 294.847,300.079 294.415 C 297.758 293.183,294.097 291.600,293.572 291.600 C 293.309 291.600,292.533 291.261,291.847 290.846 C 291.161 290.431,290.150 289.967,289.600 289.815 C 288.421 289.490,286.977 288.834,280.800 285.814 C 275.544 283.246,275.719 283.345,271.257 280.404 C 266.341 277.163,266.384 277.193,264.010 275.220 C 259.238 271.255,253.556 264.418,252.025 260.800 C 251.792 260.250,251.434 259.530,251.229 259.200 C 250.306 257.714,249.192 254.816,248.767 252.800 C 248.513 251.590,248.112 250.240,247.877 249.800 C 247.642 249.360,247.329 247.740,247.183 246.200 L 246.917 243.400 246.861 246.400 M0.000 366.456 C 0.000 366.927,0.272 367.512,0.605 367.756 C 0.938 368.000,1.383 369.280,1.593 370.600 C 2.007 373.197,3.101 376.075,5.128 379.893 C 7.937 385.188,14.812 392.063,20.107 394.872 C 23.925 396.899,26.803 397.993,29.400 398.407 C 30.720 398.617,32.000 399.062,32.244 399.395 C 32.802 400.155,34.400 400.190,34.400 399.443 C 34.400 398.661,33.469 398.361,29.857 397.979 C 28.000 397.782,26.434 397.392,26.030 397.027 C 25.655 396.688,24.729 396.293,23.974 396.151 C 23.218 396.009,22.240 395.577,21.800 395.192 C 21.360 394.807,20.550 394.359,20.000 394.196 C 19.450 394.034,18.678 393.563,18.284 393.150 C 17.891 392.738,17.370 392.400,17.127 392.400 C 16.643 392.400,16.371 392.156,12.104 387.893 C 7.887 383.680,7.600 383.360,7.600 382.873 C 7.600 382.630,7.262 382.109,6.850 381.716 C 6.437 381.322,5.966 380.550,5.804 380.000 C 5.641 379.450,5.193 378.640,4.808 378.200 C 4.423 377.760,3.991 376.782,3.849 376.026 C 3.707 375.271,3.312 374.345,2.973 373.970 C 2.608 373.566,2.218 372.000,2.021 370.143 C 1.838 368.415,1.559 366.685,1.401 366.300 C 0.998 365.316,-0.000 365.427,0.000 366.456 M398.467 366.900 C 398.250 367.615,397.966 369.356,397.835 370.770 C 397.704 372.183,397.330 373.635,397.004 373.996 C 396.677 374.357,396.293 375.271,396.151 376.026 C 396.009 376.782,395.577 377.760,395.192 378.200 C 394.807 378.640,394.359 379.450,394.196 380.000 C 394.034 380.550,393.563 381.322,393.150 381.716 C 392.738 382.109,392.400 382.630,392.400 382.873 C 392.400 383.365,392.071 383.732,387.902 387.902 C 383.732 392.071,383.365 392.400,382.873 392.400 C 382.630 392.400,382.109 392.738,381.716 393.150 C 381.322 393.563,380.550 394.034,380.000 394.196 C 379.450 394.359,378.640 394.807,378.200 395.192 C 377.760 395.577,376.782 396.009,376.026 396.151 C 375.271 396.293,374.357 396.677,373.996 397.004 C 373.635 397.330,372.183 397.704,370.770 397.835 C 367.460 398.141,365.600 398.715,365.600 399.431 C 365.600 400.185,367.191 400.163,367.756 399.402 C 368.000 399.073,369.280 398.618,370.600 398.391 C 373.308 397.925,376.216 396.824,379.893 394.872 C 385.188 392.063,392.063 385.188,394.872 379.893 C 396.824 376.216,397.925 373.308,398.391 370.600 C 398.618 369.280,399.073 368.000,399.402 367.756 C 400.163 367.191,400.185 365.600,399.431 365.600 C 399.118 365.600,398.684 366.185,398.467 366.900 " stroke="none" fill="#75a1d5" fill-rule="evenodd"></path></g></svg>