<?xml version="1.0" encoding="UTF-8"?>
<svg version="1.1" xmlns="http://www.w3.org/2000/svg" width="956" height="980">
<path d="M0 0 C0.67391785 0.09710266 1.34783569 0.19420532 2.04217529 0.29425049 C89.77099822 12.97639049 172.77128071 49.37040426 259.41552734 123.53320312 C261.14025246 125.12983617 262.87615802 126.7137439 264.61328125 128.296875 C270.16881584 133.37810308 275.60882402 138.39308883 280.4375 144.1875 C282.15369477 146.17828594 283.98740567 147.98389299 285.875 149.8125 C289.74676416 153.63234395 293.13625653 157.73520046 296.53515625 161.9765625 C298.24353159 164.07209738 299.96213878 166.12045388 301.74609375 168.1484375 C353.7849162 227.3121442 388.41479533 303.38852704 405 380 C405.35336426 381.62832764 405.35336426 381.62832764 405.71386719 383.28955078 C424.86448436 473.21003071 417.92166211 567.51150796 346.6328125 742.30175781 C345.10543993 744.82575926 343.59705522 747.36005265 342.09375 749.8984375 C333.08524009 765.00700926 322.88064939 779.19065792 312 793 C311.33613281 793.84691406 310.67226563 794.69382812 309.98828125 795.56640625 C297.37037988 811.51154327 283.75649436 826.43067733 269.38427734 840.80102539 C267.49677187 842.69073189 265.61745383 844.58833938 263.73828125 846.48632812 C256.79638655 853.46005881 249.7341875 859.90479718 242 866 C240.87492618 866.9466567 239.75532195 867.89990488 238.64453125 868.86328125 C215.24920187 889.09620749 189.00527028 906.0143078 162 921 C161.11683105 921.49048828 160.23366211 921.98097656 159.32373047 922.48632812 C110.36501447 949.42599218 56.2276264 965.85990667 1.05780029 973.70574951 C-0.84259852 973.97749273 -2.74145107 974.25999129 -4.64013672 974.54345703 C-42.78813246 980.03053484 -84.90546205 979.68735355 -123 974 C-124.40731056 973.79876482 -125.81470395 973.5981083 -127.22216797 973.39794922 C-169.16349832 967.36061251 -210.2252278 956.25731346 -249 939 C-250.59835693 938.29520508 -250.59835693 938.29520508 -252.22900391 937.57617188 C-289.09501412 921.21913207 -323.66241409 900.42483385 -355 875 C-355.97324219 874.22011719 -356.94648438 873.44023438 -357.94921875 872.63671875 C-363.25094568 868.35540788 -368.3884216 863.93387727 -373.41796875 859.3359375 C-374.78577001 858.09850157 -376.15886857 856.86595696 -377.56860352 855.67651367 C-384.26598227 849.98782495 -390.41035414 843.74030755 -396.60913086 837.52124023 C-398.5579687 835.56704376 -400.51209272 833.61824853 -402.46679688 831.66992188 C-408.52235274 825.61789266 -414.50123868 819.57054549 -420 813 C-420.88799739 811.97801342 -421.77726678 810.9571303 -422.66796875 809.9375 C-429.26723191 802.24347536 -435.4414519 794.30221207 -441.43652344 786.12988281 C-442.4883727 784.69697636 -443.54378003 783.26667568 -444.60253906 781.83886719 C-508.61021009 695.50741432 -540.79886855 589.1855793 -534.48046875 409.23828125 C-522.43278748 330.18689765 -490.9319478 254.01500375 -443 190 C-442.55172852 189.39865234 -442.10345703 188.79730469 -441.64160156 188.17773438 C-436.22856806 180.94123387 -430.52861128 173.97939487 -424.6484375 167.12109375 C-422.2184439 164.27910339 -419.88921861 161.3647976 -417.5625 158.4375 C-413.74815283 153.73975824 -409.61812445 149.4981835 -405.30102539 145.27148438 C-402.56543235 142.58879317 -399.95847091 139.87567255 -397.5 136.9375 C-393.29748368 132.01426229 -388.43682324 127.79699963 -383.63232422 123.47949219 C-381.98126483 121.98301897 -380.34948263 120.46807233 -378.72265625 118.9453125 C-372.02496264 112.67712431 -365.19323977 106.70151193 -358 101 C-356.78887852 100.01194422 -355.57795457 99.0236463 -354.3671875 98.03515625 C-333.76576403 81.42142545 -311.10972335 66.8553996 -288 54 C-287.11425293 53.50628906 -286.22850586 53.01257812 -285.31591797 52.50390625 C-261.3315724 39.27234896 -235.97343616 28.64679527 -210 20 C-208.45530029 19.48445557 -208.45530029 19.48445557 -206.87939453 18.95849609 C-179.85292879 10.05000445 -152.17019448 3.94545728 -124 0 C-122.85724609 -0.16516113 -121.71449219 -0.33032227 -120.53710938 -0.50048828 C-81.52399559 -5.87451692 -38.95813087 -5.73626137 0 0 Z M-110 26 C-111.07668945 26.12890625 -112.15337891 26.2578125 -113.26269531 26.390625 C-177.94983862 34.34079453 -241.98656383 55.65976922 -297 91 C-297.75635742 91.48533203 -298.51271484 91.97066406 -299.29199219 92.47070312 C-320.1805669 105.96957772 -340.18147553 120.66629754 -358.41015625 137.62109375 C-360.43881072 139.48451844 -362.49421998 141.28012793 -364.5859375 143.0703125 C-369.62324899 147.46416102 -374.33171625 152.18150985 -379.0456543 156.9152832 C-380.5599258 158.43491668 -382.0794743 159.94912517 -383.59960938 161.46289062 C-388.94311876 166.80241915 -394.11751375 172.2311124 -399 178 C-399.87694091 179.00969102 -400.75450461 180.01884161 -401.6328125 181.02734375 C-464.80615874 254.79559288 -504.19090613 348.36246929 -512.52734375 526.7384491 C-505.79731931 611.0917978 -475.46351216 694.90882264 -425 763 C-424.2884375 763.97453125 -423.576875 764.9490625 -422.84375 765.953125 C-414.28274935 777.55390124 -405.24025426 788.8196562 -395.4140625 799.375 C-393.54350222 801.40900729 -391.74119721 803.46823589 -389.9453125 805.56640625 C-385.45612751 810.71189778 -380.6486739 815.53738014 -375.82226562 820.36303711 C-374.26139673 821.92608734 -372.70872112 823.49697365 -371.15625 825.06835938 C-365.48062464 830.77498988 -359.69458626 836.08797565 -353.37841797 841.08911133 C-351.12585392 842.89888538 -348.99389743 844.7866984 -346.875 846.75 C-320.29269009 870.55645808 -288.78067678 889.12952099 -257 905 C-256.13487793 905.43650879 -255.26975586 905.87301758 -254.37841797 906.32275391 C-240.8002577 913.14150321 -226.86119115 918.73041798 -212.62109375 924.01367188 C-210.85641586 924.67772727 -209.10457237 925.3768168 -207.36669922 926.1081543 C-201.43393602 928.34380356 -192.83860722 928.133891 -186.9375 925.75 C-180.74330609 922.05984192 -177.53102823 918.74180469 -175 912 C-174.49590789 909.07731933 -174.49032919 906.24911724 -174.54589844 903.2890625 C-174.54531433 902.45884079 -174.54473022 901.62861908 -174.54412842 900.77323914 C-174.54689264 898.0567189 -174.57790444 895.34132611 -174.609375 892.625 C-174.61684333 890.73071899 -174.62253347 888.8364302 -174.62652588 886.94213867 C-174.64173558 881.97717638 -174.68097686 877.01268854 -174.7253418 872.0479126 C-174.76639548 866.97341325 -174.7845584 861.8988366 -174.8046875 856.82421875 C-174.8474759 846.88260503 -174.91567031 836.9413421 -175 827 C-176.58829216 827.15547536 -178.1764902 827.31191253 -179.76464844 827.46875 C-181.09130524 827.59926758 -181.09130524 827.59926758 -182.44476318 827.73242188 C-185.72544056 828.07596635 -188.98501287 828.53148167 -192.25 829 C-220.98115221 832.87321368 -250.48431617 831.81398404 -277 819 C-277.89589844 818.57203125 -278.79179687 818.1440625 -279.71484375 817.703125 C-295.0787213 809.85586473 -307.43433707 798.27103964 -317 784 C-317.57492187 783.14277344 -318.14984375 782.28554688 -318.7421875 781.40234375 C-322.75381474 774.97819414 -325.5802511 768.33352762 -328.375 761.3125 C-339.20644714 734.13963568 -355.04520585 709.30183807 -380.41796875 693.65234375 C-386.06362777 690.03946362 -390.90857723 686.05918862 -394 680 C-394.5 676.3125 -394.5 676.3125 -394 673 C-390.95859184 669.16518101 -385.61576904 668.64820213 -381 668 C-362.61940576 666.05142435 -343.91098426 674.76789051 -329.6484375 685.75390625 C-318.43738748 695.26180265 -310.44879508 705.98291007 -302.58105469 718.38818359 C-287.78461764 741.66951175 -269.64226534 757.41942066 -242.58203125 764.21875 C-238.03930158 765.20953073 -233.64167545 765.81368493 -229 766 C-228.31292969 766.03996094 -227.62585938 766.07992187 -226.91796875 766.12109375 C-213.72959761 766.53705351 -200.72789762 763.36515322 -188.17822266 759.63818359 C-186.20641835 759.0604772 -184.21899517 758.53675418 -182.23046875 758.01953125 C-179.00069483 757.00021929 -176.65064618 756.11008507 -174 754 C-172.57307652 750.89380322 -172.05192469 748.11503047 -171.55859375 744.734375 C-170.9448786 740.63149609 -169.89009208 736.87715664 -168.625 732.9375 C-168.29991455 731.92030884 -168.29991455 731.92030884 -167.96826172 730.88256836 C-163.44342773 716.97816546 -157.26602825 705.22431171 -147.25 694.42578125 C-145.89012774 693.19070052 -145.89012774 693.19070052 -146 692 C-147.46131348 691.78234985 -147.46131348 691.78234985 -148.95214844 691.56030273 C-195.48229998 684.57346083 -242.57624884 674.36359758 -280 644 C-280.5578418 643.54898926 -281.11568359 643.09797852 -281.69042969 642.63330078 C-324.38253496 607.86501979 -342.85391345 555.81492667 -348.625 502.38671875 C-353.03574627 457.59954309 -350.21621735 412.05090295 -328 372 C-327.64679688 371.36223633 -327.29359375 370.72447266 -326.9296875 370.06738281 C-321.3007132 360.03950684 -314.95063535 349.67184953 -306.58203125 341.6953125 C-304.76836591 338.60536415 -304.89100251 338.06064668 -305.625 334.70703125 C-306.06692573 333.13332074 -306.52525288 331.56412221 -307 330 C-307.34305355 328.63130594 -307.6767445 327.26022342 -308 325.88671875 C-308.1640332 325.20641602 -308.32806641 324.52611328 -308.49707031 323.82519531 C-316.55930274 289.55679378 -314.86005216 248.40450084 -300 216 C-277.07822479 208.35940826 -245.14929665 223.11704183 -224.99780273 232.86572266 C-187.25299972 251.74700028 -187.25299972 251.74700028 -177 262 C-169.48684916 261.9104171 -162.24431304 259.98627117 -155 258.1875 C-124.77184771 250.96067906 -93.74109313 247.76731044 -62.6875 247.8125 C-61.90930908 247.81310425 -61.13111816 247.8137085 -60.3293457 247.81433105 C-25.81675735 247.88637138 10.79466425 250.87379211 43.94921875 261.1796875 C48.02360975 262.27523438 51.31826238 262.89917723 55.140625 260.85546875 C55.83671875 260.30503906 56.5328125 259.75460937 57.25 259.1875 C91.35206473 233.91543417 132.92659769 213.73588928 176 215 C187.97687034 253.98279859 194.52980301 293.40607982 181.671875 333.14453125 C180.96422565 336.15204098 180.73136718 337.23060155 182 340 C183.59914918 342.14767766 185.22556216 344.19683033 186.9375 346.25 C214.38752993 380.2648513 226.25782928 421.87189211 226.1875 465.125 C226.18656342 465.87221313 226.18562683 466.61942627 226.18466187 467.38928223 C226.04497423 519.14389501 216.79729907 575.83873658 183 617 C182.54898926 617.5563916 182.09797852 618.1127832 181.63330078 618.68603516 C166.64336785 637.09730733 149.0507985 651.072606 128 662 C127.31583008 662.36303223 126.63166016 662.72606445 125.92675781 663.10009766 C97.36187769 678.11089581 65.27624085 685.55692118 33.48950195 689.70849609 C32.42046631 689.85109863 31.35143066 689.99370117 30.25 690.140625 C29.30640625 690.25954102 28.3628125 690.37845703 27.390625 690.50097656 C24.75041972 690.8970144 24.75041972 690.8970144 22 693 C22.72703125 693.73089844 22.72703125 693.73089844 23.46875 694.4765625 C34.84788003 706.5121808 41.40414628 721.54315668 45.6875 737.375 C45.89012451 738.11709717 46.09274902 738.85919434 46.30151367 739.6237793 C49.41239284 751.71558621 50.29384354 763.7550158 50.23950195 776.20019531 C50.24061833 777.66384987 50.24268155 779.12750395 50.24560547 780.59115601 C50.25028291 783.71211522 50.24925526 786.83299887 50.24382973 789.9539566 C50.23614455 794.89780484 50.24695743 799.8415113 50.2610321 804.78533936 C50.29856508 818.832811 50.31694808 832.88021467 50.30541992 846.92773438 C50.29919144 854.70977169 50.3108358 862.49157634 50.34186524 870.27355647 C50.36043245 875.1800252 50.35728757 880.08583014 50.33769763 884.99228716 C50.33078299 888.04993688 50.34483515 891.10723163 50.36464691 894.164814 C50.36966372 895.57322161 50.36628865 896.98169037 50.35351372 898.39004898 C50.28171143 906.91682071 50.88060911 913.92468832 56 921 C61.28685012 926.01121533 66.78376859 927.59123057 73.94458008 927.72338867 C94.96053236 926.98645008 117.52307253 913.05764976 136 904 C136.94037109 903.54012695 137.88074219 903.08025391 138.84960938 902.60644531 C160.75682075 891.78123354 181.5369119 878.75859867 201 864 C201.60618164 863.54399414 202.21236328 863.08798828 202.83691406 862.61816406 C210.38062533 856.93637599 217.74436471 851.04459652 225 845 C226.00063477 844.17105225 227.00126953 843.34210449 228.03222656 842.48803711 C236.86696557 835.09005962 245.11292864 827.19767506 253.23364258 819.02709961 C255.32085192 816.92910492 257.4186359 814.84210885 259.51757812 812.75585938 C266.80820574 805.47238793 273.63225663 798.11149036 280 790 C280.9224797 788.90941121 281.85216797 787.82482399 282.79296875 786.75 C338.25610703 723.05334528 372.34350116 640.31518674 389 522 C389.10586426 520.78497803 389.10586426 520.78497803 389.21386719 519.54541016 C396.45327457 433.95569696 376.33271534 346.68475235 288.64013672 194.68994141 C287.2797944 193.09738048 285.90992907 191.51370605 284.53515625 189.93359375 C282.18347772 187.21231398 279.92945777 184.43673709 277.6875 181.625 C268.69536373 170.62229805 258.64438251 160.5581851 248.625 150.5 C247.37722778 149.24521851 247.37722778 149.24521851 246.10424805 147.96508789 C241.23058686 143.10410456 236.24121159 138.46105262 231 134 C230.46149414 133.5344873 229.92298828 133.06897461 229.36816406 132.58935547 C221.46956224 125.76281435 213.37267142 119.23662676 205 113 C204.00057373 112.25363281 204.00057373 112.25363281 202.98095703 111.4921875 C146.50270246 69.50514908 80.76809129 41.29878704 11.375 29.6875 C10.26853119 29.50216202 10.26853119 29.50216202 9.13970947 29.31307983 C-14.32058578 25.43015261 -37.60443191 23.78650072 -61.375 23.8125 C-62.39567566 23.81310425 -63.41635132 23.8137085 -64.46795654 23.81433105 C-79.73790123 23.83886109 -94.82723091 24.12694431 -110 26 Z " fill="#030303" transform="translate(540,3)"/>
<path d="M0 0 C0.66 0.33 1.32 0.66 2 1 C-7.57 10.57 -17.14 20.14 -27 30 C-27.66 29.67 -28.32 29.34 -29 29 C-14.96696272 13.6624582 -14.96696272 13.6624582 -8.75390625 8.49609375 C-5.65483666 5.85256668 -2.8382731 2.91809953 0 0 Z " fill="#6D6D6D" transform="translate(163,120)"/>
</svg>
