<?xml version="1.0" encoding="UTF-8"?>
<svg version="1.1" xmlns="http://www.w3.org/2000/svg" width="225" height="225">
<path d="M0 0 C74.25 0 148.5 0 225 0 C225 74.25 225 148.5 225 225 C150.75 225 76.5 225 0 225 C0 150.75 0 76.5 0 0 Z " fill="#FEFEFE" transform="translate(0,0)"/>
<path d="M0 0 C2.31 0 4.62 0 7 0 C7 13.53 7 27.06 7 41 C27.79 41 48.58 41 70 41 C70 27.47 70 13.94 70 0 C72.31 0 74.62 0 77 0 C77 15.84 77 31.68 77 48 C51.59 48 26.18 48 0 48 C0 32.16 0 16.32 0 0 Z " fill="#020202" transform="translate(67,123)"/>
<path d="M0 0 C1.40853516 3.94506736 2.36684683 7.6657536 2.9375 11.8125 C3.59560748 16.40872266 4.35264123 20.96627809 5.21020508 25.52807617 C6.43141347 32.06969921 7.47690739 38.32329657 7 45 C6 46 6 46 2.4375 46.0625 C1.303125 46.041875 0.16875 46.02125 -1 46 C-2.91151247 41.08468221 -3.69030486 36.16906497 -4.5 30.98828125 C-4.90459973 28.5701657 -5.40075249 26.24858194 -6 23.875 C-7.75378743 16.40052502 -8.22686588 8.62441843 -9 1 C-5.8035914 -0.06546953 -3.34252724 -0.07427838 0 0 Z " fill="#090909" transform="translate(152,53)"/>
<path d="M0 0 C4.83711809 1.9824759 9.37530701 4.22259961 13.88671875 6.87109375 C14.51101273 7.23469498 15.1353067 7.5982962 15.77851868 7.97291565 C17.08639159 8.73645471 18.39303615 9.50210144 19.69848633 10.26977539 C21.68853622 11.43810835 23.6847801 12.59530837 25.68164062 13.75195312 C26.95872319 14.49933423 28.23542924 15.24735916 29.51171875 15.99609375 C30.10345383 16.33789169 30.6951889 16.67968964 31.30485535 17.03184509 C34.65944984 19.01900248 37.37307121 21.11725637 40 24 C39.01 25.98 38.02 27.96 37 30 C33.19551866 29.40999341 30.36151532 28.31196937 27.01171875 26.4296875 C26.05185059 25.89053711 25.09198242 25.35138672 24.10302734 24.79589844 C18.63641105 21.63205662 13.21753553 18.3927192 7.8125 15.125 C6.65832942 14.42947788 5.50403314 13.7341643 4.34960938 13.0390625 C1.56517069 11.36140907 -1.21799973 9.68169274 -4 8 C-3.27633685 4.65569263 -2.18284504 2.65737657 0 0 Z " fill="#070707" transform="translate(98,85)"/>
<path d="M0 0 C10.12760883 0.43982758 20.21982939 1.03709187 30.3125 2 C31.18865967 2.0829834 32.06481934 2.1659668 32.9675293 2.25146484 C37.34621876 2.68318454 41.66822035 3.20854923 46 4 C46.125 10.75 46.125 10.75 45 13 C38.22212381 13.28111007 31.85334151 12.61582814 25.16015625 11.578125 C16.82269246 10.35221134 8.39058855 9.75115745 0 9 C0 6.03 0 3.06 0 0 Z " fill="#060606" transform="translate(83,129)"/>
<path d="M0 0 C1.56884766 2.02856445 1.56884766 2.02856445 3.4140625 4.86328125 C4.09339844 5.89646484 4.77273437 6.92964844 5.47265625 7.99414062 C6.53806641 9.63672852 6.53806641 9.63672852 7.625 11.3125 C9.01063768 13.43515135 10.39865207 15.55625315 11.7890625 17.67578125 C12.82015137 19.25093506 12.82015137 19.25093506 13.87207031 20.85791016 C16.61292457 24.90504121 19.54962866 28.7871812 22.54443359 32.64916992 C24 35 24 35 24 39 C21.75 40.875 21.75 40.875 19 42 C14.61683821 40.78648 12.7899908 37.12934911 10.5 33.5 C9.62687511 32.1506707 8.75314923 30.80173015 7.87890625 29.453125 C7.41758301 28.73576172 6.95625977 28.01839844 6.48095703 27.27929688 C4.91687603 24.87206637 3.32077128 22.48887523 1.71484375 20.109375 C1.16957031 19.30048828 0.62429687 18.49160156 0.0625 17.65820312 C-1.00750786 16.07248234 -2.07908306 14.48781786 -3.15234375 12.90429688 C-3.63960938 12.17791016 -4.126875 11.45152344 -4.62890625 10.703125 C-5.2796814 9.73874512 -5.2796814 9.73874512 -5.94360352 8.75488281 C-7 7 -7 7 -8 4 C-2.25 0 -2.25 0 0 0 Z " fill="#040404" transform="translate(123,63)"/>
<path d="M0 0 C1.89693861 0.28438952 3.79252027 0.57783792 5.6875 0.875 C6.74324219 1.03742188 7.79898438 1.19984375 8.88671875 1.3671875 C11.82783423 1.9650052 14.22388208 2.88955283 17 4 C19.81558243 4.74556709 22.65631913 5.37134516 25.5 6 C30.18607113 7.03595355 34.56116623 8.13521167 39 10 C40.9924325 10.37593066 42.9918674 10.71979545 45 11 C44.34 13.97 43.68 16.94 43 20 C35.59888309 18.98651372 28.6956783 17.38326287 21.59375 15.08203125 C16.63399168 13.58871271 11.61215326 12.44057871 6.55981445 11.30712891 C1.18593618 10.09296809 1.18593618 10.09296809 -1 9 C-0.67 6.03 -0.34 3.06 0 0 Z " fill="#050505" transform="translate(87,108)"/>
<path d="M0 0 C15.18 0 30.36 0 46 0 C46 2.97 46 5.94 46 9 C30.82 9 15.64 9 0 9 C0 6.03 0 3.06 0 0 Z " fill="#050505" transform="translate(82,146)"/>
</svg>
